<?xml version="1.0" encoding="utf-8"?>
<!-- Generator: Adobe Illustrator 18.0.0, SVG Export Plug-In . SVG Version: 6.00 Build 0)  -->
<!DOCTYPE svg PUBLIC "-//W3C//DTD SVG 1.1//EN" "http://www.w3.org/Graphics/SVG/1.1/DTD/svg11.dtd">
<svg version="1.1" id="Fundraising_Solutions" xmlns="http://www.w3.org/2000/svg" xmlns:xlink="http://www.w3.org/1999/xlink"
	 x="0px" y="0px" viewBox="0 0 245.8 120.7" enable-background="new 0 0 245.8 120.7" xml:space="preserve">
<g id="Graph_Line_copy_4_3_">
	<g>
		<polygon fill-rule="evenodd" clip-rule="evenodd" fill="#00BB27" points="163.4,68.2 138.5,38.9 117.1,68.9 90.5,49.7 49.9,88.6 
			12.2,75.8 12.2,81.1 49.9,95 90.7,55.9 117.8,76.6 138.7,46.6 163.2,75.6 229.7,20.9 229.7,15.6 		"/>
	</g>
</g>
<g>
	<path fill="#4169E1" d="M110.9,89v1.3h-3.7v2h3.5v1.3h-3.5V97h-1.4v-8H110.9z"/>
	<path fill="#4169E1" d="M117.1,91.1V97H116l-0.2-0.7c-0.7,0.5-1.4,0.7-2.1,0.7c-1.2,0-1.7-0.7-1.7-2.1v-3.7h1.4v3.7
		c0,0.6,0.3,1,0.8,1c0.5,0,0.9-0.2,1.4-0.6v-4.1H117.1z"/>
	<path fill="#4169E1" d="M118.5,97v-5.9h1.1l0.2,0.9c0.5-0.6,1.2-0.9,1.9-0.9c1.4,0,2,0.7,2,2.2V97h-1.4v-3.7c0-0.6-0.3-1-0.9-1
		c-0.5,0-0.9,0.2-1.4,0.6V97H118.5z"/>
	<path fill="#4169E1" d="M130.1,96.6c-0.9,0.2-1.7,0.4-2.6,0.4c-1.8,0-2.8-1-2.8-3c0-1.9,0.9-2.8,2.7-2.8c0.4,0,0.8,0.1,1.2,0.3V89
		h1.4V96.6z M128.7,92.7c-0.3-0.2-0.7-0.3-1.1-0.3c-0.9,0-1.3,0.5-1.3,1.5c0,1.2,0.5,1.8,1.4,1.8c0.4,0,0.7-0.1,1.1-0.2V92.7z"/>
	<path fill="#4169E1" d="M131.5,97v-5.9h1.1l0.2,0.7c0.5-0.5,1-0.7,1.6-0.7v1.2c-0.5,0-1,0.2-1.4,0.7v4H131.5z"/>
	<path fill="#4169E1" d="M134.9,95.2c0-1.2,0.8-1.7,2.5-1.7c0.4,0,0.8,0,1.2,0.1v-0.4c0-0.5-0.4-0.8-1.1-0.8c-0.6,0-1.3,0.1-2.1,0.3
		v-1.2c0.8-0.2,1.5-0.3,2.1-0.3c1.7,0,2.5,0.6,2.5,1.9V97h-0.8l-0.5-0.5c-0.5,0.3-1,0.5-1.6,0.5C135.6,97,134.9,96.4,134.9,95.2z
		 M137.4,94.4c-0.7,0-1,0.2-1,0.7c0,0.5,0.3,0.8,0.9,0.8c0.5,0,0.9-0.2,1.3-0.5v-0.9C138.2,94.5,137.8,94.4,137.4,94.4z"/>
	<path fill="#4169E1" d="M142.8,89v1.2h-1.4V89H142.8z M142.8,91.1V97h-1.4v-5.9H142.8z"/>
	<path fill="#4169E1" d="M144.1,96.7v-1.2c0.6,0.3,1.4,0.4,2.2,0.4c0.6,0,0.9-0.2,0.9-0.6c0-0.4-0.2-0.6-0.6-0.6h-1
		c-1.2,0-1.7-0.6-1.7-1.8c0-1.2,0.8-1.8,2.5-1.8c0.7,0,1.4,0.1,2,0.3v1.2c-0.6-0.3-1.3-0.4-2.1-0.4c-0.8,0-1.2,0.2-1.2,0.6
		c0,0.4,0.2,0.6,0.7,0.6h0.9c1.3,0,1.9,0.6,1.9,1.8c0,1.2-0.8,1.8-2.4,1.8C145.5,97.1,144.7,96.9,144.1,96.7z"/>
	<path fill="#4169E1" d="M151.1,89v1.2h-1.4V89H151.1z M151.1,91.1V97h-1.4v-5.9H151.1z"/>
	<path fill="#4169E1" d="M152.5,97v-5.9h1.1l0.2,0.9c0.5-0.6,1.2-0.9,1.9-0.9c1.4,0,2,0.7,2,2.2V97h-1.4v-3.7c0-0.6-0.3-1-0.9-1
		c-0.5,0-0.9,0.2-1.4,0.6V97H152.5z"/>
	<path fill="#4169E1" d="M164.1,96.6c0,1.7-1,2.6-3,2.6c-0.7,0-1.3-0.1-1.9-0.3v-1.2c0.6,0.2,1.2,0.3,1.9,0.3c1,0,1.6-0.4,1.6-1.3
		c-0.4,0.2-0.9,0.3-1.4,0.3c-1.7,0-2.5-1-2.5-2.9c0-1.9,1-2.9,3-2.9c0.7,0,1.5,0.1,2.4,0.2V96.6z M162.7,92.5
		c-0.2-0.1-0.6-0.1-1-0.1c-1,0-1.5,0.6-1.5,1.7c0,1.1,0.4,1.6,1.3,1.6c0.4,0,0.8-0.1,1.2-0.3V92.5z"/>
	<path fill="#4169E1" d="M167.9,96.7v-1.3c0.8,0.3,1.7,0.4,2.6,0.4c1.2,0,1.8-0.4,1.8-1.2c0-0.6-0.4-0.9-1.1-0.9H170
		c-1.6,0-2.4-0.7-2.4-2.2c0-1.6,1.1-2.5,3.4-2.5c0.9,0,1.7,0.1,2.5,0.4v1.3c-0.8-0.3-1.6-0.4-2.5-0.4c-1.3,0-2,0.4-2,1.2
		c0,0.6,0.3,0.9,0.9,0.9h1.2c1.7,0,2.5,0.7,2.5,2.2c0,1.7-1.1,2.5-3.2,2.5C169.6,97.1,168.7,96.9,167.9,96.7z"/>
	<path fill="#4169E1" d="M174.6,94.1c0-2,0.9-2.9,2.8-2.9s2.8,1,2.8,2.9c0,2-0.9,2.9-2.8,2.9C175.5,97,174.6,96,174.6,94.1z
		 M177.4,95.9c0.9,0,1.4-0.6,1.4-1.8c0-1.2-0.5-1.8-1.4-1.8c-0.9,0-1.4,0.6-1.4,1.8C176,95.3,176.5,95.9,177.4,95.9z"/>
	<path fill="#4169E1" d="M182.8,89v8h-1.4v-8H182.8z"/>
	<path fill="#4169E1" d="M189.3,91.1V97h-1.1l-0.2-0.7c-0.7,0.5-1.4,0.7-2.1,0.7c-1.2,0-1.7-0.7-1.7-2.1v-3.7h1.4v3.7
		c0,0.6,0.3,1,0.8,1c0.5,0,0.9-0.2,1.4-0.6v-4.1H189.3z"/>
	<path fill="#4169E1" d="M190.5,90.2h1.1l0.2,0.9h1.4v1.2H192V95c0,0.5,0.2,0.8,0.7,0.8h0.6V97H192c-1,0-1.4-0.5-1.4-1.6V90.2z"/>
	<path fill="#4169E1" d="M195.7,89v1.2h-1.4V89H195.7z M195.7,91.1V97h-1.4v-5.9H195.7z"/>
	<path fill="#4169E1" d="M196.7,94.1c0-2,0.9-2.9,2.8-2.9s2.8,1,2.8,2.9c0,2-0.9,2.9-2.8,2.9C197.7,97,196.8,96,196.7,94.1z
		 M199.6,95.9c0.9,0,1.4-0.6,1.4-1.8c0-1.2-0.5-1.8-1.4-1.8c-0.9,0-1.4,0.6-1.4,1.8C198.2,95.3,198.7,95.9,199.6,95.9z"/>
	<path fill="#4169E1" d="M203.5,97v-5.9h1.1l0.2,0.9c0.5-0.6,1.2-0.9,1.9-0.9c1.4,0,2,0.7,2,2.2V97h-1.4v-3.7c0-0.6-0.3-1-0.9-1
		c-0.5,0-0.9,0.2-1.4,0.6V97H203.5z"/>
	<path fill="#4169E1" d="M210,96.7v-1.2c0.6,0.3,1.4,0.4,2.2,0.4c0.6,0,0.9-0.2,0.9-0.6c0-0.4-0.2-0.6-0.6-0.6h-1
		c-1.2,0-1.7-0.6-1.7-1.8c0-1.2,0.8-1.8,2.5-1.8c0.7,0,1.4,0.1,2,0.3v1.2c-0.6-0.3-1.3-0.4-2.1-0.4c-0.8,0-1.2,0.2-1.2,0.6
		c0,0.4,0.2,0.6,0.7,0.6h0.9c1.3,0,1.9,0.6,1.9,1.8c0,1.2-0.8,1.8-2.4,1.8C211.4,97.1,210.7,96.9,210,96.7z"/>
</g>
<g>
	<path fill="#3A3A3A" d="M36.9,86.8V53.7H43v13.7h16.3V53.7h6.1v33.1h-6.1V72.7H43v14.1H36.9z"/>
	<path fill="#3A3A3A" d="M76.2,53.7v4.9H70v-4.9H76.2z M76.2,62.5v24.3H70V62.5H76.2z"/>
	<path fill="#3A3A3A" d="M101.9,85c0,7.1-4.3,10.7-12.8,10.7c-3,0-5.7-0.4-8-1.2v-4.9c2.4,0.8,5,1.2,8,1.2c4.4,0,6.6-1.9,6.6-5.6
		c-1.8,0.8-3.8,1.2-5.9,1.2c-7.2,0-10.8-3.9-10.8-11.8c0-8,4.2-12,12.6-12c2.8,0,6.2,0.3,10.2,1V85z M95.8,68
		c-1-0.4-2.4-0.6-4.3-0.6c-4.2,0-6.4,2.3-6.4,7c0,4.5,1.8,6.8,5.5,6.8c1.8,0,3.5-0.4,5.2-1.3V68z"/>
	<path fill="#3A3A3A" d="M105.9,86.8V53.7h6.1v11.9c1.9-2.1,4.4-3.1,7.3-3.1c5.8,0,8.6,3,8.6,9v15.3h-6.1V71.5c0-2.7-1.3-4-4-4
		c-2,0-3.9,0.8-5.8,2.4v17H105.9z"/>
	<path fill="#3A3A3A" d="M138.2,53.7v33.1H132V53.7H138.2z"/>
	<path fill="#3A3A3A" d="M141,79.2c0-4.8,3.5-7.3,10.6-7.3c1.7,0,3.3,0.2,5,0.5v-1.8c0-2.2-1.6-3.3-4.7-3.3c-2.7,0-5.6,0.4-8.9,1.2
		v-4.9c3.2-0.8,6.2-1.2,8.9-1.2c7.2,0,10.8,2.7,10.8,8v16.3h-3.6l-2.2-2.2c-2.1,1.5-4.5,2.2-7,2.2C144,86.8,141,84.3,141,79.2z
		 M151.6,76.1c-3,0-4.4,1-4.4,3c0,2.2,1.2,3.2,3.7,3.2c2,0,3.9-0.6,5.7-1.9v-3.9C155,76.3,153.3,76.1,151.6,76.1z"/>
	<path fill="#3A3A3A" d="M166.6,86.8V62.5h4.8l0.8,3.6c2.3-2.4,5-3.6,8-3.6c5.8,0,8.6,3,8.6,9v15.3h-6.1V71.5c0-2.7-1.3-4-4-4
		c-2,0-3.9,0.8-5.8,2.4v17H166.6z"/>
	<path fill="#3A3A3A" d="M214.3,85.3c-3.7,1-7.4,1.5-10.9,1.5c-7.9,0-11.8-4.2-11.8-12.7c0-7.8,3.8-11.7,11.5-11.7
		c1.6,0,3.3,0.4,5,1.2v-10h6.1V85.3z M208.2,68.8c-1.3-0.8-2.9-1.3-4.8-1.3c-3.8,0-5.7,2.1-5.7,6.4c0,5.1,2,7.6,6,7.6
		c1.6,0,3.1-0.2,4.5-0.7V68.8z"/>
</g>
</svg>
