<?xml version="1.0" encoding="utf-8"?>
<!-- Generator: Adobe Illustrator 22.1.0, SVG Export Plug-In . SVG Version: 6.00 Build 0)  -->
<svg version="1.1" id="Layer_1" xmlns="http://www.w3.org/2000/svg" xmlns:xlink="http://www.w3.org/1999/xlink" x="0px" y="0px"
	 viewBox="0 0 200.3 201" style="enable-background:new 0 0 200.3 201;" xml:space="preserve">
<style type="text/css">
	.st0{enable-background:new    ;}
	.st1{fill:#6D7DBD;}
	.st2{fill:#4D69B1;}
	.st3{fill:#58595B;}
	.st4{fill:none;stroke:#25B24B;stroke-width:4;}
</style>
<title>Highland - rackcard FINAL</title>
<g class="st0">
	<path class="st1" d="M9.5,8.9h1.1h1.9v0.6c0.1-0.1,0.2-0.1,0.3-0.2c0.1-0.1,0.2-0.1,0.3-0.2C13.3,9,13.4,9,13.6,8.9
		s0.4-0.1,0.6-0.2c0.2,0,0.4-0.1,0.6-0.1c0.2,0,0.4,0,0.6,0h1.1c0.3,0,0.5,0,0.7,0c0.2,0,0.5,0.1,0.7,0.1c0.2,0.1,0.4,0.1,0.7,0.2
		s0.4,0.2,0.6,0.2c0.2,0.1,0.4,0.2,0.6,0.3s0.4,0.3,0.6,0.4c0.1,0.1,0.3,0.2,0.4,0.3c0.1,0.1,0.2,0.2,0.4,0.4
		c0.1-0.1,0.2-0.2,0.3-0.3c0.1-0.1,0.2-0.2,0.3-0.3c0.1-0.1,0.3-0.2,0.4-0.3c0.1-0.1,0.3-0.2,0.5-0.3c0.2-0.1,0.3-0.2,0.5-0.3
		c0.2-0.1,0.4-0.2,0.5-0.2c0.2-0.1,0.4-0.1,0.5-0.2c0.2-0.1,0.4-0.1,0.5-0.1h0.1l0.1,0l0.1,0h0.1h0.1l0.1,0h1.1h0.1h0.1
		c0.1,0,0.2,0,0.3,0c0.1,0,0.2,0,0.3,0c0.1,0,0.2,0,0.3,0.1c0.1,0,0.2,0,0.3,0.1c0.2,0.1,0.4,0.1,0.6,0.2C28.8,9,29,9.1,29.2,9.2
		c0.2,0.1,0.4,0.2,0.6,0.3s0.4,0.3,0.6,0.4c0.1,0.1,0.2,0.2,0.3,0.2s0.2,0.2,0.3,0.2c0.1,0.1,0.2,0.2,0.3,0.3
		c0.1,0.1,0.2,0.2,0.3,0.3c0.1,0.1,0.3,0.3,0.4,0.5c0.1,0.2,0.2,0.3,0.3,0.5c0.1,0.2,0.2,0.4,0.2,0.5c0.1,0.2,0.1,0.4,0.2,0.6
		c0,0.1,0,0.2,0.1,0.3s0,0.2,0.1,0.3c0,0.1,0,0.2,0,0.3s0,0.2,0,0.3c0,0.2,0,0.4,0,0.6c0,0.2,0,0.4,0,0.6v8.5h-1.1h-2v-8.4
		c0,0,0-0.1,0-0.1s0-0.1,0-0.1c0,0,0-0.1,0-0.1c0,0,0-0.1,0-0.1V15v-0.1l0-0.1v-0.1c0,0,0-0.1,0-0.1c0,0,0-0.1,0-0.2
		c0,0,0-0.1,0-0.1s0,0,0-0.1c0,0,0-0.1,0-0.1s0,0,0-0.1c0,0,0-0.1,0-0.1c0,0,0-0.1,0-0.2c0,0,0-0.1,0-0.1c0,0,0,0,0-0.1
		c0,0,0,0,0-0.1s0,0,0-0.1c0-0.1-0.1-0.2-0.1-0.3c0-0.1-0.1-0.2-0.1-0.3c0,0,0-0.1-0.1-0.1c0,0,0-0.1-0.1-0.2c0,0,0-0.1-0.1-0.1
		c0,0,0-0.1-0.1-0.1c-0.1-0.1-0.2-0.3-0.3-0.4c-0.1-0.1-0.2-0.2-0.4-0.4c-0.1-0.1-0.3-0.2-0.4-0.3c-0.1-0.1-0.3-0.2-0.4-0.2
		c-0.1-0.1-0.3-0.1-0.5-0.2c-0.2-0.1-0.3-0.1-0.5-0.1c0,0-0.1,0-0.1,0s-0.1,0-0.1,0c0,0-0.1,0-0.1,0c0,0-0.1,0-0.1,0
		c-0.1,0-0.1,0-0.2,0c-0.1,0-0.1,0-0.2,0c-0.1,0-0.3,0.1-0.5,0.1c-0.2,0.1-0.3,0.1-0.5,0.2c-0.1,0.1-0.3,0.2-0.4,0.2
		c-0.1,0.1-0.3,0.2-0.4,0.3c-0.1,0.1-0.2,0.2-0.3,0.3c-0.1,0.1-0.2,0.2-0.3,0.4c-0.1,0.1-0.1,0.2-0.2,0.2c-0.1,0.1-0.1,0.2-0.1,0.3
		c0,0,0,0.1-0.1,0.1c0,0,0,0.1-0.1,0.1c0,0.1,0,0.1,0,0.2c0,0,0,0.1,0,0.1c0,0.1,0,0.2-0.1,0.3c0,0.1,0,0.2-0.1,0.3
		c0,0.1,0,0.2,0,0.3c0,0.1,0,0.2,0,0.3c0,0.1,0,0.1,0,0.2c0,0,0,0.1,0,0.1c0,0.1,0,0.1,0,0.2s0,0.1,0,0.1c0,0.1,0,0.1,0,0.2
		c0,0,0,0.1,0,0.1s0,0.1,0,0.1c0,0,0,0.1,0,0.1v0.1v0v0.1v8.3h-1.1h-2v-8.6c0,0,0-0.1,0-0.1s0-0.1,0-0.1c0,0,0-0.1,0-0.1
		c0,0,0-0.1,0-0.1s0-0.1,0-0.1c0,0,0-0.1,0-0.2c0,0,0-0.1,0-0.1s0-0.1,0-0.1c0-0.1,0-0.2,0-0.3c0-0.1,0-0.2,0-0.2c0,0,0-0.1,0-0.1
		c0,0,0-0.1,0-0.2c0,0,0-0.1,0-0.1s0-0.1,0-0.2c0,0,0-0.1,0-0.1c0,0,0-0.1,0-0.1c0,0,0-0.1,0-0.1c0,0,0-0.1,0-0.1c0,0,0,0,0-0.1
		c0,0,0,0,0-0.1c0,0,0,0,0-0.1s0,0,0-0.1c0,0,0,0,0-0.1c0,0,0,0,0-0.1c0,0,0,0,0-0.1c0,0,0,0,0-0.1c-0.1-0.1-0.2-0.3-0.3-0.4
		c-0.1-0.1-0.2-0.2-0.4-0.3c-0.1-0.1-0.3-0.2-0.4-0.3c-0.1-0.1-0.3-0.2-0.4-0.3c-0.1-0.1-0.3-0.2-0.5-0.2c-0.2-0.1-0.3-0.1-0.5-0.1
		c-0.1,0-0.1,0-0.2,0c-0.1,0-0.1,0-0.2,0c-0.1,0-0.1,0-0.2,0c-0.1,0-0.1,0-0.2,0c-0.1,0-0.3,0.1-0.5,0.1c-0.2,0.1-0.3,0.1-0.5,0.2
		c-0.1,0.1-0.3,0.2-0.4,0.2c-0.1,0.1-0.3,0.2-0.4,0.3c-0.1,0.1-0.2,0.2-0.4,0.3c-0.1,0.1-0.2,0.2-0.3,0.4c-0.1,0.1-0.2,0.3-0.2,0.4
		s-0.1,0.3-0.2,0.4c-0.1,0.1-0.1,0.3-0.1,0.4c0,0.1-0.1,0.3-0.1,0.4c0,0.1,0,0.3,0,0.4c0,0.1,0,0.3,0,0.4c0,0.1,0,0.1,0,0.2
		c0,0.1,0,0.1,0,0.2c0,0.1,0,0.1,0,0.2c0,0.1,0,0.1,0,0.2v8.5h-1.1h-2V8.9z"/>
</g>
<g class="st0">
	<path class="st1" d="M61.3,23.9h-1.1h-2v-1.3c-0.2,0.2-0.4,0.4-0.6,0.5c-0.2,0.2-0.5,0.3-0.7,0.4c-0.3,0.1-0.5,0.2-0.8,0.3
		S55.5,24,55.2,24c-0.3,0.1-0.6,0.1-0.9,0.1c-0.3,0-0.6,0.1-0.9,0.1l-1.1,0c0,0-0.1,0-0.1,0c0,0-0.1,0-0.1,0c0,0-0.1,0-0.1,0
		c0,0-0.1,0-0.1,0c0,0-0.1,0-0.1,0c0,0-0.1,0-0.1,0c0,0-0.1,0-0.1,0c0,0-0.1,0-0.1,0c0,0-0.1,0-0.1,0c0,0-0.1,0-0.1,0
		c-0.1,0-0.1,0-0.1,0c0,0-0.1,0-0.1,0c-0.1,0-0.1,0-0.2,0c-0.1,0-0.1,0-0.2,0c-0.2,0-0.4-0.1-0.6-0.1c-0.2-0.1-0.4-0.1-0.6-0.2
		c-0.2-0.1-0.4-0.2-0.6-0.3c-0.2-0.1-0.4-0.2-0.6-0.3c-0.2-0.1-0.4-0.3-0.6-0.4c-0.2-0.1-0.4-0.3-0.6-0.5c-0.2-0.2-0.4-0.3-0.6-0.5
		c-0.2-0.2-0.4-0.4-0.5-0.6L45.6,21c0,0,0,0,0,0c0,0,0,0,0,0c0,0,0,0,0-0.1c0,0,0,0,0-0.1c0,0,0-0.1-0.1-0.1c0,0-0.1-0.1-0.1-0.1
		c0,0,0-0.1-0.1-0.1c0,0,0-0.1-0.1-0.2c-0.1-0.1-0.1-0.2-0.2-0.4c-0.1-0.1-0.1-0.3-0.2-0.4c-0.1-0.1-0.1-0.3-0.2-0.5
		c-0.1-0.2-0.1-0.3-0.1-0.5c-0.1-0.2-0.1-0.3-0.1-0.5c0-0.2-0.1-0.4-0.1-0.5c0-0.2,0-0.4,0-0.6c0-0.2,0-0.4,0-0.6c0-0.3,0-0.5,0-0.8
		c0-0.2,0.1-0.5,0.1-0.7c0.1-0.2,0.1-0.5,0.2-0.7c0.1-0.2,0.2-0.5,0.2-0.7c0.1-0.2,0.2-0.4,0.3-0.7c0.1-0.2,0.2-0.4,0.4-0.6
		c0.1-0.2,0.3-0.4,0.4-0.6c0.1-0.2,0.3-0.4,0.5-0.5c0.2-0.2,0.4-0.4,0.6-0.5c0.2-0.2,0.4-0.3,0.6-0.5s0.4-0.3,0.6-0.4
		c0.2-0.1,0.5-0.3,0.7-0.4c0.2-0.1,0.5-0.2,0.7-0.3c0.3-0.1,0.5-0.2,0.8-0.2c0.3-0.1,0.6-0.1,0.9-0.1c0.3,0,0.6-0.1,0.9-0.1h1.1h0.1
		h0h0.1c0.3,0,0.6,0,0.9,0.1c0.3,0,0.6,0.1,0.8,0.2c0.3,0.1,0.5,0.2,0.8,0.2c0.3,0.1,0.5,0.2,0.8,0.3c0.3,0.1,0.5,0.3,0.7,0.4
		c0.2,0.2,0.4,0.3,0.6,0.5V8.9h1.1h2V23.9z M51.9,10.7c-0.3,0.1-0.5,0.2-0.8,0.2c-0.3,0.1-0.7,0.3-1,0.5s-0.6,0.5-0.9,0.8
		s-0.5,0.6-0.8,0.9c-0.2,0.3-0.4,0.7-0.5,1c-0.1,0.3-0.3,0.7-0.3,1.1c-0.1,0.4-0.1,0.8-0.1,1.2c0,0.4,0,0.8,0.1,1.2
		c0.1,0.4,0.2,0.8,0.3,1.1c0.1,0.3,0.3,0.7,0.6,1c0.2,0.3,0.5,0.6,0.8,0.9c0.3,0.3,0.6,0.5,1,0.7c0.3,0.2,0.7,0.4,1,0.5
		c0.3,0.1,0.6,0.2,0.8,0.2c0.3,0.1,0.6,0.1,0.9,0.1c0.3,0,0.6-0.1,0.9-0.2c0.3-0.1,0.6-0.2,0.8-0.3c0.3-0.1,0.7-0.3,1-0.5
		c0.3-0.2,0.6-0.5,0.9-0.8c0.3-0.3,0.5-0.6,0.8-0.9c0.2-0.3,0.4-0.6,0.5-1c0.1-0.3,0.3-0.7,0.3-1c0.1-0.4,0.1-0.8,0.1-1.2
		c0-0.4,0-0.8-0.1-1.2c-0.1-0.4-0.2-0.8-0.3-1.1c-0.1-0.4-0.3-0.7-0.5-1c-0.2-0.3-0.5-0.6-0.7-0.9c-0.3-0.3-0.6-0.5-0.9-0.8
		c-0.3-0.2-0.6-0.4-1-0.5c-0.3-0.1-0.6-0.2-0.9-0.3c-0.3-0.1-0.6-0.1-1-0.1C52.5,10.6,52.2,10.7,51.9,10.7z"/>
</g>
<g class="st0">
	<path class="st1" d="M73.2,8.9h1.1h1.9v1c0.1-0.1,0.3-0.2,0.5-0.4c0.2-0.1,0.3-0.2,0.5-0.3C77.4,9.1,77.6,9,77.8,9
		c0.2-0.1,0.4-0.2,0.6-0.2c0.2-0.1,0.4-0.1,0.7-0.1c0.2,0,0.5,0,0.7,0h1.1c0.3,0,0.5,0,0.8,0c0.2,0,0.5,0.1,0.7,0.1
		c0.3,0.1,0.5,0.1,0.7,0.2c0.2,0.1,0.5,0.2,0.7,0.3c0.2,0.1,0.5,0.2,0.7,0.4c0.2,0.1,0.4,0.3,0.6,0.4c0.2,0.1,0.4,0.3,0.6,0.5
		c0.2,0.2,0.4,0.4,0.5,0.6c0.1,0.1,0.1,0.2,0.2,0.3c0.1,0.1,0.1,0.2,0.2,0.3c0.1,0.1,0.1,0.2,0.2,0.3c0.1,0.1,0.1,0.2,0.2,0.3
		s0.1,0.2,0.1,0.3c0,0.1,0.1,0.2,0.1,0.3c0,0.1,0.1,0.2,0.1,0.3c0,0.1,0,0.2,0.1,0.3c0,0.2,0.1,0.4,0.1,0.6c0,0.2,0.1,0.4,0.1,0.6
		c0,0.2,0,0.4,0,0.7c0,0.2,0,0.5,0,0.7v7.9h-1.1h-2V16c0,0,0-0.1,0-0.1s0-0.1,0-0.1c0,0,0-0.1,0-0.1c0,0,0-0.1,0-0.1
		c0-0.1,0-0.2,0-0.3c0-0.1,0-0.2,0-0.2c0-0.1,0-0.1,0-0.2c0-0.1,0-0.1,0-0.2c0,0,0-0.1,0-0.1c0,0,0-0.1,0-0.1c0,0,0-0.1,0-0.1
		c0,0,0-0.1,0-0.1c0-0.1,0-0.3-0.1-0.5c0-0.2-0.1-0.3-0.2-0.4C84,13.1,84,13,83.9,12.9c-0.1-0.1-0.2-0.3-0.3-0.4
		c-0.1-0.1-0.3-0.3-0.4-0.4c-0.1-0.1-0.3-0.3-0.4-0.4c-0.1-0.1-0.3-0.2-0.4-0.3c-0.2-0.1-0.3-0.2-0.5-0.3c-0.2-0.1-0.4-0.2-0.5-0.2
		c-0.2-0.1-0.4-0.1-0.5-0.1c-0.1,0-0.1,0-0.2,0c0,0-0.1,0-0.2,0c-0.1,0-0.1,0-0.2,0c0,0-0.1,0-0.2,0c-0.1,0-0.2,0-0.4,0.1
		c-0.1,0-0.2,0.1-0.3,0.1c-0.2,0.1-0.3,0.1-0.5,0.2c-0.2,0.1-0.3,0.1-0.5,0.2c-0.1,0.1-0.3,0.2-0.4,0.3c-0.1,0.1-0.3,0.2-0.4,0.3
		c-0.1,0.1-0.2,0.2-0.4,0.3c-0.1,0.1-0.2,0.2-0.3,0.4c0,0.1-0.1,0.1-0.1,0.2c0,0.1-0.1,0.1-0.1,0.2c0,0.1-0.1,0.1-0.1,0.2
		c0,0.1-0.1,0.1-0.1,0.2c-0.1,0.1-0.1,0.3-0.1,0.4s-0.1,0.2-0.1,0.4c0,0.1,0,0.3-0.1,0.4c0,0.1,0,0.3,0,0.4c0,0.1,0,0.3,0,0.4
		s0,0.3,0,0.4l0,0.1v0.1v0.1v0.1v0.1v0.1V16V16v7.9h-1.1h-2V8.9z"/>
</g>
<g class="st0">
	<path class="st1" d="M116,23.9h-1.1h-2v-1.3c-0.2,0.2-0.4,0.4-0.6,0.5c-0.2,0.2-0.5,0.3-0.7,0.4c-0.3,0.1-0.5,0.2-0.8,0.3
		c-0.3,0.1-0.5,0.1-0.8,0.2c-0.3,0.1-0.6,0.1-0.9,0.1c-0.3,0-0.6,0.1-0.9,0.1l-1.1,0c0,0-0.1,0-0.1,0c0,0-0.1,0-0.1,0
		c0,0-0.1,0-0.1,0c0,0-0.1,0-0.1,0c0,0-0.1,0-0.1,0c0,0-0.1,0-0.1,0c0,0-0.1,0-0.1,0c0,0-0.1,0-0.1,0c0,0-0.1,0-0.1,0
		c0,0-0.1,0-0.1,0c-0.1,0-0.1,0-0.1,0c0,0-0.1,0-0.1,0c-0.1,0-0.1,0-0.2,0c-0.1,0-0.1,0-0.2,0c-0.2,0-0.4-0.1-0.6-0.1
		c-0.2-0.1-0.4-0.1-0.6-0.2c-0.2-0.1-0.4-0.2-0.6-0.3c-0.2-0.1-0.4-0.2-0.6-0.3c-0.2-0.1-0.4-0.3-0.6-0.4c-0.2-0.1-0.4-0.3-0.6-0.5
		c-0.2-0.2-0.4-0.3-0.6-0.5c-0.2-0.2-0.4-0.4-0.5-0.6l-0.1-0.1c0,0,0,0,0,0c0,0,0,0,0,0c0,0,0,0,0-0.1c0,0,0,0,0-0.1
		c0,0,0-0.1-0.1-0.1c0,0-0.1-0.1-0.1-0.1c0,0,0-0.1-0.1-0.1c0,0,0-0.1-0.1-0.2c-0.1-0.1-0.1-0.2-0.2-0.4c-0.1-0.1-0.1-0.3-0.2-0.4
		c-0.1-0.1-0.1-0.3-0.2-0.5c-0.1-0.2-0.1-0.3-0.1-0.5c-0.1-0.2-0.1-0.3-0.1-0.5c0-0.2-0.1-0.4-0.1-0.5c0-0.2,0-0.4,0-0.6
		c0-0.2,0-0.4,0-0.6c0-0.3,0-0.5,0-0.8c0-0.2,0.1-0.5,0.1-0.7c0.1-0.2,0.1-0.5,0.2-0.7c0.1-0.2,0.2-0.5,0.2-0.7
		c0.1-0.2,0.2-0.4,0.3-0.7c0.1-0.2,0.2-0.4,0.4-0.6c0.1-0.2,0.3-0.4,0.4-0.6c0.1-0.2,0.3-0.4,0.5-0.5c0.2-0.2,0.4-0.4,0.6-0.5
		c0.2-0.2,0.4-0.3,0.6-0.5s0.4-0.3,0.6-0.4c0.2-0.1,0.5-0.3,0.7-0.4c0.2-0.1,0.5-0.2,0.7-0.3c0.3-0.1,0.5-0.2,0.8-0.2
		c0.3-0.1,0.6-0.1,0.9-0.1c0.3,0,0.6-0.1,0.9-0.1h1.1h0.1h0h0.1c0.3,0,0.6,0,0.9,0.1c0.3,0,0.6,0.1,0.8,0.2c0.3,0.1,0.5,0.2,0.8,0.2
		c0.3,0.1,0.5,0.2,0.8,0.3c0.3,0.1,0.5,0.3,0.7,0.4c0.2,0.2,0.4,0.3,0.6,0.5V8.9h1.1h2V23.9z M106.7,10.7c-0.3,0.1-0.5,0.2-0.8,0.2
		c-0.3,0.1-0.7,0.3-1,0.5s-0.6,0.5-0.9,0.8s-0.5,0.6-0.8,0.9c-0.2,0.3-0.4,0.7-0.5,1c-0.1,0.3-0.3,0.7-0.3,1.1
		c-0.1,0.4-0.1,0.8-0.1,1.2c0,0.4,0,0.8,0.1,1.2c0.1,0.4,0.2,0.8,0.3,1.1c0.1,0.3,0.3,0.7,0.6,1c0.2,0.3,0.5,0.6,0.8,0.9
		c0.3,0.3,0.6,0.5,1,0.7c0.3,0.2,0.7,0.4,1,0.5c0.3,0.1,0.6,0.2,0.8,0.2c0.3,0.1,0.6,0.1,0.9,0.1c0.3,0,0.6-0.1,0.9-0.2
		c0.3-0.1,0.6-0.2,0.8-0.3c0.3-0.1,0.7-0.3,1-0.5c0.3-0.2,0.6-0.5,0.9-0.8c0.3-0.3,0.5-0.6,0.8-0.9c0.2-0.3,0.4-0.6,0.5-1
		c0.1-0.3,0.3-0.7,0.3-1c0.1-0.4,0.1-0.8,0.1-1.2c0-0.4,0-0.8-0.1-1.2c-0.1-0.4-0.2-0.8-0.3-1.1c-0.1-0.4-0.3-0.7-0.5-1
		c-0.2-0.3-0.5-0.6-0.7-0.9c-0.3-0.3-0.6-0.5-0.9-0.8c-0.3-0.2-0.6-0.4-1-0.5c-0.3-0.1-0.6-0.2-0.9-0.3c-0.3-0.1-0.6-0.1-1-0.1
		C107.2,10.6,106.9,10.7,106.7,10.7z"/>
	<path class="st1" d="M144.1,21.7c0,0.1,0,0.2,0,0.3c0,0.1,0,0.2,0,0.3c0,0.1,0,0.2,0,0.3s0,0.2,0,0.3c0,0.2,0,0.4,0,0.5
		c0,0.2,0,0.3,0,0.4c0,0.1,0,0.1,0,0.2c0,0.1,0,0.1,0,0.2c0,0.1,0,0.2,0,0.3c0,0.1,0,0.2,0,0.2s0,0.1-0.1,0.2s-0.1,0.1-0.1,0.2
		c0,0,0,0.1-0.1,0.1c0,0,0,0.1,0,0.1c0,0,0,0.1-0.1,0.1c0,0,0,0.1-0.1,0.1c0,0.1-0.1,0.1-0.1,0.2c0,0.1-0.1,0.1-0.1,0.2
		c0,0.1-0.1,0.1-0.1,0.2s-0.1,0.1-0.1,0.2c0,0,0,0.1-0.1,0.1c0,0-0.1,0.1-0.1,0.1c0,0-0.1,0-0.1,0.1c0,0,0,0.1-0.1,0.1
		c0,0,0,0.1-0.1,0.1c0,0-0.1,0.1-0.1,0.1c0,0-0.1,0-0.1,0.1c0,0-0.1,0.1-0.1,0.1c-0.1,0.2-0.3,0.3-0.5,0.5c-0.2,0.1-0.3,0.3-0.5,0.4
		c-0.2,0.1-0.4,0.3-0.6,0.4c-0.2,0.1-0.4,0.2-0.6,0.3c-0.1,0.1-0.2,0.1-0.3,0.2c-0.1,0-0.2,0.1-0.3,0.1c-0.1,0-0.2,0.1-0.3,0.1
		c-0.1,0-0.2,0.1-0.3,0.1c-0.2,0.1-0.4,0.1-0.7,0.2c-0.2,0.1-0.4,0.1-0.7,0.1c0,0,0,0-0.1,0s-0.1,0-0.1,0c0,0-0.1,0-0.1,0s0,0-0.1,0
		c0,0,0,0-0.1,0s-0.1,0-0.1,0c0,0-0.1,0-0.1,0c0,0,0,0-0.1,0l-0.2,0l-0.1,0h-1.1h-0.2h-0.1c-0.4,0-0.8-0.1-1.2-0.1
		c-0.4-0.1-0.8-0.2-1.2-0.3c-0.4-0.1-0.8-0.3-1.1-0.5c-0.4-0.2-0.7-0.4-1.1-0.7c-0.3-0.3-0.7-0.5-1-0.8c-0.3-0.3-0.6-0.6-0.8-0.9
		c-0.2-0.3-0.4-0.7-0.6-1c-0.2-0.4-0.3-0.8-0.4-1.2l1.1,0h2c0.1,0.3,0.3,0.5,0.5,0.8c0.2,0.2,0.3,0.5,0.5,0.7
		c0.2,0.2,0.4,0.4,0.6,0.6c0.2,0.2,0.4,0.4,0.7,0.5c0.2,0.1,0.5,0.3,0.7,0.4s0.5,0.2,0.8,0.3c0.2,0.1,0.4,0.1,0.6,0.1
		s0.4,0.1,0.6,0.1c0.1,0,0.2,0,0.3,0c0.1,0,0.2,0,0.3-0.1c0.1,0,0.2,0,0.3-0.1c0.1,0,0.2,0,0.3-0.1c0.2-0.1,0.4-0.2,0.6-0.2
		c0.2-0.1,0.4-0.2,0.6-0.3c0.2-0.1,0.4-0.2,0.6-0.4c0.2-0.1,0.4-0.3,0.5-0.4c0.1-0.1,0.3-0.3,0.4-0.5c0.1-0.2,0.3-0.4,0.4-0.6
		c0-0.1,0.1-0.1,0.1-0.2c0-0.1,0.1-0.1,0.1-0.2c0,0,0,0,0-0.1c0,0,0-0.1,0-0.1c0,0,0,0,0-0.1c0,0,0-0.1,0-0.1l0.1-0.1l0.1-0.1l0-0.2
		l0.1-0.2c0-0.1,0-0.1,0-0.2c0-0.1,0-0.2,0-0.2c0-0.1,0-0.2,0-0.3c0-0.1,0-0.2,0-0.3c0,0,0-0.1,0-0.1s0-0.1,0-0.2c0,0,0,0,0,0
		c0,0,0,0,0,0c-0.1,0.1-0.3,0.2-0.4,0.4c-0.2,0.1-0.3,0.2-0.5,0.3c-0.2,0.1-0.5,0.2-0.7,0.3c-0.2,0.1-0.5,0.2-0.7,0.3
		c-0.2,0.1-0.5,0.1-0.7,0.2c-0.2,0.1-0.5,0.1-0.8,0.1l-0.1,0l-0.1,0h-0.1h-0.1h-0.1l-0.1,0h-1.1h-0.1h-0.1h-0.1h-0.1h0H135h-0.1h0
		c-0.2,0-0.5-0.1-0.7-0.1c-0.2,0-0.5-0.1-0.7-0.1c-0.2-0.1-0.5-0.1-0.7-0.2c-0.2-0.1-0.5-0.1-0.7-0.2c-0.2-0.1-0.5-0.2-0.7-0.3
		c-0.2-0.1-0.4-0.2-0.6-0.4c-0.2-0.1-0.4-0.3-0.5-0.4c-0.2-0.1-0.4-0.3-0.5-0.5c-0.2-0.2-0.4-0.4-0.6-0.6c-0.2-0.2-0.3-0.4-0.5-0.6
		s-0.3-0.4-0.4-0.7c-0.1-0.2-0.2-0.5-0.3-0.7c-0.1-0.2-0.2-0.5-0.2-0.7c-0.1-0.2-0.1-0.5-0.2-0.8c-0.1-0.3-0.1-0.5-0.1-0.8
		c0-0.3,0-0.5,0-0.8c0-0.2,0-0.4,0-0.6c0-0.2,0-0.4,0-0.5c0-0.2,0.1-0.4,0.1-0.5c0-0.2,0.1-0.4,0.1-0.5c0-0.2,0.1-0.3,0.1-0.5
		c0.1-0.2,0.1-0.3,0.2-0.4c0.1-0.1,0.1-0.3,0.2-0.4c0.1-0.1,0.1-0.2,0.2-0.4c0,0,0-0.1,0.1-0.1c0,0,0-0.1,0.1-0.1c0,0,0,0,0-0.1
		c0,0,0,0,0-0.1c0,0,0,0,0-0.1c0,0,0,0,0-0.1c0,0,0,0,0-0.1c0,0,0,0,0-0.1c0,0,0-0.1,0.1-0.1l0.1-0.1c0.3-0.3,0.5-0.6,0.8-0.9
		c0.2-0.3,0.5-0.5,0.8-0.7c0.3-0.2,0.5-0.4,0.8-0.5c0.3-0.2,0.5-0.3,0.8-0.4c0.3-0.1,0.5-0.2,0.8-0.3c0.3-0.1,0.5-0.2,0.8-0.2
		c0.3-0.1,0.5-0.1,0.8-0.1c0.3,0,0.5-0.1,0.8-0.1h1.1h0h0.1h0.1h0h0.1h0.1c0.3,0,0.6,0,0.9,0.1s0.6,0.1,0.8,0.2
		c0.3,0.1,0.5,0.2,0.8,0.3s0.5,0.2,0.8,0.4c0.3,0.1,0.5,0.3,0.7,0.4c0.2,0.2,0.4,0.3,0.6,0.5V8.9h1.1h2V21.7z M134.7,10.7
		c-0.3,0.1-0.5,0.2-0.7,0.2c-0.3,0.1-0.6,0.3-0.9,0.5s-0.6,0.5-0.8,0.8c-0.3,0.3-0.5,0.6-0.7,0.9c-0.2,0.3-0.4,0.6-0.5,1
		c-0.1,0.3-0.2,0.7-0.3,1s-0.1,0.7-0.1,1.1c0,0.4,0,0.8,0.1,1.2c0.1,0.4,0.2,0.8,0.3,1.1c0.1,0.3,0.3,0.7,0.5,1
		c0.2,0.3,0.4,0.6,0.7,0.9c0.3,0.3,0.5,0.6,0.9,0.8c0.3,0.2,0.6,0.4,1,0.6c0.3,0.1,0.5,0.2,0.8,0.3c0.3,0.1,0.6,0.1,0.9,0.1
		c0.1,0,0.2,0,0.3,0c0.1,0,0.2,0,0.3-0.1c0.2,0,0.4-0.1,0.5-0.1c0.2,0,0.4-0.1,0.5-0.2c0.2-0.1,0.3-0.2,0.5-0.2
		c0.2-0.1,0.3-0.2,0.5-0.3c0.1-0.1,0.3-0.2,0.5-0.4c0.2-0.1,0.3-0.3,0.5-0.4c0.1-0.1,0.2-0.2,0.3-0.3c0.1-0.1,0.2-0.2,0.3-0.4
		c0.1-0.1,0.2-0.3,0.2-0.4s0.1-0.3,0.2-0.4c0.1-0.1,0.1-0.3,0.2-0.4c0.1-0.1,0.1-0.3,0.2-0.4c0-0.1,0.1-0.3,0.1-0.4
		c0-0.1,0.1-0.3,0.1-0.4v-0.1l0.1-0.2v-0.1l0-0.1v-0.1l0-0.1v-0.1v-0.1c0-0.4,0-0.8-0.1-1.2s-0.2-0.8-0.3-1.1
		c-0.1-0.3-0.3-0.7-0.5-1c-0.2-0.3-0.5-0.6-0.8-0.9c-0.3-0.3-0.6-0.5-0.9-0.7s-0.7-0.4-1-0.5c-0.3-0.1-0.6-0.2-0.9-0.3
		s-0.6-0.1-1-0.1C135.2,10.6,134.9,10.7,134.7,10.7z"/>
</g>
<g class="st0">
	<path class="st1" d="M158.6,17.1c0,0.4,0.1,0.7,0.2,1.1c0.1,0.3,0.2,0.7,0.3,1c0.1,0.3,0.3,0.6,0.5,0.9c0.2,0.3,0.5,0.6,0.8,0.8
		c0.3,0.3,0.6,0.5,0.9,0.7c0.3,0.2,0.6,0.4,0.9,0.5c0.3,0.1,0.5,0.2,0.8,0.2c0.2,0.1,0.5,0.1,0.8,0.1c0.2,0,0.4,0,0.6-0.1
		s0.4-0.1,0.5-0.1c0.3-0.1,0.5-0.2,0.8-0.3c0.3-0.1,0.5-0.2,0.8-0.4c0.3-0.1,0.5-0.3,0.7-0.5c0.2-0.2,0.4-0.4,0.6-0.5
		c0.2-0.2,0.3-0.4,0.5-0.6c0.1-0.2,0.3-0.5,0.4-0.7l2.1-0.1h1.1c-0.1,0.4-0.3,0.8-0.5,1.1c-0.2,0.3-0.4,0.7-0.6,1s-0.5,0.6-0.8,0.9
		c-0.3,0.3-0.6,0.5-1,0.8c-0.3,0.2-0.7,0.5-1.1,0.6s-0.7,0.3-1.1,0.5c-0.4,0.1-0.7,0.2-1.1,0.2s-0.8,0.1-1.2,0.1l-1.1,0
		c-0.5,0-1.1-0.1-1.6-0.2s-1-0.2-1.5-0.4c-0.5-0.2-0.9-0.4-1.3-0.7c-0.4-0.3-0.8-0.6-1.2-1c-0.4-0.4-0.7-0.8-1-1.2
		c-0.3-0.4-0.5-0.9-0.7-1.3c-0.2-0.5-0.3-1-0.4-1.5c-0.1-0.5-0.1-1-0.1-1.6c0-0.5,0-1,0.1-1.6c0.1-0.5,0.2-1,0.4-1.4
		c0.2-0.5,0.4-0.9,0.7-1.3c0.3-0.4,0.6-0.8,1-1.2c0.4-0.4,0.8-0.7,1.2-1c0.4-0.3,0.9-0.5,1.3-0.7c0.5-0.2,1-0.3,1.5-0.4
		s1-0.1,1.6-0.1h1.1c0.3,0,0.6,0,0.9,0.1c0.3,0,0.6,0.1,0.9,0.1c0.3,0.1,0.5,0.2,0.8,0.2c0.3,0.1,0.5,0.2,0.8,0.3
		c0.3,0.1,0.5,0.3,0.8,0.4c0.2,0.2,0.5,0.3,0.7,0.5c0.2,0.2,0.4,0.4,0.6,0.6c0.2,0.2,0.4,0.4,0.6,0.6c0.2,0.2,0.3,0.4,0.5,0.7
		c0.1,0.2,0.3,0.4,0.4,0.7c0.1,0.1,0.1,0.2,0.2,0.3c0.1,0.1,0.1,0.2,0.1,0.3c0,0.1,0.1,0.2,0.1,0.4c0,0.1,0.1,0.2,0.1,0.3
		c0.1,0.2,0.1,0.5,0.2,0.7c0,0.2,0.1,0.5,0.1,0.7c0,0.1,0,0.3,0.1,0.5c0,0.2,0,0.3,0.1,0.5c0,0.1,0,0.2,0,0.2c0,0.1,0,0.2,0,0.3
		H158.6z M169.1,15.3c-0.1-0.3-0.2-0.6-0.3-0.9c-0.1-0.3-0.3-0.6-0.4-0.9c-0.2-0.3-0.4-0.5-0.6-0.8c-0.2-0.3-0.5-0.5-0.7-0.7
		c-0.3-0.2-0.6-0.4-0.9-0.6c-0.3-0.2-0.6-0.3-0.9-0.4c-0.2-0.1-0.4-0.2-0.7-0.2c-0.2-0.1-0.5-0.1-0.7-0.1c-0.3,0-0.5,0.1-0.8,0.1
		s-0.5,0.1-0.7,0.2c-0.3,0.1-0.6,0.2-0.9,0.4c-0.3,0.2-0.6,0.4-0.9,0.6c-0.3,0.2-0.5,0.5-0.8,0.7c-0.2,0.3-0.4,0.5-0.6,0.8
		c-0.2,0.3-0.3,0.6-0.4,0.9c-0.1,0.3-0.2,0.6-0.3,1H169.1z"/>
</g>
<g class="st0">
	<path class="st2" d="M7.4,35.2h2.9h14.3c1,0,1.9,0.1,2.8,0.2c0.9,0.1,1.9,0.2,2.8,0.3c0.9,0.1,1.8,0.3,2.7,0.4
		c0.9,0.1,1.8,0.3,2.7,0.5c0.9,0.2,1.7,0.5,2.6,0.8c0.8,0.3,1.7,0.7,2.5,1.1c0.8,0.4,1.6,0.8,2.4,1.3c0.8,0.5,1.6,1.1,2.4,1.7
		c0.8,0.6,1.5,1.3,2.2,2c0.7,0.7,1.3,1.4,1.9,2.2c0.6,0.8,1.1,1.6,1.7,2.4c0.5,0.8,1,1.7,1.4,2.6s0.8,1.8,1.1,2.7
		c0.3,0.9,0.6,1.8,0.8,2.8c0.1,0.5,0.2,1,0.3,1.4c0.1,0.5,0.2,0.9,0.2,1.4c0,0.5,0.1,1,0.1,1.4c0,0.5,0,1,0,1.4c0,1,0,1.9-0.1,2.8
		c-0.1,0.9-0.2,1.9-0.4,2.8c-0.2,0.9-0.4,1.8-0.7,2.7c-0.3,0.9-0.6,1.7-1,2.6c-0.4,0.9-0.8,1.7-1.3,2.5c-0.5,0.8-0.9,1.6-1.5,2.3
		c-0.5,0.8-1.1,1.5-1.7,2.2c-0.6,0.7-1.3,1.3-1.9,1.9c-0.8,0.7-1.6,1.4-2.4,2c-0.8,0.6-1.7,1.1-2.5,1.6c-0.9,0.5-1.7,0.9-2.6,1.2
		c-0.9,0.3-1.7,0.6-2.6,0.8c-0.9,0.2-1.8,0.4-2.7,0.5c-0.9,0.2-1.8,0.3-2.8,0.4c-0.9,0-1.9,0.1-2.9,0.1c-1,0-2,0.1-3,0.1H22H7.4
		V35.2z M19.5,83.5c0.9,0,1.7,0.1,2.6,0s1.7-0.1,2.6-0.1c0.8-0.1,1.6-0.2,2.5-0.3c0.8-0.1,1.6-0.2,2.4-0.3c0.8-0.1,1.6-0.3,2.3-0.5
		c0.7-0.2,1.5-0.5,2.3-0.9c0.8-0.3,1.5-0.7,2.3-1.2c0.7-0.5,1.5-1,2.3-1.6c0.7-0.5,1.3-1.1,1.9-1.7c0.6-0.6,1.1-1.2,1.6-1.8
		c0.5-0.6,1-1.3,1.4-1.9c0.4-0.7,0.8-1.4,1.1-2.2c0.3-0.7,0.6-1.5,0.9-2.2c0.2-0.8,0.5-1.5,0.6-2.3c0.2-0.8,0.3-1.6,0.4-2.4
		c0.1-0.8,0.2-1.6,0.2-2.5c0-0.9-0.1-1.7-0.2-2.5c-0.1-0.8-0.2-1.6-0.4-2.4c-0.2-0.8-0.4-1.6-0.6-2.3c-0.2-0.7-0.5-1.4-0.9-2.2
		c-0.3-0.7-0.7-1.3-1.1-2c-0.4-0.7-0.9-1.3-1.4-1.9c-0.5-0.7-1-1.3-1.7-1.9c-0.6-0.6-1.3-1.1-1.9-1.7c-0.8-0.5-1.5-1-2.3-1.5
		c-0.7-0.5-1.5-0.8-2.3-1.2c-0.8-0.4-1.5-0.7-2.3-0.9c-0.7-0.2-1.5-0.4-2.3-0.5c-0.8-0.1-1.6-0.2-2.4-0.3c-0.8-0.1-1.7-0.2-2.5-0.2
		c-0.8-0.1-1.7-0.2-2.5-0.2c-0.9,0-1.7,0-2.6,0l-4-0.1v43.4H19.5z"/>
</g>
<g class="st0">
	<path class="st2" d="M78.5,35.2h2.9h5.9L110,88.4h-2.9h-5.7l-7.7-17.8H71.8l-7.7,17.8h-2.9h-5.7L78.5,35.2z M91.6,65.7l-8.8-21
		l-8.9,21H91.6z"/>
	<path class="st2" d="M122.1,40.1h-12.2v-4.8h2.9h29.6v4.8h-12.1v48.3h-2.9h-5.3V40.1z"/>
</g>
<g class="st0">
	<path class="st2" d="M164.5,35.2h2.9h5.9l22.8,53.1h-2.9h-5.7l-7.7-17.8h-21.8l-7.7,17.8h-2.9h-5.7L164.5,35.2z M177.7,65.7
		l-8.8-21l-8.9,21H177.7z"/>
</g>
<g class="st0">
	<path class="st3" d="M5.1,117.1h2.7h11.5c0.2,0,0.5,0.1,0.7,0.1c0.2,0,0.5,0,0.8,0c0.2,0,0.5,0.1,0.7,0.1c0.2,0,0.5,0,0.7,0
		c0.5,0,1,0.1,1.5,0.1c0.5,0,1,0.1,1.5,0.2c0.2,0,0.4,0.1,0.7,0.1c0.2,0,0.5,0.1,0.7,0.1c0.2,0.1,0.4,0.2,0.7,0.2
		c0.2,0.1,0.4,0.1,0.7,0.2c0.5,0.2,0.9,0.4,1.4,0.6c0.4,0.2,0.9,0.5,1.3,0.7c0.4,0.3,0.9,0.6,1.3,1c0.4,0.3,0.8,0.7,1.1,1.1
		c0.4,0.4,0.7,0.8,1,1.2c0.3,0.4,0.6,0.8,0.9,1.3c0.3,0.4,0.5,0.9,0.7,1.4c0.2,0.5,0.4,1,0.5,1.5c0.1,0.5,0.2,1,0.3,1.5
		c0.1,0.5,0.1,1,0.1,1.6c0,0.5,0,1.1-0.1,1.6c-0.1,0.5-0.2,1-0.3,1.5c-0.1,0.4-0.3,0.9-0.5,1.3c-0.2,0.4-0.4,0.9-0.6,1.3
		c-0.3,0.4-0.5,0.8-0.8,1.2c-0.3,0.4-0.6,0.7-0.9,1.1c-0.3,0.3-0.7,0.6-1.1,1c-0.4,0.3-0.8,0.7-1.2,1c0.6,0.3,1.2,0.6,1.8,0.9
		c0.6,0.4,1.1,0.7,1.6,1.1c0.5,0.4,1,0.8,1.4,1.3c0.4,0.5,0.8,1,1.2,1.5c0.4,0.6,0.7,1.2,0.9,1.7c0.3,0.6,0.5,1.2,0.7,1.8
		c0.2,0.6,0.3,1.3,0.4,1.9c0.1,0.7,0.1,1.4,0.1,2.1c0,0.6,0,1.1-0.1,1.7c-0.1,0.5-0.2,1.1-0.3,1.6c-0.1,0.5-0.3,1.1-0.5,1.6
		c-0.2,0.5-0.4,1-0.7,1.5c-0.3,0.5-0.6,1-0.9,1.5c-0.3,0.4-0.7,0.9-1,1.3c-0.4,0.4-0.8,0.8-1.2,1.1c-0.4,0.4-0.8,0.7-1.3,1l-0.3,0.2
		l-0.3,0.2l-0.3,0.1l-0.3,0.1c-0.2,0.1-0.5,0.3-0.7,0.4c-0.2,0.1-0.5,0.2-0.7,0.3c-0.2,0.1-0.4,0.2-0.7,0.2
		c-0.2,0.1-0.4,0.1-0.7,0.2c-0.3,0-0.5,0.1-0.7,0.2c-0.2,0.1-0.4,0.1-0.7,0.2c-0.2,0-0.5,0.1-0.7,0.1c-0.2,0-0.5,0.1-0.7,0.1
		c-0.2,0-0.5,0.1-0.7,0.1c-0.2,0-0.5,0-0.7,0c-0.3,0-0.5,0.1-0.8,0.1c-0.2,0-0.5,0-0.7,0h-2.7c-0.5,0-1,0-1.5,0c-0.5,0-1,0-1.5,0
		h-0.1h-0.1h-0.1h-0.1H17h-0.1h-0.1h-0.1H5.1V117.1z M18,138.2v0.1c0,0,0.1,0,0.1,0c0,0,0.1,0,0.1,0c0.1,0,0.3,0,0.4,0
		c0.1,0,0.3,0,0.4,0c0.1,0,0.2,0,0.2,0s0.1,0,0.2-0.1c0.1,0,0.2,0,0.2,0c0.1,0,0.1,0,0.2,0c0.1,0,0.3,0,0.4,0c0.1,0,0.3-0.1,0.4-0.1
		c0.1,0,0.3,0,0.4,0c0.1,0,0.3-0.1,0.4-0.1c0.3,0,0.5-0.1,0.8-0.2c0.3-0.1,0.5-0.1,0.8-0.2c0.1,0,0.3-0.1,0.4-0.2
		c0.1-0.1,0.3-0.1,0.4-0.2c0.1-0.1,0.2-0.2,0.3-0.2c0.1-0.1,0.3-0.1,0.4-0.2c0.3-0.1,0.5-0.3,0.8-0.5c0.2-0.2,0.5-0.4,0.7-0.6
		c0.2-0.2,0.4-0.5,0.7-0.7c0.2-0.2,0.4-0.5,0.6-0.8c0.2-0.3,0.3-0.5,0.5-0.8c0.1-0.3,0.3-0.6,0.4-0.9c0.1-0.3,0.2-0.6,0.2-1
		s0.1-0.7,0.2-1v-0.1v-0.1v-0.1v-0.1V130v-0.1v-0.1v-0.1c0-0.3-0.1-0.6-0.2-0.9c-0.1-0.3-0.1-0.6-0.2-0.9c-0.1-0.3-0.3-0.6-0.4-0.9
		c-0.1-0.3-0.3-0.6-0.5-0.9c-0.2-0.3-0.4-0.6-0.6-0.9s-0.4-0.5-0.6-0.7c-0.2-0.2-0.5-0.4-0.7-0.6c-0.2-0.2-0.5-0.4-0.8-0.6
		c-0.2-0.1-0.4-0.2-0.6-0.3c-0.2-0.1-0.4-0.2-0.6-0.3c-0.1,0-0.2-0.1-0.3-0.1c-0.1,0-0.2-0.1-0.4-0.1c-0.1,0-0.2,0-0.3-0.1
		c-0.1,0-0.2-0.1-0.4-0.1c-0.2,0-0.5-0.1-0.7-0.1c-0.2,0-0.5-0.1-0.7-0.1c-0.2,0-0.5-0.1-0.7-0.1c-0.2,0-0.5-0.1-0.7-0.1h-0.3H19
		h-2.7h-0.3h-0.2h-0.2l-3.1-0.1v16.5H18z M18.7,161.9l0.2,0.1c0.1,0,0.2,0,0.3,0c0.1,0,0.2,0,0.3,0c0.1,0,0.2,0,0.3,0
		c0.1,0,0.2,0,0.3-0.1c0.1,0,0.3,0,0.4,0s0.3,0,0.5,0c0.1,0,0.3,0,0.4,0c0.1,0,0.3,0,0.4,0c0.3,0,0.5-0.1,0.8-0.1
		c0.3,0,0.6-0.1,0.9-0.1c0.3,0,0.5-0.1,0.8-0.2c0.3-0.1,0.5-0.1,0.8-0.2c0.3-0.1,0.5-0.2,0.8-0.3c0.2-0.1,0.5-0.2,0.7-0.4
		c0.3-0.2,0.6-0.4,0.9-0.6c0.3-0.2,0.5-0.4,0.8-0.6c0.3-0.2,0.5-0.5,0.8-0.8c0.2-0.3,0.5-0.6,0.7-0.9c0.2-0.3,0.4-0.6,0.6-1
		c0.2-0.3,0.3-0.7,0.5-1c0.1-0.4,0.2-0.7,0.3-1c0.1-0.3,0.2-0.7,0.2-1v-0.1l0.1-0.1v-0.1v-0.1v-0.1v-0.1v-0.1v-0.1v-0.1v-0.1
		c0-0.5,0-1-0.1-1.5c-0.1-0.5-0.2-1-0.3-1.4c-0.1-0.5-0.3-0.9-0.5-1.4c-0.2-0.4-0.4-0.8-0.7-1.2c-0.3-0.4-0.6-0.8-1-1.1
		s-0.7-0.7-1-1c-0.4-0.3-0.8-0.5-1.2-0.7c-0.4-0.2-0.8-0.4-1.3-0.6c-0.2-0.1-0.5-0.2-0.7-0.2c-0.2-0.1-0.5-0.1-0.8-0.2
		c-0.3-0.1-0.5-0.1-0.8-0.2c-0.2,0-0.5-0.1-0.7-0.1c0,0-0.1,0-0.2,0c-0.1,0-0.1,0-0.2-0.1c0,0-0.1,0-0.2,0c-0.1,0-0.1,0-0.2,0
		c-0.1,0-0.3,0-0.4,0s-0.2-0.1-0.3-0.1c-0.1,0-0.3,0-0.4,0s-0.3,0-0.4,0c0,0-0.1,0-0.2,0c-0.1,0-0.1,0-0.2-0.1c0,0-0.1,0-0.2,0
		s-0.1,0-0.2,0c0,0-0.1,0-0.2,0c0,0-0.1,0-0.1,0c0,0-0.1,0-0.1,0l-0.4-0.1h-0.5h-0.4c-0.1,0-0.3,0-0.4,0c-0.1,0-0.3,0-0.4,0
		c-0.1,0-0.3,0-0.4,0s-0.3,0-0.4,0h-0.1h-0.1h-0.1h-0.1l-2.5-0.1v19.2H18.7z"/>
	<path class="st3" d="M53.5,117.1V147c0,0.1,0,0.3,0,0.4c0,0.1,0,0.2,0,0.3c0,0.1,0,0.3,0,0.4c0,0.1,0,0.2,0,0.3c0,0.1,0,0.2,0,0.3
		c0,0.1,0,0.2,0,0.3s0,0.2,0,0.3c0,0.1,0,0.2,0.1,0.3c0,0.4,0,0.7,0.1,1c0,0.3,0.1,0.7,0.1,1c0,0.3,0.1,0.6,0.2,1
		c0.1,0.3,0.1,0.7,0.2,1c0.1,0.3,0.2,0.6,0.3,1c0.1,0.3,0.2,0.7,0.3,1c0.1,0.3,0.3,0.6,0.5,0.9c0.2,0.3,0.4,0.6,0.5,0.9
		c0.2,0.4,0.5,0.8,0.8,1.2c0.3,0.4,0.6,0.7,1,1c0.4,0.3,0.7,0.6,1.1,0.9c0.4,0.3,0.8,0.5,1.2,0.7c0.4,0.2,0.9,0.4,1.3,0.6
		c0.4,0.2,0.9,0.3,1.3,0.4c0.1,0,0.3,0.1,0.4,0.1c0.1,0,0.2,0,0.4,0c0.1,0,0.3,0.1,0.4,0.1c0.1,0,0.2,0,0.4,0s0.3,0,0.4,0
		s0.3-0.1,0.4-0.1c0.1,0,0.2,0,0.3,0c0.1,0,0.3-0.1,0.4-0.1c0.4-0.1,0.8-0.2,1.2-0.4c0.4-0.2,0.8-0.4,1.2-0.5
		c0.4-0.2,0.7-0.4,1.1-0.6c0.4-0.2,0.7-0.5,1-0.7c0.4-0.3,0.7-0.6,0.9-0.9c0.3-0.3,0.5-0.6,0.8-1c0.3-0.4,0.5-0.7,0.7-1.1
		c0.2-0.4,0.4-0.8,0.6-1.2c0.2-0.4,0.3-0.8,0.5-1.2c0.1-0.4,0.2-0.8,0.3-1.3c0.1-0.4,0.2-0.9,0.2-1.3c0.1-0.4,0.1-0.9,0.2-1.3
		c0-0.4,0.1-0.9,0.1-1.3c0-0.4,0.1-0.9,0.1-1.3V148v-0.1v-0.1v-0.1v-0.3v-0.3v-30h2.7h4.9V147c0,0.7,0,1.3,0,1.9
		c0,0.6-0.1,1.2-0.2,1.9c0,0.6-0.1,1.2-0.2,1.8c-0.1,0.6-0.2,1.2-0.3,1.8c-0.1,0.6-0.2,1.2-0.4,1.8c-0.2,0.6-0.4,1.2-0.7,1.7
		c-0.3,0.6-0.6,1.1-0.9,1.7c-0.3,0.5-0.7,1-1.1,1.5c-0.4,0.5-0.8,1-1.2,1.5c-0.4,0.4-0.9,0.9-1.4,1.3c-0.5,0.4-1,0.8-1.5,1.1
		c-0.5,0.3-1.1,0.6-1.7,0.9c-0.3,0.1-0.6,0.2-0.9,0.3c-0.3,0.1-0.6,0.2-0.8,0.3c-0.3,0-0.6,0.1-0.9,0.2c-0.3,0.1-0.6,0.2-0.9,0.2
		c-0.6,0.1-1.2,0.2-1.8,0.3c-0.6,0.1-1.3,0.1-1.9,0.1l-2.7,0.1c-0.6,0-1.2-0.1-1.8-0.2s-1.2-0.2-1.8-0.3c-0.6-0.1-1.2-0.3-1.7-0.4
		c-0.6-0.1-1.2-0.3-1.7-0.5c-0.6-0.2-1.1-0.5-1.6-0.8c-0.5-0.3-1-0.6-1.5-1c-0.5-0.4-1-0.7-1.4-1.2c-0.4-0.4-0.8-0.9-1.2-1.4
		c-0.4-0.5-0.8-1-1.2-1.5c-0.4-0.5-0.7-1.1-0.9-1.7c-0.3-0.6-0.5-1.2-0.7-1.8c-0.2-0.6-0.3-1.2-0.4-1.8c-0.1-0.6-0.2-1.2-0.3-1.8
		s-0.1-1.2-0.2-1.8c0-0.6-0.1-1.3-0.1-1.9c0-0.6,0-1.3,0-2v-30h2.7H53.5z"/>
	<path class="st3" d="M92.2,117.1h2.7h4.9v49.2h-2.7h-4.9V117.1z"/>
	<path class="st3" d="M109.9,117.1h2.7h4.9v44.7h20.4v4.5h-2.7h-25.3V117.1z"/>
	<path class="st3" d="M143.3,117.1h2.7h13.3c0.9,0,1.8,0.1,2.6,0.2c0.9,0.1,1.7,0.2,2.6,0.3c0.8,0.1,1.7,0.3,2.5,0.4
		c0.8,0.1,1.7,0.3,2.5,0.5c0.8,0.2,1.6,0.4,2.4,0.7c0.8,0.3,1.5,0.6,2.3,1c0.8,0.4,1.5,0.8,2.3,1.2c0.8,0.5,1.5,1,2.2,1.6
		c0.7,0.6,1.4,1.2,2,1.8c0.6,0.6,1.2,1.3,1.7,2c0.5,0.7,1,1.4,1.5,2.2c0.5,0.8,0.9,1.6,1.3,2.4c0.4,0.8,0.8,1.7,1.1,2.5
		c0.3,0.8,0.6,1.7,0.7,2.6c0.1,0.4,0.2,0.9,0.3,1.3c0.1,0.4,0.2,0.9,0.2,1.3c0,0.4,0.1,0.9,0.1,1.3c0,0.4,0,0.9,0,1.3
		c0,0.9,0,1.8-0.1,2.6c-0.1,0.9-0.2,1.7-0.4,2.6c-0.2,0.8-0.4,1.7-0.7,2.5c-0.3,0.8-0.6,1.6-0.9,2.4c-0.4,0.8-0.7,1.6-1.2,2.3
		c-0.4,0.8-0.9,1.5-1.4,2.1c-0.5,0.7-1,1.4-1.6,2c-0.6,0.6-1.2,1.2-1.8,1.8c-0.7,0.7-1.5,1.3-2.2,1.8c-0.8,0.6-1.5,1.1-2.3,1.5
		c-0.8,0.4-1.6,0.8-2.4,1.1c-0.8,0.3-1.6,0.5-2.4,0.8c-0.8,0.2-1.7,0.3-2.5,0.5c-0.8,0.2-1.7,0.3-2.6,0.4c-0.8,0-1.7,0.1-2.7,0.1
		c-0.9,0-1.9,0.1-2.8,0.1h-2.7h-13.6V117.1z M154.6,161.9c0.8,0,1.6,0.1,2.4,0c0.8,0,1.6-0.1,2.4-0.1c0.8-0.1,1.5-0.2,2.3-0.2
		s1.5-0.1,2.2-0.2c0.8-0.1,1.5-0.2,2.2-0.5c0.7-0.2,1.4-0.5,2.1-0.8c0.7-0.3,1.4-0.7,2.1-1.1c0.7-0.4,1.4-0.9,2.1-1.5
		c0.6-0.5,1.2-1,1.8-1.5c0.6-0.5,1.1-1.1,1.5-1.7c0.5-0.6,0.9-1.2,1.3-1.8c0.4-0.6,0.7-1.3,1-2c0.3-0.7,0.6-1.4,0.8-2.1
		c0.2-0.7,0.4-1.4,0.6-2.1c0.2-0.8,0.3-1.5,0.4-2.2c0.1-0.7,0.2-1.5,0.2-2.3c0-0.8-0.1-1.6-0.2-2.3c-0.1-0.8-0.2-1.5-0.4-2.2
		c-0.2-0.8-0.4-1.5-0.6-2.1c-0.2-0.7-0.5-1.3-0.8-2c-0.3-0.6-0.7-1.2-1-1.9c-0.4-0.6-0.8-1.2-1.3-1.8c-0.4-0.6-1-1.2-1.5-1.7
		c-0.6-0.5-1.2-1-1.8-1.5c-0.7-0.5-1.4-0.9-2.1-1.4c-0.7-0.4-1.4-0.8-2.1-1.1c-0.7-0.4-1.4-0.6-2.1-0.8c-0.7-0.2-1.4-0.4-2.2-0.5
		c-0.7-0.1-1.5-0.2-2.2-0.3c-0.8-0.1-1.5-0.2-2.3-0.2c-0.8-0.1-1.5-0.1-2.3-0.2c-0.8,0-1.6,0-2.4,0l-3.7-0.1v40.2H154.6z"/>
</g>
<g class="st0">
	<path class="st3" d="M6.3,179.8h1.1h1.9v0.7c0.1-0.1,0.2-0.2,0.3-0.2c0.1-0.1,0.2-0.1,0.4-0.2c0.2-0.1,0.4-0.2,0.6-0.2
		s0.4-0.1,0.6-0.2c0.2,0,0.4-0.1,0.7-0.1c0.2,0,0.4-0.1,0.7-0.1h1.1v2c-0.1,0-0.1,0-0.2,0c-0.1,0-0.1,0-0.2,0c-0.1,0-0.1,0-0.2,0
		c0,0-0.1,0-0.2,0c-0.1,0-0.1,0-0.2,0c0,0-0.1,0-0.2,0c0,0-0.1,0-0.1,0c0,0-0.1,0-0.1,0c-0.1,0-0.1,0-0.2,0.1c0,0-0.1,0-0.1,0
		c-0.1,0-0.1,0-0.2,0.1c0,0-0.1,0-0.1,0.1c-0.1,0-0.2,0.1-0.2,0.1c-0.1,0-0.2,0.1-0.3,0.1l-0.1,0.1l-0.1,0l-0.1,0.1l-0.1,0.1
		l-0.1,0.1l-0.1,0l-0.1,0.1l-0.1,0.1c0,0-0.1,0-0.1,0.1c0,0-0.1,0.1-0.1,0.1l-0.2,0.2l-0.1,0.1l-0.1,0.1l-0.1,0.1l-0.1,0.1
		c-0.1,0.1-0.2,0.3-0.3,0.4c-0.1,0.1-0.2,0.2-0.2,0.3c-0.1,0.1-0.1,0.2-0.2,0.3c0,0.1-0.1,0.2-0.1,0.4c0,0.1,0,0.3-0.1,0.4
		c0,0.1,0,0.3,0,0.4c0,0.1,0,0.3,0,0.5s0,0.3,0,0.5v8.4H8.3h-2V179.8z"/>
</g>
<g class="st0">
	<path class="st3" d="M18.2,188.1c0,0.4,0.1,0.7,0.2,1.1s0.2,0.7,0.3,1c0.1,0.3,0.3,0.6,0.5,0.9c0.2,0.3,0.5,0.6,0.8,0.8
		c0.3,0.3,0.6,0.5,0.9,0.7s0.6,0.4,0.9,0.5c0.3,0.1,0.5,0.2,0.8,0.2c0.2,0.1,0.5,0.1,0.8,0.1c0.2,0,0.4,0,0.6-0.1
		c0.2,0,0.4-0.1,0.5-0.1c0.3-0.1,0.5-0.2,0.8-0.3c0.3-0.1,0.5-0.2,0.8-0.4c0.3-0.1,0.5-0.3,0.7-0.5c0.2-0.2,0.4-0.4,0.6-0.5
		c0.2-0.2,0.3-0.4,0.5-0.6c0.1-0.2,0.3-0.5,0.4-0.7l2.1-0.1h1.1c-0.1,0.4-0.3,0.8-0.5,1.1s-0.4,0.7-0.6,1c-0.2,0.3-0.5,0.6-0.8,0.9
		c-0.3,0.3-0.6,0.5-1,0.8c-0.3,0.2-0.7,0.5-1.1,0.6c-0.4,0.2-0.7,0.3-1.1,0.5c-0.4,0.1-0.7,0.2-1.1,0.2s-0.8,0.1-1.2,0.1l-1.1,0
		c-0.5,0-1.1-0.1-1.6-0.2c-0.5-0.1-1-0.2-1.5-0.4c-0.5-0.2-0.9-0.4-1.3-0.7c-0.4-0.3-0.8-0.6-1.2-1c-0.4-0.4-0.7-0.8-1-1.2
		c-0.3-0.4-0.5-0.9-0.7-1.3c-0.2-0.5-0.3-1-0.4-1.5c-0.1-0.5-0.1-1-0.1-1.6c0-0.5,0-1,0.1-1.6c0.1-0.5,0.2-1,0.4-1.4
		c0.2-0.5,0.4-0.9,0.7-1.3c0.3-0.4,0.6-0.8,1-1.2c0.4-0.4,0.8-0.7,1.2-1c0.4-0.3,0.9-0.5,1.3-0.7c0.5-0.2,1-0.3,1.5-0.4
		s1-0.1,1.6-0.1H24c0.3,0,0.6,0,0.9,0.1c0.3,0,0.6,0.1,0.9,0.1c0.3,0.1,0.5,0.2,0.8,0.2c0.3,0.1,0.5,0.2,0.8,0.3
		c0.3,0.1,0.5,0.3,0.8,0.4c0.2,0.2,0.5,0.3,0.7,0.5c0.2,0.2,0.4,0.4,0.6,0.6c0.2,0.2,0.4,0.4,0.6,0.6c0.2,0.2,0.3,0.4,0.5,0.7
		c0.1,0.2,0.3,0.4,0.4,0.7c0.1,0.1,0.1,0.2,0.2,0.3c0.1,0.1,0.1,0.2,0.1,0.3c0,0.1,0.1,0.2,0.1,0.4c0,0.1,0.1,0.2,0.1,0.3
		c0.1,0.2,0.1,0.5,0.2,0.7c0,0.2,0.1,0.5,0.1,0.7c0,0.1,0,0.3,0.1,0.5c0,0.2,0,0.3,0.1,0.5c0,0.1,0,0.2,0,0.2c0,0.1,0,0.2,0,0.3
		H18.2z M28.6,186.2c-0.1-0.3-0.2-0.6-0.3-0.9c-0.1-0.3-0.3-0.6-0.4-0.9c-0.2-0.3-0.4-0.5-0.6-0.8c-0.2-0.3-0.5-0.5-0.7-0.7
		c-0.3-0.2-0.6-0.4-0.9-0.6c-0.3-0.2-0.6-0.3-0.9-0.4c-0.2-0.1-0.4-0.2-0.7-0.2s-0.5-0.1-0.7-0.1c-0.3,0-0.5,0.1-0.8,0.1
		c-0.2,0.1-0.5,0.1-0.7,0.2c-0.3,0.1-0.6,0.2-0.9,0.4c-0.3,0.2-0.6,0.4-0.9,0.6c-0.3,0.2-0.5,0.5-0.8,0.7c-0.2,0.3-0.4,0.5-0.6,0.8
		c-0.2,0.3-0.3,0.6-0.4,0.9c-0.1,0.3-0.2,0.6-0.3,1H28.6z"/>
	<path class="st3" d="M34.6,174.5h1.1h2v20.3h-1.1h-2V174.5z"/>
</g>
<g class="st0">
	<path class="st3" d="M57.6,194.8h-1.1h-2v-1.3c-0.2,0.2-0.4,0.4-0.6,0.5c-0.2,0.2-0.5,0.3-0.7,0.4c-0.3,0.1-0.5,0.2-0.8,0.3
		s-0.5,0.1-0.8,0.2c-0.3,0.1-0.6,0.1-0.9,0.1c-0.3,0-0.6,0.1-0.9,0.1l-1.1,0c0,0-0.1,0-0.1,0c0,0-0.1,0-0.1,0c0,0-0.1,0-0.1,0
		c0,0-0.1,0-0.1,0c0,0-0.1,0-0.1,0c0,0-0.1,0-0.1,0c0,0-0.1,0-0.1,0c0,0-0.1,0-0.1,0c0,0-0.1,0-0.1,0c0,0-0.1,0-0.1,0
		c-0.1,0-0.1,0-0.1,0c0,0-0.1,0-0.1,0c-0.1,0-0.1,0-0.2,0c-0.1,0-0.1,0-0.2,0c-0.2,0-0.4-0.1-0.6-0.1c-0.2-0.1-0.4-0.1-0.6-0.2
		c-0.2-0.1-0.4-0.2-0.6-0.3c-0.2-0.1-0.4-0.2-0.6-0.3c-0.2-0.1-0.4-0.3-0.6-0.4c-0.2-0.1-0.4-0.3-0.6-0.5c-0.2-0.2-0.4-0.3-0.6-0.5
		c-0.2-0.2-0.4-0.4-0.5-0.6l-0.1-0.1c0,0,0,0,0,0c0,0,0,0,0,0c0,0,0,0,0-0.1c0,0,0,0,0-0.1c0,0,0-0.1-0.1-0.1c0,0-0.1-0.1-0.1-0.1
		c0,0,0-0.1-0.1-0.1c0,0,0-0.1-0.1-0.2c-0.1-0.1-0.1-0.2-0.2-0.4c-0.1-0.1-0.1-0.3-0.2-0.4c-0.1-0.1-0.1-0.3-0.2-0.5
		c-0.1-0.2-0.1-0.3-0.1-0.5c-0.1-0.2-0.1-0.3-0.1-0.5c0-0.2-0.1-0.4-0.1-0.5c0-0.2,0-0.4,0-0.6c0-0.2,0-0.4,0-0.6c0-0.3,0-0.5,0-0.8
		c0-0.2,0.1-0.5,0.1-0.7c0.1-0.2,0.1-0.5,0.2-0.7c0.1-0.2,0.2-0.5,0.2-0.7c0.1-0.2,0.2-0.4,0.3-0.7c0.1-0.2,0.2-0.4,0.4-0.6
		c0.1-0.2,0.3-0.4,0.4-0.6c0.1-0.2,0.3-0.4,0.5-0.5c0.2-0.2,0.4-0.4,0.6-0.5c0.2-0.2,0.4-0.3,0.6-0.5s0.4-0.3,0.6-0.4
		c0.2-0.1,0.5-0.3,0.7-0.4c0.2-0.1,0.5-0.2,0.7-0.3c0.3-0.1,0.5-0.2,0.8-0.2c0.3-0.1,0.6-0.1,0.9-0.1c0.3,0,0.6-0.1,0.9-0.1h1.1h0.1
		h0h0.1c0.3,0,0.6,0,0.9,0.1c0.3,0,0.6,0.1,0.8,0.2c0.3,0.1,0.5,0.2,0.8,0.2c0.3,0.1,0.5,0.2,0.8,0.3c0.3,0.1,0.5,0.3,0.7,0.4
		c0.2,0.2,0.4,0.3,0.6,0.5v-1.5h1.1h2V194.8z M48.2,181.7c-0.3,0.1-0.5,0.2-0.8,0.2c-0.3,0.1-0.7,0.3-1,0.5s-0.6,0.5-0.9,0.8
		s-0.5,0.6-0.8,0.9c-0.2,0.3-0.4,0.7-0.5,1c-0.1,0.3-0.3,0.7-0.3,1.1c-0.1,0.4-0.1,0.8-0.1,1.2c0,0.4,0,0.8,0.1,1.2
		c0.1,0.4,0.2,0.8,0.3,1.1c0.1,0.3,0.3,0.7,0.6,1c0.2,0.3,0.5,0.6,0.8,0.9c0.3,0.3,0.6,0.5,1,0.7c0.3,0.2,0.7,0.4,1,0.5
		c0.3,0.1,0.6,0.2,0.8,0.2c0.3,0.1,0.6,0.1,0.9,0.1c0.3,0,0.6-0.1,0.9-0.2c0.3-0.1,0.6-0.2,0.8-0.3c0.3-0.1,0.7-0.3,1-0.5
		c0.3-0.2,0.6-0.5,0.9-0.8c0.3-0.3,0.5-0.6,0.8-0.9c0.2-0.3,0.4-0.6,0.5-1c0.1-0.3,0.3-0.7,0.3-1c0.1-0.4,0.1-0.8,0.1-1.2
		c0-0.4,0-0.8-0.1-1.2c-0.1-0.4-0.2-0.8-0.3-1.1c-0.1-0.4-0.3-0.7-0.5-1c-0.2-0.3-0.5-0.6-0.7-0.9c-0.3-0.3-0.6-0.5-0.9-0.8
		c-0.3-0.2-0.6-0.4-1-0.5c-0.3-0.1-0.6-0.2-0.9-0.3c-0.3-0.1-0.6-0.1-1-0.1C48.8,181.6,48.5,181.6,48.2,181.7z"/>
</g>
<g class="st0">
	<path class="st3" d="M62.9,181.7h-3.1v-1.8h3.1v-5.3H64h2v5.3h3.5v1.8H66v13.2h-1.1h-2V181.7z"/>
	<path class="st3" d="M71.5,174.5h1.1h2v3.5h-1.1h-2V174.5z M71.5,179.8h1.1h2v15h-1.1h-2V179.8z"/>
	<path class="st3" d="M88.1,179.7c0.5,0.1,0.9,0.3,1.4,0.5c0.5,0.2,0.9,0.4,1.3,0.7c0.4,0.3,0.8,0.6,1.2,1c0.4,0.4,0.7,0.8,1,1.2
		c0.3,0.4,0.5,0.9,0.7,1.3c0.2,0.5,0.4,0.9,0.5,1.4c0.1,0.5,0.2,1,0.2,1.5s0,1-0.1,1.5c-0.1,0.5-0.2,1-0.4,1.5
		c-0.2,0.5-0.4,0.9-0.7,1.3c-0.3,0.4-0.6,0.9-1,1.2c-0.4,0.4-0.8,0.7-1.2,1c-0.4,0.3-0.9,0.5-1.3,0.7c-0.5,0.2-0.9,0.3-1.4,0.4
		c-0.5,0.1-1,0.1-1.6,0.1l-1.1,0c-0.5,0-1-0.1-1.5-0.2s-1-0.2-1.5-0.4c-0.5-0.2-0.9-0.4-1.3-0.7c-0.4-0.3-0.8-0.6-1.2-1
		c-0.4-0.4-0.7-0.8-1-1.2c-0.3-0.4-0.5-0.9-0.7-1.3c-0.2-0.5-0.3-0.9-0.4-1.4c-0.1-0.5-0.2-1-0.2-1.6c0-0.5,0-1.1,0.1-1.6
		c0.1-0.5,0.2-1,0.4-1.5c0.2-0.5,0.4-0.9,0.7-1.3c0.3-0.4,0.6-0.8,1-1.2c0.4-0.4,0.8-0.7,1.2-1c0.4-0.3,0.9-0.5,1.3-0.7
		c0.5-0.2,1-0.4,1.5-0.5c0.5-0.1,1-0.2,1.6-0.2v-0.1h1.1C87.1,179.5,87.6,179.6,88.1,179.7z M85,181.7c-0.3,0.1-0.5,0.2-0.8,0.3
		c-0.3,0.1-0.7,0.3-1,0.5s-0.6,0.5-0.9,0.8c-0.3,0.3-0.5,0.6-0.7,0.9c-0.2,0.3-0.4,0.7-0.5,1c-0.1,0.3-0.2,0.7-0.3,1.1
		c-0.1,0.4-0.1,0.8-0.1,1.2c0,0.4,0,0.8,0.1,1.2c0.1,0.4,0.2,0.7,0.3,1.1c0.1,0.3,0.3,0.7,0.5,1c0.2,0.3,0.5,0.6,0.8,0.9
		c0.3,0.3,0.6,0.5,0.9,0.8c0.3,0.2,0.6,0.4,1,0.5c0.3,0.1,0.5,0.2,0.8,0.2c0.3,0.1,0.6,0.1,0.9,0.1c0.3,0,0.6-0.1,0.9-0.1
		c0.3-0.1,0.6-0.1,0.8-0.3c0.3-0.1,0.7-0.3,1-0.6c0.3-0.2,0.6-0.5,0.9-0.8c0.3-0.3,0.5-0.6,0.7-0.9c0.2-0.3,0.4-0.7,0.5-1
		c0.1-0.4,0.3-0.7,0.3-1.1s0.1-0.8,0.1-1.2c0-0.2,0-0.4,0-0.6c0-0.2,0-0.4-0.1-0.6c0-0.2-0.1-0.4-0.1-0.5c-0.1-0.2-0.1-0.4-0.2-0.5
		c-0.1-0.2-0.2-0.3-0.2-0.5c-0.1-0.2-0.2-0.3-0.3-0.5c-0.1-0.1-0.2-0.3-0.4-0.5c-0.1-0.2-0.3-0.3-0.4-0.5c-0.1-0.1-0.3-0.2-0.4-0.4
		c-0.2-0.1-0.3-0.2-0.5-0.3c-0.1-0.1-0.3-0.2-0.5-0.3s-0.3-0.2-0.5-0.2c-0.2-0.1-0.4-0.1-0.5-0.2c-0.2-0.1-0.4-0.1-0.5-0.1
		c0,0-0.1,0-0.1,0c0,0-0.1,0-0.1,0c0,0,0,0-0.1,0c0,0,0,0-0.1,0c-0.1,0-0.1,0-0.2,0c-0.1,0-0.1,0-0.2,0
		C85.5,181.6,85.3,181.6,85,181.7z"/>
	<path class="st3" d="M97.2,179.8h1.1h1.9v1c0.1-0.1,0.3-0.2,0.5-0.4c0.2-0.1,0.3-0.2,0.5-0.3c0.2-0.1,0.4-0.2,0.6-0.3
		c0.2-0.1,0.4-0.2,0.6-0.2c0.2-0.1,0.4-0.1,0.7-0.1c0.2,0,0.5,0,0.7,0h1.1c0.3,0,0.5,0,0.8,0c0.2,0,0.5,0.1,0.7,0.1
		c0.3,0.1,0.5,0.1,0.7,0.2c0.2,0.1,0.5,0.2,0.7,0.3c0.2,0.1,0.5,0.2,0.7,0.4c0.2,0.1,0.4,0.3,0.6,0.4c0.2,0.1,0.4,0.3,0.6,0.5
		c0.2,0.2,0.4,0.4,0.5,0.6c0.1,0.1,0.1,0.2,0.2,0.3c0.1,0.1,0.1,0.2,0.2,0.3c0.1,0.1,0.1,0.2,0.2,0.3c0.1,0.1,0.1,0.2,0.2,0.3
		s0.1,0.2,0.1,0.3c0,0.1,0.1,0.2,0.1,0.3c0,0.1,0.1,0.2,0.1,0.3c0,0.1,0,0.2,0.1,0.3c0,0.2,0.1,0.4,0.1,0.6c0,0.2,0.1,0.4,0.1,0.6
		c0,0.2,0,0.4,0,0.7c0,0.2,0,0.5,0,0.7v7.9h-1.1h-2v-7.9c0,0,0-0.1,0-0.1s0-0.1,0-0.1c0,0,0-0.1,0-0.1c0,0,0-0.1,0-0.1
		c0-0.1,0-0.2,0-0.3c0-0.1,0-0.2,0-0.2c0-0.1,0-0.1,0-0.2s0-0.1,0-0.2c0,0,0-0.1,0-0.1c0,0,0-0.1,0-0.1c0,0,0-0.1,0-0.1
		c0,0,0-0.1,0-0.1c0-0.1-0.1-0.3-0.1-0.5c0-0.2-0.1-0.3-0.2-0.4c-0.1-0.1-0.1-0.3-0.2-0.4s-0.2-0.3-0.3-0.4
		c-0.1-0.1-0.3-0.3-0.4-0.4c-0.1-0.1-0.3-0.3-0.4-0.4c-0.1-0.1-0.3-0.2-0.4-0.3c-0.2-0.1-0.3-0.2-0.5-0.3c-0.2-0.1-0.4-0.2-0.5-0.2
		c-0.2-0.1-0.4-0.1-0.5-0.1c-0.1,0-0.1,0-0.2,0c0,0-0.1,0-0.2,0c-0.1,0-0.1,0-0.2,0c0,0-0.1,0-0.2,0c-0.1,0-0.2,0-0.4,0.1
		s-0.2,0.1-0.3,0.1c-0.2,0.1-0.3,0.1-0.5,0.2c-0.2,0.1-0.3,0.1-0.5,0.2c-0.1,0.1-0.3,0.2-0.4,0.3c-0.1,0.1-0.3,0.2-0.4,0.3
		c-0.1,0.1-0.2,0.2-0.4,0.3c-0.1,0.1-0.2,0.2-0.3,0.4c0,0.1-0.1,0.1-0.1,0.2c0,0.1-0.1,0.1-0.1,0.2c0,0.1-0.1,0.1-0.1,0.2
		c0,0.1-0.1,0.1-0.1,0.2c-0.1,0.1-0.1,0.3-0.1,0.4c0,0.1-0.1,0.2-0.1,0.4c0,0.1,0,0.3-0.1,0.4c0,0.1,0,0.3,0,0.4c0,0.1,0,0.3,0,0.4
		s0,0.3,0,0.4l0,0.1v0.1v0.1v0.1v0.1v0.1v0.1v0.1v7.9h-1.1h-2V179.8z"/>
	<path class="st3" d="M117,190.4L117,190.4v0.1v0.1c0,0.2,0,0.4,0,0.5c0,0.2,0.1,0.3,0.2,0.5c0.1,0.2,0.1,0.3,0.2,0.5
		c0.1,0.1,0.2,0.3,0.4,0.4c0.1,0.1,0.3,0.2,0.4,0.4c0.1,0.1,0.3,0.2,0.5,0.2c0.1,0,0.2,0,0.3,0.1c0.1,0,0.2,0,0.2,0.1
		c0.1,0,0.1,0,0.2,0c0,0,0.1,0,0.2,0c0,0,0.1,0,0.1,0c0,0,0,0,0.1,0c0.1-0.1,0.3-0.1,0.4-0.2c0.1-0.1,0.3-0.2,0.4-0.3
		c0.1-0.1,0.2-0.2,0.3-0.4s0.2-0.3,0.2-0.4c0.1-0.1,0.1-0.3,0.1-0.5c0-0.2,0.1-0.4,0.1-0.5c0-0.2,0-0.4-0.1-0.6
		c0-0.2-0.1-0.4-0.2-0.5c-0.1-0.2-0.2-0.3-0.3-0.4c-0.1-0.1-0.3-0.2-0.4-0.4c-0.1-0.1-0.3-0.2-0.5-0.3s-0.3-0.2-0.5-0.2
		s-0.3-0.1-0.5-0.2s-0.4-0.1-0.5-0.2h-0.1l-0.1-0.1l-0.1-0.1l-0.1-0.1c-0.1,0-0.2-0.1-0.3-0.1c-0.1,0-0.2-0.1-0.3-0.1
		c-0.1,0-0.2-0.1-0.3-0.1c-0.1,0-0.2-0.1-0.3-0.1s-0.2-0.1-0.3-0.1c-0.1-0.1-0.2-0.1-0.3-0.2c-0.1-0.1-0.2-0.1-0.3-0.2
		c-0.1-0.1-0.2-0.1-0.2-0.2c-0.1-0.1-0.2-0.2-0.3-0.3c-0.1-0.1-0.2-0.2-0.3-0.3c-0.1-0.1-0.1-0.2-0.2-0.3c-0.1-0.1-0.1-0.2-0.2-0.4
		c-0.1-0.1-0.1-0.3-0.1-0.4c0-0.1-0.1-0.3-0.1-0.4c0-0.1,0-0.3,0-0.4c0-0.1,0-0.3,0-0.4c0-0.3,0-0.6,0.1-0.9c0-0.3,0.1-0.5,0.2-0.8
		c0.1-0.3,0.2-0.5,0.4-0.7c0.2-0.2,0.4-0.4,0.6-0.6c0.2-0.2,0.4-0.4,0.7-0.5c0.2-0.1,0.5-0.3,0.7-0.4c0.3-0.1,0.5-0.2,0.8-0.2
		c0.3-0.1,0.6-0.1,0.9-0.1h1.1c0.3,0,0.5,0,0.8,0.1c0.3,0.1,0.5,0.1,0.8,0.2c0.3,0.1,0.5,0.2,0.7,0.4s0.4,0.3,0.6,0.5
		c0.2,0.2,0.4,0.4,0.5,0.6c0.2,0.2,0.3,0.4,0.4,0.7c0.1,0.2,0.2,0.5,0.2,0.7s0.1,0.5,0.1,0.8h-1.1l-2-0.1c0-0.1,0-0.3-0.1-0.4
		c0-0.1-0.1-0.3-0.1-0.4c-0.1-0.1-0.1-0.2-0.2-0.4c-0.1-0.1-0.2-0.2-0.3-0.3c-0.1-0.1-0.2-0.2-0.3-0.2s-0.3-0.1-0.4-0.2
		c-0.1,0-0.1,0-0.2,0c-0.1,0-0.1,0-0.2,0c0,0,0,0-0.1,0c0,0-0.1,0-0.1,0c0,0-0.1,0-0.1,0s0,0-0.1,0c-0.1,0.1-0.2,0.1-0.4,0.2
		c-0.1,0.1-0.2,0.2-0.3,0.2c-0.1,0.1-0.2,0.2-0.3,0.3c-0.1,0.1-0.1,0.2-0.2,0.4s-0.1,0.3-0.1,0.4c0,0.1,0,0.3,0,0.4
		c0,0.2,0,0.4,0,0.6s0.1,0.3,0.2,0.5s0.2,0.3,0.3,0.4c0.1,0.1,0.2,0.2,0.4,0.3c0.1,0.1,0.3,0.2,0.4,0.2c0.1,0.1,0.3,0.2,0.4,0.2
		c0.1,0.1,0.3,0.1,0.5,0.2c0.2,0.1,0.3,0.1,0.5,0.1c0.3,0.1,0.5,0.2,0.8,0.3s0.5,0.2,0.8,0.3c0.3,0.1,0.5,0.3,0.7,0.4
		c0.2,0.1,0.4,0.3,0.6,0.4c0.2,0.1,0.4,0.3,0.5,0.5c0.2,0.2,0.3,0.4,0.4,0.7c0.1,0.2,0.2,0.5,0.2,0.8c0.1,0.3,0.1,0.6,0.1,0.9
		c0,0.3,0,0.7-0.1,1c-0.1,0.3-0.2,0.6-0.3,0.9c-0.1,0.3-0.3,0.6-0.4,0.8c-0.2,0.2-0.4,0.5-0.6,0.7c-0.2,0.2-0.5,0.4-0.7,0.6
		c-0.3,0.2-0.5,0.3-0.8,0.4c-0.3,0.1-0.6,0.2-0.9,0.2c-0.3,0.1-0.7,0.1-1,0.1l-1.1,0c-0.3,0-0.6-0.1-0.9-0.1
		c-0.3-0.1-0.6-0.1-0.8-0.2c-0.3-0.1-0.5-0.2-0.8-0.4s-0.5-0.4-0.7-0.6c-0.2-0.2-0.4-0.4-0.6-0.7c-0.2-0.2-0.3-0.5-0.4-0.8
		c-0.1-0.3-0.2-0.5-0.2-0.8s-0.1-0.6-0.1-0.9v-0.1v-0.1v-0.1v-0.1v-0.1h1.1H117z"/>
	<path class="st3" d="M126.9,174.5h1.1h2v6.2c0.1-0.1,0.2-0.2,0.3-0.2c0.1-0.1,0.2-0.1,0.4-0.2c0.2-0.1,0.4-0.2,0.6-0.3
		c0.2-0.1,0.4-0.2,0.6-0.2c0.2-0.1,0.4-0.1,0.6-0.1s0.4-0.1,0.7-0.1h1.1h0.1h0.1h0.1h0.1c0.2,0,0.5,0,0.7,0c0.2,0,0.5,0.1,0.7,0.1
		s0.5,0.1,0.7,0.2c0.2,0.1,0.5,0.2,0.7,0.2c0.2,0.1,0.4,0.2,0.7,0.3s0.4,0.3,0.6,0.4c0.2,0.1,0.4,0.3,0.6,0.5
		c0.2,0.2,0.3,0.3,0.5,0.5c0.1,0.2,0.3,0.4,0.4,0.6s0.2,0.4,0.4,0.6c0.1,0.2,0.2,0.4,0.3,0.6c0.1,0.2,0.2,0.4,0.2,0.6
		c0,0.1,0,0.2,0.1,0.3c0,0.1,0,0.2,0.1,0.3c0,0.1,0,0.2,0.1,0.4c0,0.1,0,0.2,0.1,0.3c0,0.2,0.1,0.5,0.1,0.7c0,0.2,0,0.5,0,0.7v7.9
		h-1.1h-2v-7.9c0-0.1,0-0.3,0-0.4c0-0.1,0-0.3,0-0.5c0-0.1,0-0.3,0-0.5c0-0.2,0-0.3-0.1-0.5c0-0.1,0-0.3-0.1-0.5
		c0-0.2-0.1-0.3-0.2-0.4c0-0.1,0-0.1-0.1-0.2c0-0.1-0.1-0.1-0.1-0.2c-0.1-0.1-0.1-0.1-0.1-0.2c0-0.1-0.1-0.1-0.1-0.2
		c-0.1-0.1-0.2-0.3-0.4-0.4c-0.1-0.1-0.3-0.3-0.4-0.4c-0.1-0.1-0.3-0.2-0.4-0.3c-0.2-0.1-0.3-0.2-0.5-0.3c-0.2-0.1-0.4-0.2-0.5-0.2
		c-0.2-0.1-0.4-0.1-0.5-0.1c0,0-0.1,0-0.1,0s-0.1,0-0.1,0c-0.1,0-0.1,0-0.2,0c-0.1,0-0.1,0-0.2,0c-0.1,0-0.3,0-0.4,0.1
		s-0.3,0-0.4,0.1c-0.1,0.1-0.3,0.1-0.5,0.2c-0.2,0.1-0.3,0.1-0.5,0.2c-0.1,0.1-0.3,0.2-0.4,0.3c-0.1,0.1-0.3,0.2-0.4,0.3
		s-0.2,0.2-0.4,0.3c-0.1,0.1-0.2,0.2-0.3,0.4c0,0.1-0.1,0.1-0.1,0.2c0,0.1-0.1,0.1-0.1,0.1c0,0.1,0,0.1-0.1,0.2
		c0,0.1-0.1,0.1-0.1,0.2c-0.1,0.1-0.1,0.2-0.1,0.3c0,0.1-0.1,0.2-0.1,0.4c0,0.1,0,0.3-0.1,0.4c0,0.1,0,0.2-0.1,0.4
		c0,0.1,0,0.3,0,0.4s0,0.2,0,0.4c0,0,0,0.1,0,0.1c0,0,0,0.1,0,0.1c0,0,0,0.1,0,0.1c0,0,0,0.1,0,0.1c0,0,0,0.1,0,0.1s0,0.1,0,0.1v0.2
		v7.9h-1.1h-2V174.5z"/>
	<path class="st3" d="M144.7,174.5h1.1h2v3.5h-1.1h-2V174.5z M144.7,179.8h1.1h2v15h-1.1h-2V179.8z"/>
	<path class="st3" d="M154.3,179.8v1.4c0.1-0.1,0.3-0.2,0.4-0.3c0.1-0.1,0.3-0.2,0.4-0.3c0.2-0.1,0.4-0.2,0.6-0.3
		c0.2-0.1,0.4-0.2,0.6-0.3c0.2-0.1,0.4-0.2,0.6-0.2s0.4-0.1,0.7-0.1c0,0,0,0,0.1,0c0,0,0,0,0.1,0c0,0,0.1,0,0.1,0c0,0,0,0,0.1,0
		c0,0,0,0,0.1,0c0,0,0,0,0.1,0c0,0,0,0,0.1,0l0.2,0c0,0,0,0,0.1,0c0,0,0,0,0.1,0c0,0,0,0,0.1,0s0,0,0.1,0c0,0,0,0,0.1,0
		c0,0,0,0,0.1,0c0,0,0.1,0,0.1,0c0,0,0,0,0.1,0c0,0,0,0,0.1,0c0,0,0,0,0.1,0c0,0,0,0,0.1,0l0.2,0h1.1c0,0,0.1,0,0.1,0
		c0,0,0.1,0,0.1,0c0.1,0,0.3,0,0.4,0c0.1,0,0.3,0,0.4,0c0.1,0,0.3,0,0.4,0.1c0.1,0,0.3,0,0.4,0.1c0.3,0.1,0.5,0.1,0.8,0.2
		c0.3,0.1,0.5,0.2,0.8,0.3c0.1,0.1,0.3,0.1,0.4,0.2s0.3,0.1,0.4,0.2c0.1,0.1,0.2,0.2,0.4,0.2s0.3,0.2,0.4,0.3
		c0.1,0.1,0.3,0.2,0.4,0.3s0.2,0.2,0.4,0.3c0.1,0.1,0.2,0.2,0.3,0.3c0.1,0.1,0.2,0.2,0.4,0.4c0.1,0.1,0.1,0.1,0.2,0.2
		c0.1,0.1,0.1,0.1,0.2,0.2c0,0.1,0.1,0.1,0.1,0.2s0.1,0.1,0.2,0.2c0.1,0.2,0.2,0.3,0.3,0.5c0.1,0.2,0.2,0.4,0.3,0.6
		c0.1,0.2,0.2,0.5,0.2,0.7s0.1,0.5,0.2,0.7c0,0.2,0.1,0.5,0.1,0.8c0,0.3,0,0.5,0,0.8c0,0.6-0.1,1.1-0.2,1.6c-0.1,0.5-0.3,1-0.5,1.5
		c-0.2,0.5-0.5,0.9-0.8,1.3c-0.3,0.4-0.7,0.8-1.1,1.2s-0.8,0.7-1.3,1c-0.4,0.3-0.9,0.5-1.4,0.7c-0.5,0.1-1,0.3-1.5,0.4
		s-1,0.1-1.6,0.1l-1.1,0h-0.1h-0.1l-0.1,0h-0.1h-0.1h-0.1l-0.1,0h-0.1c-0.2-0.1-0.5-0.1-0.7-0.2c-0.2-0.1-0.5-0.1-0.7-0.2
		c-0.2-0.1-0.5-0.2-0.7-0.3s-0.4-0.2-0.7-0.3c-0.2-0.1-0.3-0.2-0.5-0.3c-0.1-0.1-0.3-0.2-0.4-0.3v6.5h-1.1h-2v-20.3h1.1H154.3z
		 M160.4,193.2c0.3-0.1,0.7-0.2,1-0.3c0.4-0.1,0.7-0.3,1-0.5c0.3-0.2,0.6-0.4,0.9-0.7c0.3-0.3,0.5-0.6,0.8-0.9s0.4-0.6,0.5-1
		c0.1-0.4,0.3-0.7,0.3-1.1c0.1-0.4,0.1-0.8,0.1-1.2c0-0.4,0-0.8-0.1-1.2c-0.1-0.4-0.2-0.7-0.3-1.1c-0.1-0.4-0.3-0.7-0.5-1
		s-0.5-0.6-0.8-0.9s-0.6-0.5-0.9-0.8s-0.7-0.4-1-0.5c-0.3-0.1-0.6-0.2-0.8-0.3s-0.6-0.1-0.9-0.1c-0.3,0-0.6,0.1-0.9,0.1
		s-0.6,0.2-0.9,0.3c-0.3,0.1-0.7,0.3-1,0.5c-0.3,0.2-0.6,0.5-0.9,0.7c-0.3,0.3-0.5,0.6-0.8,0.9s-0.4,0.6-0.5,1
		c-0.1,0.3-0.3,0.7-0.3,1.1c-0.1,0.4-0.1,0.8-0.1,1.2c0,0.2,0,0.4,0,0.6c0,0.2,0,0.4,0.1,0.6c0,0.2,0.1,0.4,0.1,0.6
		c0,0.2,0.1,0.4,0.2,0.5c0.1,0.2,0.1,0.4,0.2,0.5c0.1,0.2,0.2,0.3,0.3,0.5c0.1,0.2,0.2,0.3,0.4,0.5c0.1,0.1,0.3,0.3,0.4,0.4
		c0.1,0.1,0.3,0.3,0.4,0.4s0.3,0.3,0.5,0.4c0.2,0.1,0.3,0.2,0.5,0.3c0.2,0.1,0.4,0.2,0.5,0.3c0.2,0.1,0.4,0.1,0.6,0.2
		s0.4,0.1,0.6,0.2c0.1,0,0.1,0,0.2,0c0.1,0,0.1,0,0.2,0C159.8,193.3,160.1,193.3,160.4,193.2z"/>
	<path class="st3" d="M173,190.4L173,190.4v0.1v0.1c0,0.2,0,0.4,0,0.5c0,0.2,0.1,0.3,0.2,0.5c0.1,0.2,0.1,0.3,0.2,0.5
		c0.1,0.1,0.2,0.3,0.4,0.4c0.1,0.1,0.3,0.2,0.4,0.4c0.1,0.1,0.3,0.2,0.5,0.2c0.1,0,0.2,0,0.3,0.1c0.1,0,0.2,0,0.2,0.1
		c0.1,0,0.1,0,0.2,0c0,0,0.1,0,0.2,0c0,0,0.1,0,0.1,0c0,0,0,0,0.1,0c0.1-0.1,0.3-0.1,0.4-0.2c0.1-0.1,0.3-0.2,0.4-0.3
		c0.1-0.1,0.2-0.2,0.3-0.4s0.2-0.3,0.2-0.4c0.1-0.1,0.1-0.3,0.1-0.5c0-0.2,0.1-0.4,0.1-0.5c0-0.2,0-0.4-0.1-0.6
		c0-0.2-0.1-0.4-0.2-0.5c-0.1-0.2-0.2-0.3-0.3-0.4c-0.1-0.1-0.3-0.2-0.4-0.4c-0.1-0.1-0.3-0.2-0.5-0.3s-0.3-0.2-0.5-0.2
		s-0.3-0.1-0.5-0.2s-0.4-0.1-0.5-0.2h-0.1l-0.1-0.1l-0.1-0.1l-0.1-0.1c-0.1,0-0.2-0.1-0.3-0.1c-0.1,0-0.2-0.1-0.3-0.1
		c-0.1,0-0.2-0.1-0.3-0.1c-0.1,0-0.2-0.1-0.3-0.1s-0.2-0.1-0.3-0.1c-0.1-0.1-0.2-0.1-0.3-0.2c-0.1-0.1-0.2-0.1-0.3-0.2
		c-0.1-0.1-0.2-0.1-0.2-0.2c-0.1-0.1-0.2-0.2-0.3-0.3c-0.1-0.1-0.2-0.2-0.3-0.3c-0.1-0.1-0.1-0.2-0.2-0.3c-0.1-0.1-0.1-0.2-0.2-0.4
		c-0.1-0.1-0.1-0.3-0.1-0.4c0-0.1-0.1-0.3-0.1-0.4c0-0.1,0-0.3,0-0.4c0-0.1,0-0.3,0-0.4c0-0.3,0-0.6,0.1-0.9c0-0.3,0.1-0.5,0.2-0.8
		c0.1-0.3,0.2-0.5,0.4-0.7c0.2-0.2,0.4-0.4,0.6-0.6c0.2-0.2,0.4-0.4,0.7-0.5c0.2-0.1,0.5-0.3,0.7-0.4c0.3-0.1,0.5-0.2,0.8-0.2
		c0.3-0.1,0.6-0.1,0.9-0.1h1.1c0.3,0,0.5,0,0.8,0.1c0.3,0.1,0.5,0.1,0.8,0.2c0.3,0.1,0.5,0.2,0.7,0.4s0.4,0.3,0.6,0.5
		c0.2,0.2,0.4,0.4,0.5,0.6c0.2,0.2,0.3,0.4,0.4,0.7c0.1,0.2,0.2,0.5,0.2,0.7s0.1,0.5,0.1,0.8H179l-2-0.1c0-0.1,0-0.3-0.1-0.4
		c0-0.1-0.1-0.3-0.1-0.4c-0.1-0.1-0.1-0.2-0.2-0.4c-0.1-0.1-0.2-0.2-0.3-0.3c-0.1-0.1-0.2-0.2-0.3-0.2s-0.3-0.1-0.4-0.2
		c-0.1,0-0.1,0-0.2,0c-0.1,0-0.1,0-0.2,0c0,0,0,0-0.1,0c0,0-0.1,0-0.1,0c0,0-0.1,0-0.1,0s0,0-0.1,0c-0.1,0.1-0.2,0.1-0.4,0.2
		c-0.1,0.1-0.2,0.2-0.3,0.2c-0.1,0.1-0.2,0.2-0.3,0.3c-0.1,0.1-0.1,0.2-0.2,0.4s-0.1,0.3-0.1,0.4c0,0.1,0,0.3,0,0.4
		c0,0.2,0,0.4,0,0.6s0.1,0.3,0.2,0.5s0.2,0.3,0.3,0.4c0.1,0.1,0.2,0.2,0.4,0.3c0.1,0.1,0.3,0.2,0.4,0.2c0.1,0.1,0.3,0.2,0.4,0.2
		c0.1,0.1,0.3,0.1,0.5,0.2c0.2,0.1,0.3,0.1,0.5,0.1c0.3,0.1,0.5,0.2,0.8,0.3s0.5,0.2,0.8,0.3c0.3,0.1,0.5,0.3,0.7,0.4
		c0.2,0.1,0.4,0.3,0.6,0.4c0.2,0.1,0.4,0.3,0.5,0.5c0.2,0.2,0.3,0.4,0.4,0.7c0.1,0.2,0.2,0.5,0.2,0.8c0.1,0.3,0.1,0.6,0.1,0.9
		c0,0.3,0,0.7-0.1,1c-0.1,0.3-0.2,0.6-0.3,0.9c-0.1,0.3-0.3,0.6-0.4,0.8c-0.2,0.2-0.4,0.5-0.6,0.7c-0.2,0.2-0.5,0.4-0.7,0.6
		c-0.3,0.2-0.5,0.3-0.8,0.4c-0.3,0.1-0.6,0.2-0.9,0.2c-0.3,0.1-0.7,0.1-1,0.1l-1.1,0c-0.3,0-0.6-0.1-0.9-0.1
		c-0.3-0.1-0.6-0.1-0.8-0.2c-0.3-0.1-0.5-0.2-0.8-0.4s-0.5-0.4-0.7-0.6c-0.2-0.2-0.4-0.4-0.6-0.7c-0.2-0.2-0.3-0.5-0.4-0.8
		c-0.1-0.3-0.2-0.5-0.2-0.8s-0.1-0.6-0.1-0.9v-0.1v-0.1v-0.1v-0.1v-0.1h1.1H173z"/>
</g>
<line class="st4" x1="29" y1="101.4" x2="163.9" y2="101.4"/>
</svg>
