<?xml version="1.0" encoding="utf-8"?>
<!-- Generator: Adobe Illustrator 22.1.0, SVG Export Plug-In . SVG Version: 6.00 Build 0)  -->
<svg version="1.1" id="Layer_1" xmlns="http://www.w3.org/2000/svg" xmlns:xlink="http://www.w3.org/1999/xlink" x="0px" y="0px"
	 viewBox="0 0 220 61.9" style="enable-background:new 0 0 220 61.9;" xml:space="preserve">
<style type="text/css">
	.st0{enable-background:new    ;}
	.st1{fill:#6D7EBD;}
	.st2{fill:#4D69B1;}
	.st3{fill:#58595B;}
	.st4{fill:none;stroke:#25B34B;stroke-width:3;}
</style>
<title>headline1</title>
<g class="st0">
	<path class="st1" d="M9.5,10.8c0-1-0.1-1.8-0.4-2.2C8.8,8.1,8.3,7.9,7.7,7.9C7,7.9,6.5,8.1,6.2,8.6s-0.5,1.2-0.5,2.2v4.3H4.3V6.6
		h1.4v1c0.3-0.4,0.6-0.7,1-0.8C7,6.6,7.4,6.5,7.8,6.5c0.6,0,1.1,0.1,1.5,0.3c0.4,0.2,0.7,0.6,1,1.1c0.3-0.5,0.6-0.9,1-1.1
		s1-0.4,1.6-0.4c1,0,1.7,0.3,2.3,0.9s0.9,1.5,0.9,2.5V15h-1.5v-4.9c0-0.7-0.2-1.3-0.5-1.7s-0.8-0.6-1.3-0.6c-0.7,0-1.1,0.2-1.4,0.6
		C11.1,9,11,9.7,11,10.7v4.4H9.5V10.8z"/>
</g>
<g class="st0">
	<path class="st1" d="M29.7,15.1v-1c-0.4,0.4-0.8,0.7-1.3,0.9s-1,0.3-1.5,0.3c-1.3,0-2.3-0.4-3.2-1.3c-0.8-0.9-1.3-1.9-1.3-3.2
		c0-0.6,0.1-1.2,0.3-1.7c0.2-0.5,0.5-1,0.9-1.4s0.9-0.8,1.4-1s1.1-0.3,1.7-0.3s1.1,0.1,1.6,0.3c0.5,0.2,0.9,0.5,1.3,0.9v-1h1.5v8.5
		H29.7z M24,10.8c0,0.9,0.3,1.6,0.9,2.2c0.6,0.6,1.3,0.9,2.1,0.9c0.7,0,1.4-0.3,2-0.9c0.6-0.6,0.9-1.3,0.9-2c0-0.8-0.3-1.5-0.9-2.1
		S27.8,8,27,8s-1.5,0.3-2.1,0.8C24.3,9.3,24,10,24,10.8z"/>
</g>
<g class="st0">
	<path class="st1" d="M39.5,15.1H38V6.6h1.5v1c0.3-0.4,0.7-0.7,1.1-0.8c0.4-0.2,0.8-0.3,1.3-0.3c1.1,0,2,0.3,2.6,1s0.9,1.6,0.9,2.8
		v4.8h-1.5v-4.5c0-0.9-0.2-1.6-0.5-2C42.9,8.2,42.3,8,41.6,8c-0.8,0-1.3,0.3-1.6,0.8s-0.5,1.4-0.5,2.5V15.1z"/>
	<path class="st1" d="M58.8,15.1v-1c-0.4,0.4-0.8,0.7-1.3,0.9s-1,0.3-1.5,0.3c-1.3,0-2.3-0.4-3.2-1.3c-0.8-0.9-1.3-1.9-1.3-3.2
		c0-0.6,0.1-1.2,0.3-1.7s0.5-1,0.9-1.4s0.9-0.8,1.4-1s1.1-0.3,1.7-0.3c0.6,0,1.1,0.1,1.6,0.3c0.5,0.2,0.9,0.5,1.3,0.9v-1h1.5v8.5
		H58.8z M53.1,10.8c0,0.9,0.3,1.6,0.9,2.2c0.6,0.6,1.3,0.9,2.1,0.9c0.7,0,1.4-0.3,2-0.9c0.6-0.6,0.9-1.3,0.9-2
		c0-0.8-0.3-1.5-0.9-2.1S56.9,8,56.1,8S54.6,8.3,54,8.8C53.3,9.3,53.1,10,53.1,10.8z"/>
</g>
<g class="st0">
	<path class="st1" d="M67.1,15.8h1.6c0.2,0.4,0.5,0.7,0.9,0.9C70,16.9,70.5,17,71,17c0.9,0,1.6-0.3,2.1-0.8s0.8-1.2,0.8-2.1V14
		c-0.4,0.4-0.8,0.7-1.3,0.9s-1,0.3-1.5,0.3c-1.3,0-2.3-0.4-3.2-1.3c-0.8-0.9-1.3-1.9-1.3-3.2c0-0.6,0.1-1.2,0.3-1.7
		c0.2-0.5,0.5-1,0.9-1.4s0.9-0.8,1.4-1s1.1-0.3,1.7-0.3s1.1,0.1,1.6,0.3c0.5,0.2,0.9,0.5,1.4,0.9v-1h1.5v7.1c0,1.5-0.4,2.6-1.1,3.5
		c-0.8,0.8-1.8,1.3-3.2,1.3c-1,0-1.8-0.2-2.5-0.7S67.4,16.6,67.1,15.8z M68.1,10.8c0,0.9,0.3,1.6,0.9,2.2c0.6,0.6,1.3,0.9,2.1,0.9
		c0.7,0,1.4-0.3,2-0.9c0.6-0.6,0.9-1.3,0.9-2c0-0.8-0.3-1.5-0.9-2.1S71.9,8,71.1,8S69.6,8.3,69,8.8C68.4,9.3,68.1,10,68.1,10.8z"/>
</g>
<g class="st0">
	<path class="st1" d="M83.2,11.4c0.1,0.7,0.4,1.3,1,1.7c0.5,0.4,1.1,0.7,1.8,0.7c0.5,0,1-0.1,1.4-0.4s0.7-0.6,1-1H90
		c-0.4,0.9-0.9,1.7-1.6,2.2s-1.5,0.8-2.5,0.8c-0.6,0-1.2-0.1-1.7-0.3s-1-0.6-1.4-1s-0.7-0.9-0.9-1.4c-0.1-0.3-0.2-0.6-0.2-0.8
		s-0.1-0.6-0.1-0.9c0-0.6,0.1-1.1,0.3-1.7c0.2-0.5,0.5-1,0.9-1.4c0.4-0.5,0.9-0.8,1.4-1s1.1-0.3,1.7-0.3c0.7,0,1.4,0.2,2.1,0.5
		s1.2,0.8,1.6,1.5c0.1,0.2,0.2,0.4,0.3,0.6c0.1,0.2,0.2,0.4,0.2,0.7c0.1,0.5,0.2,1,0.2,1.6v0.2h-7.1V11.4z M88.6,10.1
		c-0.2-0.7-0.5-1.2-1-1.6c-0.5-0.4-1-0.6-1.7-0.6s-1.2,0.2-1.7,0.6s-0.8,0.9-1,1.6H88.6z"/>
</g>
<g class="st0">
	<path class="st2" d="M10.6,52.2H2.4V22.8h9.5c4.4,0,8,1.4,10.7,4.1s4.1,6.3,4.1,10.7c0,2.5-0.5,4.8-1.5,6.9c-1,2.1-2.5,3.8-4.4,5.1
		c-1.3,0.9-2.7,1.6-4.1,2C15.1,52,13.1,52.2,10.6,52.2z M6.5,48.3h5.2c3.3,0,5.9-1,7.8-2.9s2.9-4.5,2.9-7.8c0-3.4-1-6-3-7.9
		s-4.8-2.9-8.4-2.9H6.5V48.3z"/>
</g>
<g class="st0">
	<path class="st2" d="M32.4,43.6l-3.3,8.5h-4.5l11.5-29.4h4.1l11.5,29.4H47l-3.2-8.6L32.4,43.6L32.4,43.6z M42.3,39.5l-4.1-11.1
		L34,39.5H42.3z"/>
</g>
<g class="st0">
	<path class="st2" d="M59.9,52.2h-4.3V26.8h-5.5v-4h15.3v4h-5.5V52.2z"/>
</g>
<g class="st0">
	<path class="st2" d="M71.1,43.6l-3.3,8.5h-4.5l11.5-29.4H79l11.5,29.4h-4.7l-3.2-8.6L71.1,43.6L71.1,43.6z M81,39.5l-4.1-11.1
		l-4.2,11.1H81z"/>
</g>
<g class="st0">
	<path class="st3" d="M129.4,8.1c2.9,0,5.1,0.6,6.6,1.9s2.3,3.1,2.3,5.5c0,1.1-0.2,2.1-0.7,3s-1.2,1.6-2.2,2.1
		c1.3,0.4,2.4,1.1,3.1,2.3c0.8,1.1,1.2,2.5,1.2,4.1c0,1.3-0.2,2.5-0.7,3.6s-1.1,2-2,2.8c-0.8,0.7-1.7,1.2-2.8,1.5s-2.5,0.5-4.4,0.5
		h-6.3V8.1H129.4z M127.4,19.5h1.3c2,0,3.5-0.3,4.3-0.9c0.9-0.6,1.3-1.6,1.3-3.1c0-1.2-0.4-2.2-1.2-2.8s-2-0.9-3.6-0.9h-2.1V19.5z
		 M127.4,31.7h3.1c1.8,0,3.1-0.3,4-1s1.3-1.7,1.3-3.2s-0.5-2.7-1.4-3.5s-2.2-1.2-4-1.2h-3.1L127.4,31.7L127.4,31.7z"/>
	<path class="st3" d="M143,8.1h3.9v17.3c0,2.5,0.4,4.2,1.1,5.1c0.7,1,2,1.4,3.8,1.4c1.7,0,2.9-0.5,3.6-1.5c0.7-1,1.1-2.7,1.1-5.1
		V8.1h3.9v17.3c0,0.9,0,1.7-0.1,2.4c0,0.7-0.1,1.3-0.2,1.8c-0.2,1-0.5,1.8-1,2.6c-0.8,1.2-1.8,2.1-3,2.8c-1.2,0.6-2.6,0.9-4.2,0.9
		c-0.9,0-1.7-0.1-2.4-0.2c-0.7-0.1-1.4-0.4-2-0.7c-1.2-0.6-2.2-1.5-3.1-2.8c-0.5-0.7-0.8-1.5-1-2.4s-0.3-2.4-0.3-4.4V8.1H143z"/>
	<path class="st3" d="M168.8,35.3h-3.9V8.1h3.9V35.3z"/>
	<path class="st3" d="M186.4,35.3h-12.9V8.1h3.9v23.5h8.9v3.7H186.4z"/>
	<path class="st3" d="M197,35.3h-7.6V8.1h8.8c4.1,0,7.4,1.3,9.9,3.8s3.8,5.8,3.8,9.9c0,2.3-0.5,4.4-1.4,6.4
		c-0.9,1.9-2.3,3.5-4.1,4.7c-1.2,0.9-2.5,1.5-3.8,1.9C201.2,35.2,199.4,35.3,197,35.3z M193.2,31.7h4.8c3,0,5.4-0.9,7.2-2.6
		c1.8-1.8,2.6-4.2,2.6-7.2c0-3.1-0.9-5.6-2.8-7.4c-1.9-1.8-4.5-2.7-7.7-2.7h-4.1V31.7z"/>
</g>
<g class="st0">
	<path class="st3" d="M126.3,51.8h-1.5v-8.5h1.4v1c0.2-0.4,0.5-0.6,0.9-0.8c0.3-0.2,0.7-0.3,1.1-0.3v1.6c-0.3,0-0.6,0.1-0.9,0.2
		s-0.5,0.3-0.6,0.4c-0.3,0.3-0.4,0.9-0.4,1.7C126.3,47.1,126.3,51.8,126.3,51.8z"/>
</g>
<g class="st0">
	<path class="st3" d="M130.4,48.1c0.1,0.7,0.4,1.3,1,1.7c0.5,0.4,1.1,0.7,1.8,0.7c0.5,0,1-0.1,1.4-0.4c0.4-0.2,0.7-0.6,1-1h1.7
		c-0.4,0.9-0.9,1.7-1.6,2.2c-0.7,0.5-1.5,0.8-2.5,0.8c-0.6,0-1.2-0.1-1.7-0.3s-1-0.6-1.4-1s-0.7-0.9-0.9-1.4
		c-0.1-0.3-0.2-0.6-0.2-0.8s-0.1-0.6-0.1-0.9c0-0.6,0.1-1.1,0.3-1.7c0.2-0.5,0.5-1,0.9-1.4c0.4-0.5,0.9-0.8,1.4-1s1.1-0.3,1.7-0.3
		c0.7,0,1.4,0.2,2.1,0.5s1.2,0.8,1.6,1.5c0.1,0.2,0.2,0.4,0.3,0.6s0.2,0.4,0.2,0.7c0.1,0.5,0.2,1,0.2,1.6v0.2h-7.2V48.1z
		 M135.8,46.7c-0.2-0.7-0.5-1.2-1-1.6c-0.5-0.4-1-0.6-1.7-0.6s-1.2,0.2-1.7,0.6c-0.5,0.4-0.8,0.9-1,1.6H135.8z"/>
	<path class="st3" d="M138.8,51.8V40.5h1.5v11.2L138.8,51.8L138.8,51.8z"/>
</g>
<g class="st0">
	<path class="st3" d="M149,51.8v-1c-0.4,0.4-0.8,0.7-1.3,0.9s-1,0.3-1.5,0.3c-1.3,0-2.3-0.4-3.2-1.3c-0.8-0.9-1.3-1.9-1.3-3.2
		c0-0.6,0.1-1.2,0.3-1.7s0.5-1,0.9-1.4s0.9-0.8,1.4-1s1.1-0.3,1.7-0.3c0.6,0,1.1,0.1,1.6,0.3s0.9,0.5,1.3,0.9v-1h1.5v8.5H149z
		 M143.3,47.5c0,0.9,0.3,1.6,0.9,2.2c0.6,0.6,1.3,0.9,2.1,0.9c0.7,0,1.4-0.3,2-0.9c0.6-0.6,0.9-1.3,0.9-2c0-0.8-0.3-1.5-0.9-2.1
		s-1.2-0.9-2-0.9s-1.5,0.3-2.1,0.8C143.6,46,143.3,46.6,143.3,47.5z"/>
</g>
<g class="st0">
	<path class="st3" d="M152.9,51.8v-7.1h-1.2v-1.4h1.2v-2.7h1.5v2.7h1.2v1.4h-1.2v7.1H152.9z"/>
	<path class="st3" d="M158.3,42.3h-1.5v-1.8h1.5V42.3z M156.7,51.8v-8.5h1.5v8.5H156.7z"/>
	<path class="st3" d="M159.6,47.5c0-0.6,0.1-1.2,0.3-1.7s0.5-1,0.9-1.4s0.9-0.8,1.4-1s1.1-0.4,1.7-0.4c0.6,0,1.2,0.1,1.7,0.3
		s1,0.5,1.4,1c0.4,0.4,0.7,0.9,1,1.4s0.3,1.1,0.3,1.7c0,0.6-0.1,1.2-0.3,1.7s-0.5,1-0.9,1.4c-0.2,0.2-0.4,0.4-0.7,0.6
		s-0.5,0.3-0.8,0.5c-0.5,0.2-1.1,0.4-1.7,0.4c-0.6,0-1.2-0.1-1.7-0.3s-1-0.6-1.4-1s-0.7-0.9-0.9-1.5c-0.1-0.3-0.2-0.6-0.2-0.8
		C159.6,48.1,159.6,47.8,159.6,47.5z M161.2,47.5c0,0.8,0.3,1.6,0.8,2.1c0.5,0.6,1.2,0.8,2,0.8s1.4-0.3,2-0.9
		c0.5-0.6,0.8-1.3,0.8-2.1c0-0.9-0.3-1.6-0.8-2.1c-0.5-0.6-1.2-0.8-2-0.8s-1.4,0.3-2,0.9S161.2,46.7,161.2,47.5z"/>
	<path class="st3" d="M171.2,51.8h-1.5v-8.5h1.5v1c0.3-0.4,0.7-0.7,1.1-0.8c0.4-0.2,0.8-0.3,1.3-0.3c1.1,0,2,0.3,2.6,1
		s0.9,1.6,0.9,2.8v4.8h-1.5v-4.5c0-0.9-0.2-1.6-0.5-2s-0.9-0.7-1.6-0.7c-0.8,0-1.3,0.3-1.6,0.8s-0.5,1.4-0.5,2.5v3.9H171.2z"/>
	<path class="st3" d="M178.1,49h1.4c0,0.4,0.1,0.8,0.4,1.1c0.2,0.3,0.6,0.4,0.9,0.4c0.3,0,0.6-0.1,0.9-0.3s0.3-0.5,0.3-0.8
		s-0.1-0.5-0.2-0.7c-0.2-0.2-0.4-0.4-0.8-0.5l-0.5-0.2c-0.6-0.2-1-0.4-1.2-0.5c-0.3-0.2-0.5-0.5-0.7-0.8s-0.2-0.7-0.2-1.1
		c0-0.7,0.2-1.3,0.7-1.8s1.1-0.7,1.8-0.7s1.3,0.2,1.7,0.6c0.2,0.2,0.4,0.5,0.5,0.8s0.2,0.6,0.2,1H182c0-0.1,0-0.3-0.1-0.4
		c-0.1-0.1-0.1-0.2-0.2-0.3c-0.2-0.2-0.4-0.3-0.7-0.3s-0.5,0.1-0.7,0.3s-0.3,0.4-0.3,0.7c0,0.5,0.4,0.9,1.2,1.2l0.5,0.2
		c0.6,0.3,1.1,0.6,1.4,1c0.3,0.4,0.4,0.9,0.4,1.6c0,0.8-0.3,1.4-0.8,1.9s-1.2,0.8-1.9,0.8c-0.8,0-1.4-0.3-1.9-0.8
		c-0.3-0.3-0.4-0.6-0.6-1C178.2,49.9,178.1,49.5,178.1,49z"/>
	<path class="st3" d="M186.4,51.8h-1.5V40.5h1.5v3.7c0.2-0.4,0.6-0.6,1-0.8s0.9-0.3,1.4-0.3c1,0,1.8,0.3,2.4,1
		c0.6,0.7,0.9,1.6,0.9,2.8v4.9h-1.5v-4.4c0-0.9-0.2-1.6-0.5-2.1s-0.8-0.7-1.5-0.7c-0.4,0-0.8,0.1-1.1,0.3s-0.6,0.5-0.7,0.8
		c-0.1,0.2-0.2,0.4-0.2,0.8c-0.1,0.3-0.1,0.8-0.1,1.5L186.4,51.8L186.4,51.8z"/>
	<path class="st3" d="M195.3,42.3h-1.5v-1.8h1.5V42.3z M193.8,51.8v-8.5h1.5v8.5H193.8z"/>
	<path class="st3" d="M198.6,50.7v3.8h-1.5V43.3h1.5v1c0.4-0.4,0.8-0.7,1.3-0.9s1-0.3,1.5-0.3c1.3,0,2.3,0.4,3.2,1.3
		s1.3,1.9,1.3,3.2c0,0.6-0.1,1.2-0.3,1.7s-0.5,1-0.9,1.4c-0.4,0.5-0.9,0.8-1.4,1s-1.1,0.3-1.7,0.3c-0.6,0-1.1-0.1-1.6-0.3
		C199.5,51.5,199,51.1,198.6,50.7z M198.6,47.5c0,0.8,0.3,1.5,0.8,2.1c0.6,0.6,1.2,0.9,2,0.9s1.5-0.3,2.1-0.9s0.9-1.3,0.9-2.1
		c0-0.9-0.3-1.6-0.8-2.2c-0.6-0.6-1.3-0.9-2.1-0.9c-0.7,0-1.4,0.3-2,0.9S198.6,46.7,198.6,47.5z"/>
	<path class="st3" d="M206.7,49h1.4c0,0.4,0.1,0.8,0.4,1.1c0.2,0.3,0.6,0.4,0.9,0.4c0.3,0,0.6-0.1,0.9-0.3s0.3-0.5,0.3-0.8
		s-0.1-0.5-0.2-0.7c-0.2-0.2-0.4-0.4-0.8-0.5l-0.5-0.2c-0.6-0.2-1-0.4-1.1-0.5c-0.3-0.2-0.5-0.5-0.7-0.8s-0.2-0.7-0.2-1.1
		c0-0.7,0.2-1.3,0.7-1.8s1.1-0.7,1.8-0.7s1.3,0.2,1.7,0.6c0.2,0.2,0.4,0.5,0.5,0.8s0.2,0.6,0.2,1h-1.5c0-0.1,0-0.3-0.1-0.4
		c-0.1-0.1-0.1-0.2-0.2-0.3c-0.2-0.2-0.4-0.3-0.7-0.3s-0.5,0.1-0.7,0.3s-0.3,0.4-0.3,0.7c0,0.5,0.4,0.9,1.2,1.2l0.5,0.2
		c0.6,0.3,1.1,0.6,1.4,1c0.3,0.4,0.4,0.9,0.4,1.6c0,0.8-0.3,1.4-0.8,1.9s-1.2,0.8-1.9,0.8c-0.8,0-1.4-0.3-1.9-0.8
		c-0.3-0.3-0.4-0.6-0.6-1C206.8,49.9,206.7,49.5,206.7,49z"/>
</g>
<line class="st4" x1="110.2" y1="4.8" x2="110.2" y2="52.4"/>
</svg>
