<?xml version="1.0" encoding="UTF-8" standalone="no"?>
<!-- Generator: Adobe Illustrator 18.0.0, SVG Export Plug-In . SVG Version: 6.00 Build 0)  -->

<svg
   xmlns:dc="http://purl.org/dc/elements/1.1/"
   xmlns:cc="http://creativecommons.org/ns#"
   xmlns:rdf="http://www.w3.org/1999/02/22-rdf-syntax-ns#"
   xmlns:svg="http://www.w3.org/2000/svg"
   xmlns="http://www.w3.org/2000/svg"
   xmlns:sodipodi="http://sodipodi.sourceforge.net/DTD/sodipodi-0.dtd"
   xmlns:inkscape="http://www.inkscape.org/namespaces/inkscape"
   version="1.1"
   id="Fundraising_Solutions"
   x="0px"
   y="0px"
   viewBox="0 0 245.8 120.7"
   enable-background="new 0 0 245.8 120.7"
   xml:space="preserve"
   sodipodi:docname="logo.svg"
   inkscape:version="0.92.2 (5c3e80d, 2017-08-06)"
   inkscape:export-filename="C:\Users\smcbeth\Projects\HFRS\images\logo-very-small.png"
   inkscape:export-xdpi="25"
   inkscape:export-ydpi="25"><metadata
     id="metadata3841"><rdf:RDF><cc:Work
         rdf:about=""><dc:format>image/svg+xml</dc:format><dc:type
           rdf:resource="http://purl.org/dc/dcmitype/StillImage" /></cc:Work></rdf:RDF></metadata><defs
     id="defs3839" /><sodipodi:namedview
     pagecolor="#ffffff"
     bordercolor="#666666"
     borderopacity="1"
     objecttolerance="10"
     gridtolerance="10"
     guidetolerance="10"
     inkscape:pageopacity="0"
     inkscape:pageshadow="2"
     inkscape:window-width="3072"
     inkscape:window-height="1665"
     id="namedview3837"
     showgrid="false"
     inkscape:zoom="256"
     inkscape:cx="107.19218"
     inkscape:cy="31.935783"
     inkscape:window-x="-8"
     inkscape:window-y="-8"
     inkscape:window-maximized="1"
     inkscape:current-layer="Fundraising_Solutions" /><g
     id="Graph_Line_copy_4_3_"><g
       id="g3773"><polygon
         fill-rule="evenodd"
         clip-rule="evenodd"
         fill="#00BB27"
         points="163.4,68.2 138.5,38.9 117.1,68.9 90.5,49.7 49.9,88.6     12.2,75.8 12.2,81.1 49.9,95 90.7,55.9 117.8,76.6 138.7,46.6 163.2,75.6 229.7,20.9 229.7,15.6   "
         id="polygon3771"
         inkscape:export-xdpi="299.84885"
         inkscape:export-ydpi="299.84885" /></g></g><path
     style="fill:#3a3a3a;stroke:#afafaf;stroke-opacity:1;opacity:1;stroke-width:0.8;stroke-miterlimit:4;stroke-dasharray:none"
     inkscape:connector-curvature="0"
     id="path3818"
     d="M 36.9,86.8 V 53.7 H 43 V 67.4 H 59.3 V 53.7 h 6.1 V 86.8 H 59.3 V 72.7 H 43 v 14.1 z" /><path
     style="fill:#3a3a3a;stroke:#afafaf;stroke-opacity:1;opacity:1;stroke-width:0.8;stroke-miterlimit:4;stroke-dasharray:none"
     inkscape:connector-curvature="0"
     id="path3820"
     d="m 76.2,53.7 v 4.9 H 70 v -4.9 z m 0,8.8 V 86.8 H 70 V 62.5 Z" /><path
     style="opacity:1;fill:#3a3a3a;stroke:#afafaf;stroke-width:0.80000001;stroke-miterlimit:4;stroke-dasharray:none;stroke-opacity:1"
     inkscape:connector-curvature="0"
     id="path3822"
     d="m 101.9,85 c 0,7.1 -4.3,10.7 -12.8,10.7 -3,0 -5.7,-0.4 -8,-1.2 v -4.9 c 2.4,0.8 5,1.2 8,1.2 4.4,0 6.6,-1.9 6.6,-5.6 -1.8,0.8 -3.8,1.2 -5.9,1.2 -7.2,0 -10.8,-3.9 -10.8,-11.8 0,-8 4.2,-12 12.6,-12 2.8,0 6.2,0.3 10.2,1 z M 95.8,68 c -1,-0.4 -2.4,-0.6 -4.3,-0.6 -4.2,0 -6.4,2.3 -6.4,7 0,4.5 1.8,6.8 5.5,6.8 1.8,0 3.5,-0.4 5.2,-1.3 z"
     sodipodi:nodetypes="csccscsssccccssscc" /><path
     style="fill:#3a3a3a;stroke:#afafaf;stroke-opacity:1;opacity:1;stroke-width:0.8;stroke-miterlimit:4;stroke-dasharray:none"
     inkscape:connector-curvature="0"
     id="path3824"
     d="M 105.9,86.8 V 53.7 h 6.1 v 11.9 c 1.9,-2.1 4.4,-3.1 7.3,-3.1 5.8,0 8.6,3 8.6,9 v 15.3 h -6.1 V 71.5 c 0,-2.7 -1.3,-4 -4,-4 -2,0 -3.9,0.8 -5.8,2.4 v 17 h -6.1 z" /><path
     style="fill:#3a3a3a;stroke:#afafaf;stroke-opacity:1;opacity:1;stroke-width:0.8;stroke-miterlimit:4;stroke-dasharray:none"
     inkscape:connector-curvature="0"
     id="path3826"
     d="M 138.2,53.7 V 86.8 H 132 V 53.7 Z" /><path
     style="fill:#3a3a3a;stroke:#afafaf;stroke-opacity:1;opacity:1;stroke-width:0.8;stroke-miterlimit:4;stroke-dasharray:none"
     inkscape:connector-curvature="0"
     id="path3828"
     d="m 141,79.2 c 0,-4.8 3.5,-7.3 10.6,-7.3 1.7,0 3.3,0.2 5,0.5 v -1.8 c 0,-2.2 -1.6,-3.3 -4.7,-3.3 -2.7,0 -5.6,0.4 -8.9,1.2 v -4.9 c 3.2,-0.8 6.2,-1.2 8.9,-1.2 7.2,0 10.8,2.7 10.8,8 v 16.3 h -3.6 l -2.2,-2.2 c -2.1,1.5 -4.5,2.2 -7,2.2 -5.9,0.1 -8.9,-2.4 -8.9,-7.5 z m 10.6,-3.1 c -3,0 -4.4,1 -4.4,3 0,2.2 1.2,3.2 3.7,3.2 2,0 3.9,-0.6 5.7,-1.9 v -3.9 c -1.6,-0.2 -3.3,-0.4 -5,-0.4 z" /><path
     style="fill:#3a3a3a;stroke:#afafaf;stroke-opacity:1;opacity:1;stroke-width:0.8;stroke-miterlimit:4;stroke-dasharray:none"
     inkscape:connector-curvature="0"
     id="path3830"
     d="M 166.6,86.8 V 62.5 h 4.8 l 0.8,3.6 c 2.3,-2.4 5,-3.6 8,-3.6 5.8,0 8.6,3 8.6,9 v 15.3 h -6.1 V 71.5 c 0,-2.7 -1.3,-4 -4,-4 -2,0 -3.9,0.8 -5.8,2.4 v 17 h -6.3 z" /><path
     style="fill:#3a3a3a;stroke:#afafaf;stroke-opacity:1;opacity:1;stroke-width:0.8;stroke-miterlimit:4;stroke-dasharray:none"
     inkscape:connector-curvature="0"
     id="path3832"
     d="m 214.3,85.3 c -3.7,1 -7.4,1.5 -10.9,1.5 -7.9,0 -11.8,-4.2 -11.8,-12.7 0,-7.8 3.8,-11.7 11.5,-11.7 1.6,0 3.3,0.4 5,1.2 v -10 h 6.1 v 31.7 z m -6.1,-16.5 c -1.3,-0.8 -2.9,-1.3 -4.8,-1.3 -3.8,0 -5.7,2.1 -5.7,6.4 0,5.1 2,7.6 6,7.6 1.6,0 3.1,-0.2 4.5,-0.7 z" /><path
     style="fill:#4169e1;stroke-width:0.90732467"
     inkscape:connector-curvature="0"
     id="path3798"
     d="m 172.15716,95.311795 v -1.18578 c 0.72203,0.273642 1.53431,0.364855 2.3466,0.364855 1.08304,0 1.62456,-0.364855 1.62456,-1.094566 0,-0.547284 -0.36101,-0.820925 -0.99279,-0.820925 h -1.08304 c -1.44406,0 -2.16609,-0.638498 -2.16609,-2.006706 0,-1.459422 0.99279,-2.280347 3.06862,-2.280347 0.81229,0 1.53432,0.09121 2.25634,0.364855 v 1.185781 c -0.72202,-0.273642 -1.44405,-0.364856 -2.25634,-0.364856 -1.17329,0 -1.80507,0.364856 -1.80507,1.094567 0,0.547283 0.27076,0.820925 0.81228,0.820925 h 1.08305 c 1.53431,0 2.25634,0.638497 2.25634,2.006706 0,1.550636 -0.99279,2.280347 -2.88812,2.280347 -0.72203,0 -1.53431,-0.182428 -2.25634,-0.364856 z" /><path
     style="fill:#4169e1;stroke-width:0.90732467"
     inkscape:connector-curvature="0"
     id="path3800"
     d="m 178.20415,92.940234 c 0,-1.824278 0.81229,-2.645203 2.5271,-2.645203 1.71482,0 2.5271,0.912139 2.5271,2.645203 0,1.824278 -0.81228,2.645203 -2.5271,2.645203 -1.71481,0 -2.5271,-0.912139 -2.5271,-2.645203 z m 2.5271,1.64185 c 0.81229,0 1.26355,-0.547283 1.26355,-1.64185 0,-1.094567 -0.45126,-1.64185 -1.26355,-1.64185 -0.81228,0 -1.26355,0.547283 -1.26355,1.64185 0,1.094567 0.45127,1.64185 1.26355,1.64185 z" /><path
     style="fill:#4169e1;stroke-width:0.90732467"
     inkscape:connector-curvature="0"
     id="path3802"
     d="m 185.60495,88.288326 v 7.297111 h -1.26355 v -7.297111 z" /><path
     style="fill:#4169e1;stroke-width:0.90732467"
     inkscape:connector-curvature="0"
     id="path3804"
     d="m 191.47143,90.203817 v 5.38162 h -0.99279 l -0.18051,-0.638497 c -0.63177,0.456069 -1.26355,0.638497 -1.89532,0.638497 -1.08305,0 -1.53431,-0.638497 -1.53431,-1.915492 v -3.374914 h 1.26355 v 3.374914 c 0,0.547284 0.27076,0.912139 0.72202,0.912139 0.45127,0 0.81229,-0.182427 1.26355,-0.547283 v -3.73977 h 1.35381 z" /><path
     style="fill:#4169e1;stroke-width:0.90732467"
     inkscape:connector-curvature="0"
     id="path3806"
     d="m 192.55447,89.382892 h 0.99279 l 0.18051,0.820925 h 1.26355 v 1.094567 h -1.08305 v 2.462775 c 0,0.45607 0.18051,0.729711 0.63178,0.729711 h 0.54152 v 1.094567 h -1.1733 c -0.90253,0 -1.26355,-0.456069 -1.26355,-1.459422 v -4.743123 z" /><path
     style="fill:#4169e1;stroke-width:0.90732467"
     inkscape:connector-curvature="0"
     id="path3808"
     d="m 197.24766,88.288326 v 1.094566 h -1.26355 v -1.094566 z m 0,1.915491 v 5.38162 h -1.26355 v -5.38162 z" /><path
     style="fill:#4169e1;stroke-width:0.90732467"
     inkscape:connector-curvature="0"
     id="path3810"
     d="m 198.15019,92.940234 c 0,-1.824278 0.81229,-2.645203 2.5271,-2.645203 1.71482,0 2.5271,0.912139 2.5271,2.645203 0,1.824278 -0.81228,2.645203 -2.5271,2.645203 -1.62456,0 -2.43684,-0.912139 -2.5271,-2.645203 z m 2.61736,1.64185 c 0.81228,0 1.26355,-0.547283 1.26355,-1.64185 0,-1.094567 -0.45127,-1.64185 -1.26355,-1.64185 -0.81229,0 -1.26355,0.547283 -1.26355,1.64185 0,1.094567 0.45126,1.64185 1.26355,1.64185 z" /><path
     style="fill:#4169e1;stroke-width:0.90732467"
     inkscape:connector-curvature="0"
     id="path3812"
     d="m 204.28744,95.585437 v -5.38162 h 0.99279 l 0.1805,0.820925 c 0.45127,-0.547283 1.08305,-0.820925 1.71482,-0.820925 1.26355,0 1.80507,0.638498 1.80507,2.006706 v 3.374914 h -1.26355 v -3.374914 c 0,-0.547283 -0.27076,-0.912139 -0.81228,-0.912139 -0.45127,0 -0.81228,0.182428 -1.26355,0.547283 v 3.73977 z" /><path
     style="fill:#4169e1;stroke-width:0.90732467"
     inkscape:connector-curvature="0"
     id="path3814"
     d="m 210.15392,95.311795 v -1.094566 c 0.54152,0.273641 1.26355,0.364855 1.98558,0.364855 0.54152,0 0.81228,-0.182427 0.81228,-0.547283 0,-0.364856 -0.18051,-0.547283 -0.54152,-0.547283 h -0.90254 c -1.08304,0 -1.53431,-0.547284 -1.53431,-1.641851 0,-1.094566 0.72203,-1.64185 2.25634,-1.64185 0.63178,0 1.26355,0.09121 1.80507,0.273642 v 1.094567 c -0.54152,-0.273642 -1.17329,-0.364856 -1.89532,-0.364856 -0.72203,0 -1.08305,0.182428 -1.08305,0.547284 0,0.364855 0.18051,0.547283 0.63178,0.547283 h 0.81228 c 1.1733,0 1.71482,0.547283 1.71482,1.64185 0,1.094567 -0.72203,1.64185 -2.16609,1.64185 -0.63177,0.09121 -1.26355,-0.09121 -1.89532,-0.273642 z" /><g
     aria-label="Advancement"
     transform="scale(0.99472196,1.005306)"
     style="font-style:normal;font-weight:normal;font-size:38.17071915px;line-height:1.25;font-family:sans-serif;letter-spacing:0px;word-spacing:0px;fill:#4169e1;fill-opacity:1;stroke:none;stroke-width:0.95426792"
     id="text3845"><path
       d="m 106.72558,95.082047 h -1.35188 l 3.01687,-7.107308 h 1.4165 l 3.08149,7.107308 h -1.41649 l -0.81014,-1.938357 h -2.36082 l 0.45229,-1.143134 h 1.4314 l -1.11829,-2.668968 z"
       style="font-style:normal;font-variant:normal;font-weight:bold;font-stretch:normal;font-size:10.1788578px;font-family:Sansation;-inkscape-font-specification:'Sansation Bold';fill:#4169e1;fill-opacity:1;stroke-width:0.95426792"
       id="path882" /><path
       d="m 116.94917,91.225214 q -0.40756,-0.268388 -1.02385,-0.268388 -1.22763,0 -1.22763,1.37673 0,1.635178 1.27733,1.635178 0.51689,0 0.97415,-0.144134 z m 1.31708,3.543713 q -1.1978,0.31312 -2.34093,0.31312 -2.52981,0 -2.52981,-2.7137 0,-2.504953 2.47513,-2.504953 0.52684,0 1.07853,0.248507 v -2.137162 h 1.31708 z"
       style="font-style:normal;font-variant:normal;font-weight:bold;font-stretch:normal;font-size:10.1788578px;font-family:Sansation;-inkscape-font-specification:'Sansation Bold';fill:#4169e1;fill-opacity:1;stroke-width:0.95426792"
       id="path884" /><path
       d="m 118.88752,89.863394 h 1.39164 l 1.26739,3.648087 1.31709,-3.648087 h 1.39164 l -2.12225,5.218653 h -1.25248 z"
       style="font-style:normal;font-variant:normal;font-weight:bold;font-stretch:normal;font-size:10.1788578px;font-family:Sansation;-inkscape-font-specification:'Sansation Bold';fill:#4169e1;fill-opacity:1;stroke-width:0.95426792"
       id="path886" /><path
       d="m 124.62804,93.456809 q 0,-1.555656 2.26639,-1.555656 0.5318,0 1.06361,0.0994 v -0.392641 q 0,-0.700791 -1.00894,-0.700791 -0.85487,0 -1.8986,0.248508 v -1.043731 q 1.04373,-0.248507 1.8986,-0.248507 2.32603,0 2.32603,1.71967 v 3.498983 h -0.76541 l -0.46719,-0.467194 q -0.68091,0.467194 -1.50098,0.467194 -1.91351,0 -1.91351,-1.625238 z m 3.33,-0.561626 q -0.49702,-0.0994 -1.06361,-0.0994 -0.9493,0 -0.9493,0.646119 0,0.69582 0.79522,0.69582 0.65606,0 1.21769,-0.407552 z"
       style="font-style:normal;font-variant:normal;font-weight:bold;font-stretch:normal;font-size:10.1788578px;font-family:Sansation;-inkscape-font-specification:'Sansation Bold';fill:#4169e1;fill-opacity:1;stroke-width:0.95426792"
       id="path888" /><path
       d="m 130.52263,95.082047 v -5.218653 h 1.01888 l 0.16402,0.765402 q 0.75049,-0.765402 1.70973,-0.765402 1.85386,0 1.85386,1.928416 v 3.290237 h -1.31709 V 91.79181 q 0,-0.864805 -0.85983,-0.864805 -0.64115,0 -1.25248,0.511925 v 3.643117 z"
       style="font-style:normal;font-variant:normal;font-weight:bold;font-stretch:normal;font-size:10.1788578px;font-family:Sansation;-inkscape-font-specification:'Sansation Bold';fill:#4169e1;fill-opacity:1;stroke-width:0.95426792"
       id="path890" /><path
       d="m 140.35855,94.932942 q -0.64612,0.149105 -1.34194,0.149105 -2.78328,0 -2.78328,-2.70873 0,-2.509923 2.78328,-2.509923 0.69582,0 1.34194,0.149104 v 1.043731 q -0.64612,-0.149105 -1.24254,-0.149105 -1.56559,0 -1.56559,1.466193 0,1.664999 1.56559,1.664999 0.59642,0 1.24254,-0.149104 z"
       style="font-style:normal;font-variant:normal;font-weight:bold;font-stretch:normal;font-size:10.1788578px;font-family:Sansation;-inkscape-font-specification:'Sansation Bold';fill:#4169e1;fill-opacity:1;stroke-width:0.95426792"
       id="path892" /><path
       d="m 143.44004,89.863394 q 2.37573,0 2.37573,2.425431 0,0.323059 -0.0447,0.646119 h -3.46419 q 0,1.103372 1.62026,1.103372 0.79026,0 1.58051,-0.149104 v 1.04373 q -0.69085,0.149105 -1.67991,0.149105 -2.83795,0 -2.83795,-2.668969 0,-2.549684 2.45028,-2.549684 z m -1.13319,2.157043 h 2.22662 v -0.03976 q 0,-1.083492 -1.09343,-1.083492 -1.04373,0 -1.13319,1.123253 z"
       style="font-style:normal;font-variant:normal;font-weight:bold;font-stretch:normal;font-size:10.1788578px;font-family:Sansation;-inkscape-font-specification:'Sansation Bold';fill:#4169e1;fill-opacity:1;stroke-width:0.95426792"
       id="path894" /><path
       d="m 146.80483,95.082047 v -5.218653 h 1.01888 l 0.15407,0.755462 q 0.70079,-0.755462 1.68488,-0.755462 0.98409,0 1.34691,0.715701 0.80019,-0.715701 1.67494,-0.715701 1.79919,0 1.79919,1.983088 v 3.235565 h -1.31709 V 91.79678 q 0,-0.869775 -0.78528,-0.869775 -0.58648,0 -1.12822,0.526835 v 3.628207 h -1.31709 v -3.270356 q 0,-0.884686 -0.72564,-0.884686 -0.57654,0 -1.08846,0.526835 v 3.628207 z"
       style="font-style:normal;font-variant:normal;font-weight:bold;font-stretch:normal;font-size:10.1788578px;font-family:Sansation;-inkscape-font-specification:'Sansation Bold';fill:#4169e1;fill-opacity:1;stroke-width:0.95426792"
       id="path896" /><path
       d="m 157.93298,89.863394 q 2.37573,0 2.37573,2.425431 0,0.323059 -0.0447,0.646119 h -3.46419 q 0,1.103372 1.62027,1.103372 0.79025,0 1.5805,-0.149104 v 1.04373 q -0.69085,0.149105 -1.67991,0.149105 -2.83795,0 -2.83795,-2.668969 0,-2.549684 2.45028,-2.549684 z m -1.13319,2.157043 h 2.22662 v -0.03976 q 0,-1.083492 -1.09343,-1.083492 -1.04373,0 -1.13319,1.123253 z"
       style="font-style:normal;font-variant:normal;font-weight:bold;font-stretch:normal;font-size:10.1788578px;font-family:Sansation;-inkscape-font-specification:'Sansation Bold';fill:#4169e1;fill-opacity:1;stroke-width:0.95426792"
       id="path898" /><path
       d="m 161.29777,95.082047 v -5.218653 h 1.01888 l 0.16402,0.765402 q 0.75049,-0.765402 1.70973,-0.765402 1.85386,0 1.85386,1.928416 v 3.290237 h -1.31709 V 91.79181 q 0,-0.864805 -0.85983,-0.864805 -0.64115,0 -1.25248,0.511925 v 3.643117 z"
       style="font-style:normal;font-variant:normal;font-weight:bold;font-stretch:normal;font-size:10.1788578px;font-family:Sansation;-inkscape-font-specification:'Sansation Bold';fill:#4169e1;fill-opacity:1;stroke-width:0.95426792"
       id="path900" /><path
       d="m 167.20728,89.018469 h 0.97415 l 0.1988,0.844925 h 1.31212 v 1.04373 h -1.16798 v 2.400581 q 0,0.730611 0.6312,0.730611 h 0.53678 v 1.043731 h -1.17296 q -1.31211,0 -1.31211,-1.406552 z"
       style="font-style:normal;font-variant:normal;font-weight:bold;font-stretch:normal;font-size:10.1788578px;font-family:Sansation;-inkscape-font-specification:'Sansation Bold';fill:#4169e1;fill-opacity:1;stroke-width:0.95426792"
       id="path902" /></g></svg>