<svg xmlns="http://www.w3.org/2000/svg" width="381" height="76" viewBox="0 0 381 76"><title>Untitled</title><g><g><g><path fill="#5E514D" d="M21.7,20.6c-0.5,0.2-0.8-0.1-0.6-0.6l0.3-0.9c-0.7-0.1-1.4,0.1-2,0.7c-1,0.9-1.3,2.2-0.6,3 c0.7,0.8,2.1,0.7,3.1-0.1c0.8-0.7,1.1-1.6,0.9-2.4L21.7,20.6L21.7,20.6zM43.8,23.4c-0.5,0.2-0.8-0.1-0.6-0.6l0.4-1.1c-0.7-0.4-1.5-0.4-2.1,0c-0.8,0.6-0.9,2-0.1,3.1 c0.8,1.1,2.1,1.4,3,0.8c0.7-0.5,0.8-1.6,0.4-2.5L43.8,23.4L43.8,23.4z" transform="translate(0 1)"/><g transform="translate(0 1)"><path fill="#786A65" d="M16.4,43.3c-1.3-1.1-2.6-2.3-3.8-3.5c-3.5-3.8-6.1-8.3-7.5-13C5,26.4,5,26.1,4.9,25.7 c0-0.1-0.1-0.1-0.1-0.1c-0.1,0-0.1,0.1-0.1,0.1v0c-0.1,2.1,0.1,4.2,0.7,6.3c0.1,0.4,0.2,0.8,0.3,1.1c0.2,0.7,0.4,1.4,0.7,2 c2,4.6,5.9,7.8,10,8.3l0,0c0,0,0.1,0,0.1,0C16.4,43.4,16.4,43.3,16.4,43.3L16.4,43.3L16.4,43.3z"/><radialGradient id="a" cx="-113.356" cy="427.026" r=".203" gradientTransform="matrix(88.718 0 0 -89.823 10087.881 38387.344)" gradientUnits="userSpaceOnUse"><stop offset=".159" stop-color="#D6D2D1"/><stop offset=".905" stop-color="#837672"/><stop offset="1" stop-color="#786A65"/></radialGradient><path fill="url(#a)" d="M88.7,26.9c-1.2-5.3-6.6-8.7-11.9-7.4c-5.3,1.2-8.7,6.6-7.4,11.9 c0.6,2.5,2,4.5,4,5.9c-0.7,1-1.5,2-2.4,2.9c-0.2-0.6-0.4-1.2-0.8-1.8c0,0-0.1-0.1-0.1-0.1c0,0,0,0,0-0.1 c-0.2-0.3-0.5-0.7-0.8-1c-0.4-0.4-0.7-0.7-1.2-0.9c0,0-0.1,0-0.1-0.1c0,0,0,0-0.1,0c-0.1,0-0.1-0.1-0.2-0.1 c-0.4-0.2-0.8-0.4-1.3-0.5c-0.7-0.2-1.3-0.3-2-0.2c-1.6,0-3.4,0.7-4.9,2.1c-4.1,3.7-4.9,9.6-5.1,12.5 c-2.1,0.5-4.3,0.7-6.5,0.7c-1.7,0-3.3-0.1-5-0.4c-0.4-0.1-0.7-0.1-1.1-0.2l-1.1-0.2l1.1-0.2c3.4-0.7,6.5-2.1,9.1-4.2 c3.3-2.7,5.7-6.3,6.7-10.5c0.5-1.8,0.7-3.8,0.7-5.7c0-2.1-0.3-4.2-0.8-6.3c3.3-1,6.6-3.8,7.1-7.7c0.5-5-3.1-9.6-8.3-10.2 C53.1,4.5,50,5.9,48,8.4C46.2,7,44.2,5.7,42,4.8c-2.7-1.2-5.4-1.9-8.2-2.3c-2.8-0.3-5.7-0.1-8.5,0.4c-2.5,0.5-4.8,1.3-7,2.4 c-1.3-2.9-4.2-5-7.6-5.4C5.4-0.7,0.9,3,0.3,8c-0.4,3.5,2,6.9,4.8,8.7C5,17.6,5,18.5,5,19.4c0,6.8,2.9,13.9,8.3,19.8 c5,5.4,11.6,9.1,18.5,10.4c1.4,0.3,2.9,0.4,4.3,0.4h0l0,0c2,0.9,4.1,1.5,6.3,1.9h0c1.7,0.3,3.5,0.5,5.3,0.5 c6.7,0,13.4-2.2,19-6.3c0.8,0,1.5-0.2,2.2-0.6c-1.4,1.1-2.9,2.2-4.5,3.1c-3,1.7-6.1,3-9.4,3.8v0c0,0-0.1,0-0.1,0.1 c0,0.1,0,0.1,0.1,0.1c1.8,1,6.7,3.3,14.1,2.7c6.8-0.5,10-5,10.4-7.6c0.4-2.6-0.5-4.4-1.7-5.6c-0.6-0.6-1.6-1-2.6-1 c-1,0-1.9,0.2-2.6,0.9c-0.8,0.9-1.6,1.7-2.5,2.4c0.5-0.6,0.8-1.3,0.9-2c1.4-1.4,2.7-2.9,3.8-4.5l0.3-0.3 c0.4-0.5,0.9-0.5,1,0.2l0.1,0.9c1.6,0.5,3.3,0.5,5,0.1C86.6,37.6,90,32.3,88.7,26.9L88.7,26.9L88.7,26.9z M41.3,19.5 c1.3-1,3.4-0.4,4.7,1.3c1.3,1.7,1.2,3.9-0.1,4.9c-1.3,1-3.4,0.4-4.7-1.3C39.9,22.7,40,20.5,41.3,19.5L41.3,19.5L41.3,19.5z M18.2,17.7c1.6-1.4,3.8-1.5,4.9-0.2c1.1,1.3,0.7,3.4-0.9,4.8c-1.6,1.4-3.8,1.5-4.9,0.2C16.1,21.3,16.6,19.1,18.2,17.7 L18.2,17.7L18.2,17.7z M32.2,47.8c-6.6-1.2-12.9-4.7-17.6-9.9c-5.1-5.5-7.9-12.3-7.9-18.7c0-0.5,0-1,0.1-1.6 c0.3,0.1,0.6,0.2,0.9,0.3c-0.4,6.5,2.4,13.7,7.6,19.4c1.9,2,4,3.8,6.3,5.3c0.5-0.4,0.7-1.1,0.3-1.7c0,0,0,0,0,0 c-1.7-3.1-2.2-6.9-1.3-10.6c0.6-2.3,1.8-4.3,3.2-5.7c2.1-2.1,4.9-2.4,7.8-2.1c2.9,0.3,5.5,1.2,7.1,3.7 c1.1,1.7,1.8,3.9,1.9,6.3c0.2,3.8-1.2,7.4-3.5,10.1c0,0,0,0,0,0c-0.6,0.6-0.4,1.4,0.2,2c0.1,0.1,0.2,0.2,0.4,0.3 c0.2,0.2,0.5,0.3,0.8,0.5c1.6,0.9,3.3,1.2,5.2,1c2.2-0.7,4.2-1.8,5.9-3.1c2.9-2.3,4.8-5.3,5.8-9c0.9-3.5,0.8-7.3-0.2-11.1 c0.3,0,0.6,0,0.9,0c0.5,2,0.8,4.1,0.8,6.1c0,1.8-0.2,3.6-0.7,5.3c-1,3.8-3.1,7-6.1,9.5c-3.6,2.9-8.1,4.4-13.1,4.4 C35.5,48.2,33.9,48.1,32.2,47.8L32.2,47.8L32.2,47.8z M80.9,37.2c-0.4,0.1-0.9,0.2-1.3,0.2C75.6,37.7,71.9,35,71,31 c-0.5-2.1-0.1-4.4,1-6.2c1.2-1.9,3-3.2,5.1-3.7c0.4-0.1,0.9-0.2,1.3-0.2c4.1-0.3,7.7,2.4,8.6,6.4 C88.1,31.7,85.3,36.2,80.9,37.2L80.9,37.2L80.9,37.2z"/></g><path fill="#5E514D" d="M35.8,37.2c-0.1-0.1-0.2-0.1-0.3,0c-0.1,0.1-0.3,0.3-0.4,0.4c-0.3,0.1-0.6,0.2-1.5,0.2 c-1-0.1-2.2-0.9-2.5-1.2c-0.3-0.3-0.3-0.6-0.3-0.8c0-0.1,0.1-1.6,0.2-2.1c0.1-0.4,0.2-0.5,0.2-0.6c0,0,0,0,0,0 c1.2-0.2,3.7-1.2,3.8-2.6c0.2-1.7-1.5-3.3-3.7-3.5c-2.2-0.2-4.2,0.9-4.3,2.6c-0.2,1.4,2.1,2.9,3.2,3.3c0,0,0,0,0,0 c0,0.1,0,0.2,0,0.6c0,0.5-0.3,2-0.3,2.1c0,0.1-0.1,0.5-0.4,0.7c-0.4,0.2-1.8,0.7-2.7,0.5c-0.9-0.2-1.2-0.3-1.4-0.5 c-0.1-0.1-0.3-0.4-0.3-0.5c-0.1-0.1-0.2-0.1-0.3-0.1c-0.1,0.1-0.1,0.3-0.1,0.4c0,0.1,0.2,1.8,1.8,2c2,0.2,3.2-0.9,3.7-1.4 l0,0c0,0,0-0.1,0.1-0.1c0.1,0,0.1,0.1,0.1,0.1c0.3,0.6,1.3,2,3.3,2.2c1.7,0.2,2.2-1.4,2.3-1.5C35.8,37.5,35.9,37.2,35.8,37.2 L35.8,37.2L35.8,37.2z" transform="translate(0 1)"/></g><g fill="#C83326"><g><g><path d="M12.6-0.2c6,0,9.1,3.7,9.1,3.7l-2.2,3.6c0,0-2.8-2.8-6.8-2.8c-5.2,0-8.3,4.2-8.3,9.2 c0,5.1,3.2,9.6,8.3,9.6c4.3,0,7.2-3.4,7.2-3.4l2.4,3.5c0,0-3.4,4.4-9.7,4.4c-7.6,0-12.8-6.1-12.8-14 C-0.1,5.8,5.3-0.2,12.6-0.2L12.6-0.2L12.6-0.2zM24.1,0.2h4.4v9.3c0,0.9-0.1,1.6-0.1,1.6h0.1c0.9-1.9,3-3.8,6.1-3.8c3.9,0,6.2,2.2,6.2,7.3v12.4 h-4.4V15.7c0-2.3-0.6-3.9-2.8-3.9c-2.3,0-4.1,1.7-4.8,4c-0.2,0.8-0.3,1.6-0.3,2.5v8.9h-4.4V0.2L24.1,0.2zM43.7,7.8h4.4v19.3h-4.4V7.8L43.7,7.8zM43.7,0.5h4.4v3.6h-4.4V0.5L43.7,0.5zM202.2,2.5h4.4v3.6h-4.4V2.5L202.2,2.5zM51.1,0.2h4.4v20.1c0,2.1,0.7,2.7,1.8,2.7c0.3,0,0.7,0,0.7,0v4.2c0,0-0.7,0.1-1.4,0.1 c-2.4,0-5.5-0.7-5.5-6.2V0.2L51.1,0.2zM66.3,7.4c3.9,0,5.1,2.5,5.1,2.5h0.1c0,0,0-0.5,0-1.1V0.2h4.4v26.9h-4.2v-1.6 c0-0.7,0.1-1.2,0.1-1.2h-0.1c0,0-1.5,3.3-5.6,3.3c-4.8,0-7.9-4.1-7.9-10.1C58.2,11.3,61.6,7.4,66.3,7.4L66.3,7.4L66.3,7.4z M67.1,23.5c2.3,0,4.5-1.8,4.5-6.1c0-3-1.5-5.9-4.4-5.9c-2.4,0-4.5,2.2-4.5,6C62.7,21.1,64.5,23.5,67.1,23.5L67.1,23.5 L67.1,23.5zM79,7.8h4.2v3.3c0,0.7-0.1,1.4-0.1,1.4h0.1c0.8-2.8,2.9-5,5.6-5c0.4,0,0.8,0.1,0.8,0.1v4.7 c0,0-0.5-0.1-1-0.1c-1.9,0-4,1.2-4.8,4.1c-0.3,0.9-0.4,2-0.4,3.1v7.6H79L79,7.8L79,7.8zM98.7,7.4c5.1,0,7.9,4.1,7.9,9.2c0,0.6-0.1,1.9-0.1,1.9H94.2c0.3,3.4,2.7,5.1,5.3,5.1 c2.9,0,5.1-2.1,5.1-2.1l1.7,3.4c0,0-2.7,2.8-7.1,2.8c-5.9,0-9.5-4.6-9.5-10.1C89.7,11.5,93.4,7.4,98.7,7.4L98.7,7.4 L98.7,7.4z M102.1,15.1c-0.1-2.6-1.6-4-3.5-4c-2.3,0-3.8,1.5-4.3,4H102.1L102.1,15.1zM108.5,7.8h4.3V10c0,0.7-0.1,1.3-0.1,1.3h0.1c0.8-1.6,2.7-4,6.3-4c3.9,0,6.2,2.2,6.2,7.3v12.4h-4.4 V15.7c0-2.3-0.6-3.9-2.8-3.9c-2.4,0-4.1,1.6-4.8,3.9c-0.2,0.8-0.3,1.7-0.3,2.6v8.9h-4.4L108.5,7.8L108.5,7.8zM130.2,21.4c0,0,2,2.1,4.8,2.1c1.3,0,2.3-0.6,2.3-1.7c0-2.9-8.6-2.5-8.6-8.7c0-3.6,3-5.7,6.8-5.7 c4,0,6,2.2,6,2.2l-1.6,3.6c0,0-1.6-1.7-4.4-1.7c-1.1,0-2.3,0.5-2.3,1.7c0,2.7,8.6,2.4,8.6,8.6c0,3.2-2.6,5.8-6.8,5.8 c-4.4,0-6.9-2.8-6.9-2.8L130.2,21.4L130.2,21.4zM149.9,0.2h4.5l9.4,15.5c0.9,1.6,2.1,4.2,2.1,4.2h0.1c0,0-0.2-2.6-0.2-4.2V0.2h4.5v26.9h-4.5 l-9.4-15.5c-0.9-1.6-2.1-4.2-2.1-4.2h-0.1c0,0,0.2,2.6,0.2,4.2v15.5h-4.5V0.2L149.9,0.2zM182.4,15h0.6v-0.3c0-2.5-1.5-3.4-3.4-3.4c-2.5,0-4.9,1.9-4.9,1.9L173,9.7c0,0,2.8-2.4,7-2.4 c4.7,0,7.4,2.8,7.4,7.7v12.1h-4.1v-1.6c0-0.8,0.1-1.4,0.1-1.4h-0.1c0,0-1.4,3.4-5.4,3.4c-3.2,0-6-2.2-6-6 C171.9,15.4,179.5,15,182.4,15L182.4,15L182.4,15z M179,23.8c2.3,0,4-2.7,4-5.1v-0.5h-0.8c-2.3,0-5.9,0.3-5.9,3 C176.3,22.6,177.2,23.8,179,23.8L179,23.8L179,23.8zM190.9,11.9h-2.3V8.1h2.4V2.5h4.3v5.6h4v3.8h-4v7.5c0,3.2,2.3,3.6,3.5,3.6c0.5,0,0.8-0.1,0.8-0.1 v4.2c0,0-0.5,0.1-1.4,0.1c-2.5,0-7.4-0.8-7.4-7.3V11.9L190.9,11.9zM202.2,7.8h4.4v19.3h-4.4V7.8L202.2,7.8zM218.2,7.4c5.4,0,9.8,4.2,9.8,10.1c0,5.9-4.4,10.1-9.8,10.1c-5.4,0-9.8-4.2-9.8-10.1 C208.4,11.6,212.8,7.4,218.2,7.4L218.2,7.4L218.2,7.4z M218.2,23.5c2.9,0,5.3-2.4,5.3-6c0-3.6-2.4-6-5.3-6 c-2.9,0-5.3,2.5-5.3,6C212.9,21.1,215.3,23.5,218.2,23.5L218.2,23.5L218.2,23.5zM229.8,7.8h4.3V10c0,0.7-0.1,1.3-0.1,1.3h0.1c0.8-1.6,2.7-4,6.3-4c3.9,0,6.2,2.2,6.2,7.3v12.4h-4.4 V15.7c0-2.3-0.6-3.9-2.8-3.9c-2.4,0-4.1,1.6-4.8,3.9c-0.2,0.8-0.3,1.7-0.3,2.6v8.9h-4.4L229.8,7.8L229.8,7.8zM258.4,15h0.6v-0.3c0-2.5-1.5-3.4-3.4-3.4c-2.5,0-4.9,1.9-4.9,1.9l-1.7-3.4c0,0,2.8-2.4,7-2.4 c4.7,0,7.4,2.8,7.4,7.7v12.1h-4.1v-1.6c0-0.8,0.1-1.4,0.1-1.4h-0.1c0,0-1.4,3.4-5.4,3.4c-3.2,0-6-2.2-6-6 C247.9,15.4,255.6,15,258.4,15L258.4,15L258.4,15z M255.1,23.8c2.3,0,4-2.7,4-5.1v-0.5h-0.8c-2.3,0-5.9,0.3-5.9,3 C252.4,22.6,253.3,23.8,255.1,23.8L255.1,23.8L255.1,23.8zM266,0.2h4.4v20.1c0,2.1,0.7,2.7,1.8,2.7c0.4,0,0.7,0,0.7,0v4.2c0,0-0.7,0.1-1.4,0.1 c-2.4,0-5.5-0.7-5.5-6.2V0.2L266,0.2z" transform="translate(0 1) translate(96 14)"/></g><path d="M126.9,7.9V2.5h3.8C130.7,2.5,130.7,6.8,126.9,7.9L126.9,7.9L126.9,7.9z" transform="translate(0 1) translate(96 14)"/></g><g><path d="M1.5,0.4H0V0h3.4v0.4H1.9v3.8H1.5L1.5,0.4L1.5,0.4z" transform="translate(373 38)"/><path d="M4.2,0h0.4l1.1,2.4c0.1,0.2,0.2,0.5,0.2,0.5h0c0,0,0.1-0.3,0.2-0.5L7.2,0h0.4L8,4.1 H7.6L7.3,1.2c0-0.2,0-0.6,0-0.6h0c0,0-0.1,0.4-0.2,0.6l-1,2.1H5.7l-1-2.1C4.7,1,4.5,0.7,4.5,0.7h0c0,0,0,0.4,0,0.6L4.3,4.1 H3.9L4.2,0L4.2,0z" transform="translate(373 38)"/></g></g></g><g fill="#C83326"><path d="M-0.2,0.6h2v6.6H9V0.6h2v15.1H9V9H1.8v6.6h-2V0.6L-0.2,0.6z" transform="translate(0 1) translate(246 54)"/><path d="M17.4,4.6c2.8,0,4.3,2.3,4.3,5.1c0,0.3-0.1,0.9-0.1,0.9h-7.3c0.1,2.4,1.7,3.6,3.4,3.6 c1.7,0,3-1.3,3-1.3l0.8,1.5c0,0-1.5,1.5-3.9,1.5c-3.1,0-5.3-2.5-5.3-5.7C12.4,6.8,14.5,4.6,17.4,4.6L17.4,4.6L17.4,4.6z M19.8,9c-0.1-1.9-1.1-2.8-2.4-2.8c-1.5,0-2.6,1-2.9,2.8H19.8L19.8,9z" transform="translate(0 1) translate(246 54)"/><path d="M28.8,8.9h0.4V8.7c0-1.8-0.9-2.4-2.2-2.4c-1.5,0-2.8,1-2.8,1l-0.8-1.5 c0,0,1.4-1.3,3.7-1.3c2.5,0,4,1.5,4,4.2v6.8h-1.8v-1c0-0.5,0-0.9,0-0.9h0c0,0-0.8,2.1-3.2,2.1c-1.7,0-3.4-1.1-3.4-3.3 C22.8,9.1,27.1,8.9,28.8,8.9L28.8,8.9L28.8,8.9z M26.6,14.3c1.6,0,2.7-1.8,2.7-3.4v-0.3h-0.5c-1.4,0-4.1,0.1-4.1,2 C24.7,13.4,25.3,14.3,26.6,14.3L26.6,14.3L26.6,14.3z" transform="translate(0 1) translate(246 54)"/><path d="M33.4,0.6h1.9v11.8c0,1.3,0.5,1.5,1.1,1.5c0.2,0,0.3,0,0.3,0v1.8c0,0-0.3,0-0.6,0 c-1.1,0-2.7-0.3-2.7-3L33.4,0.6L33.4,0.6z" transform="translate(0 1) translate(246 54)"/><path d="M38.4,6.7h-1.3V5h1.4V1.9h1.9V5h2.4v1.7h-2.4v4.8c0,2.2,1.4,2.4,2.1,2.4 c0.3,0,0.5,0,0.5,0v1.8c0,0-0.3,0-0.7,0c-1.3,0-3.8-0.4-3.8-4L38.4,6.7L38.4,6.7z" transform="translate(0 1) translate(246 54)"/><path d="M44.4,0.6h1.9v5.5c0,0.5,0,0.9,0,0.9h0C46.7,6,48,4.6,50,4.6c2.4,0,3.4,1.4,3.4,4.1 v6.9h-1.9V9.2c0-1.5-0.3-2.7-1.9-2.7c-1.5,0-2.7,1.1-3.2,2.7c-0.1,0.4-0.2,0.9-0.2,1.4v5.1h-1.9L44.4,0.6L44.4,0.6z" transform="translate(0 1) translate(246 54)"/><path d="M61.2,12.3c0,0,1.5,1.6,3.6,1.6c1.3,0,2.4-0.8,2.4-2.2c0-3.3-6.8-2.6-6.8-7.2 c0-2.4,1.9-4.2,4.5-4.2c2.6,0,4,1.5,4,1.5L68,3.6c0,0-1.3-1.3-3.1-1.3c-1.5,0-2.5,1-2.5,2.2c0,3.1,6.8,2.3,6.8,7.2 c0,2.3-1.7,4.2-4.4,4.2c-3,0-4.6-2-4.6-2L61.2,12.3L61.2,12.3z" transform="translate(0 1) translate(246 54)"/><path d="M69.9,17.9c0,0,0.6,0.4,1.2,0.4c0.8,0,1.4-0.6,1.8-1.6l0.5-1.2L69.2,4.9h2.2l2.5,7.1 c0.2,0.6,0.4,1.3,0.4,1.3h0c0,0,0.2-0.7,0.3-1.3L77,4.9h2.1l-4.7,12.7c-0.6,1.7-1.8,2.5-3.2,2.5c-1.1,0-1.9-0.7-1.9-0.7 L69.9,17.9L69.9,17.9z" transform="translate(0 1) translate(246 54)"/><path d="M80.3,12.9c0,0,1.1,1.3,2.9,1.3c0.8,0,1.7-0.5,1.7-1.3c0-2-5.1-1.6-5.1-5.1 c0-2,1.6-3.1,3.6-3.1c2.2,0,3.2,1.2,3.2,1.2l-0.8,1.6c0,0-0.9-1-2.5-1c-0.8,0-1.6,0.4-1.6,1.3c0,1.9,5.1,1.5,5.1,5.1 c0,1.8-1.4,3.1-3.6,3.1c-2.5,0-3.8-1.6-3.8-1.6L80.3,12.9L80.3,12.9z" transform="translate(0 1) translate(246 54)"/><path d="M88.9,6.7h-1.3V5H89V1.9h1.9V5h2.4v1.7h-2.4v4.8c0,2.2,1.4,2.4,2.1,2.4 c0.3,0,0.5,0,0.5,0v1.8c0,0-0.3,0-0.7,0c-1.3,0-3.8-0.4-3.8-4L88.9,6.7L88.9,6.7z" transform="translate(0 1) translate(246 54)"/><path d="M99,4.6c2.8,0,4.3,2.3,4.3,5.1c0,0.3-0.1,0.9-0.1,0.9H96c0.1,2.4,1.7,3.6,3.4,3.6 c1.7,0,3-1.3,3-1.3l0.8,1.5c0,0-1.5,1.5-3.9,1.5c-3.1,0-5.3-2.5-5.3-5.7C94,6.8,96.2,4.6,99,4.6L99,4.6L99,4.6z M101.4,9 c-0.1-1.9-1.1-2.8-2.4-2.8c-1.5,0-2.6,1-2.9,2.8H101.4L101.4,9z" transform="translate(0 1) translate(246 54)"/><path d="M105.2,4.9h1.9v1.4c0,0.4,0,0.8,0,0.8h0c0.5-1.3,1.9-2.5,3.4-2.5c1.7,0,2.7,0.8,3,2.5 h0c0.6-1.3,1.9-2.5,3.6-2.5c2.3,0,3.3,1.4,3.3,4.1v6.9h-1.9V9.2c0-1.5-0.3-2.7-1.8-2.7c-1.4,0-2.5,1.3-2.8,2.8 c-0.1,0.4-0.1,0.9-0.1,1.5v4.9h-1.9V9.2c0-1.4-0.2-2.7-1.7-2.7c-1.5,0-2.5,1.3-2.9,2.8c-0.1,0.4-0.1,0.9-0.1,1.4v4.9h-1.9V4.9 L105.2,4.9z" transform="translate(0 1) translate(246 54)"/></g></g></svg>