<svg xmlns="http://www.w3.org/2000/svg" width="381" height="76" viewBox="0 0 381 76"><title>Untitled</title><path fill="#5E514D" d="M21.7 21.6c-.5.2-.8-.1-.6-.6l.3-.9c-.7-.1-1.4.1-2 .7-1 .9-1.3 2.2-.6 3 .7.8 2.1.7 3.1-.1.8-.7 1.1-1.6.9-2.4l-1.1.3zm22.1 2.8c-.5.2-.8-.1-.6-.6l.4-1.1c-.7-.4-1.5-.4-2.1 0-.8.6-.9 2-.1 3.1s2.1 1.4 3 .8c.7-.5.8-1.6.4-2.5l-1 .3z"/><g transform="translate(0 1)"><path fill="#786A65" d="M16.4 43.3c-1.3-1.1-2.6-2.3-3.8-3.5-3.5-3.8-6.1-8.3-7.5-13-.1-.4-.1-.7-.2-1.1 0-.1-.1-.1-.1-.1-.1 0-.1.1-.1.1-.1 2.1.1 4.2.7 6.3.1.4.2.8.3 1.1.2.7.4 1.4.7 2 2 4.6 5.9 7.8 10 8.3h.1c-.1 0-.1-.1-.1-.1z"/><radialGradient id="a" cx="-113.356" cy="427.026" r=".203" gradientTransform="matrix(88.718 0 0 -89.823 10087.881 38387.344)" gradientUnits="userSpaceOnUse"><stop offset=".159" stop-color="#D6D2D1"/><stop offset=".905" stop-color="#837672"/><stop offset="1" stop-color="#786A65"/></radialGradient><path fill="url(#a)" d="M88.7 26.9c-1.2-5.3-6.6-8.7-11.9-7.4-5.3 1.2-8.7 6.6-7.4 11.9.6 2.5 2 4.5 4 5.9-.7 1-1.5 2-2.4 2.9-.2-.6-.4-1.2-.8-1.8l-.1-.1v-.1c-.2-.3-.5-.7-.8-1-.4-.4-.7-.7-1.2-.9 0 0-.1 0-.1-.1h-.1c-.1 0-.1-.1-.2-.1-.4-.2-.8-.4-1.3-.5-.7-.2-1.3-.3-2-.2-1.6 0-3.4.7-4.9 2.1-4.1 3.7-4.9 9.6-5.1 12.5-2.1.5-4.3.7-6.5.7-1.7 0-3.3-.1-5-.4-.4-.1-.7-.1-1.1-.2l-1.1-.2 1.1-.2c3.4-.7 6.5-2.1 9.1-4.2 3.3-2.7 5.7-6.3 6.7-10.5.5-1.8.7-3.8.7-5.7 0-2.1-.3-4.2-.8-6.3 3.3-1 6.6-3.8 7.1-7.7.5-5-3.1-9.6-8.3-10.2-3.2-.6-6.3.8-8.3 3.3-1.8-1.4-3.8-2.7-6-3.6-2.7-1.2-5.4-1.9-8.2-2.3-2.8-.3-5.7-.1-8.5.4-2.5.5-4.8 1.3-7 2.4-1.3-2.9-4.2-5-7.6-5.4C5.4-.7.9 3 .3 8c-.4 3.5 2 6.9 4.8 8.7-.1.9-.1 1.8-.1 2.7 0 6.8 2.9 13.9 8.3 19.8 5 5.4 11.6 9.1 18.5 10.4 1.4.3 2.9.4 4.3.4 2 .9 4.1 1.5 6.3 1.9 1.7.3 3.5.5 5.3.5 6.7 0 13.4-2.2 19-6.3.8 0 1.5-.2 2.2-.6-1.4 1.1-2.9 2.2-4.5 3.1-3 1.7-6.1 3-9.4 3.8 0 0-.1 0-.1.1s0 .1.1.1c1.8 1 6.7 3.3 14.1 2.7 6.8-.5 10-5 10.4-7.6.4-2.6-.5-4.4-1.7-5.6-.6-.6-1.6-1-2.6-1s-1.9.2-2.6.9c-.8.9-1.6 1.7-2.5 2.4.5-.6.8-1.3.9-2 1.4-1.4 2.7-2.9 3.8-4.5l.3-.3c.4-.5.9-.5 1 .2l.1.9c1.6.5 3.3.5 5 .1 5.4-1.2 8.8-6.5 7.5-11.9zm-47.4-7.4c1.3-1 3.4-.4 4.7 1.3 1.3 1.7 1.2 3.9-.1 4.9-1.3 1-3.4.4-4.7-1.3-1.3-1.7-1.2-3.9.1-4.9zm-23.1-1.8c1.6-1.4 3.8-1.5 4.9-.2 1.1 1.3.7 3.4-.9 4.8s-3.8 1.5-4.9.2c-1.2-1.2-.7-3.4.9-4.8zm14 30.1c-6.6-1.2-12.9-4.7-17.6-9.9-5.1-5.5-7.9-12.3-7.9-18.7 0-.5 0-1 .1-1.6l.9.3c-.4 6.5 2.4 13.7 7.6 19.4 1.9 2 4 3.8 6.3 5.3.5-.4.7-1.1.3-1.7-1.7-3.1-2.2-6.9-1.3-10.6.6-2.3 1.8-4.3 3.2-5.7 2.1-2.1 4.9-2.4 7.8-2.1 2.9.3 5.5 1.2 7.1 3.7 1.1 1.7 1.8 3.9 1.9 6.3.2 3.8-1.2 7.4-3.5 10.1-.6.6-.4 1.4.2 2 .1.1.2.2.4.3.2.2.5.3.8.5 1.6.9 3.3 1.2 5.2 1 2.2-.7 4.2-1.8 5.9-3.1 2.9-2.3 4.8-5.3 5.8-9 .9-3.5.8-7.3-.2-11.1h.9c.5 2 .8 4.1.8 6.1 0 1.8-.2 3.6-.7 5.3-1 3.8-3.1 7-6.1 9.5C46.5 47 42 48.5 37 48.5c-1.5-.3-3.1-.4-4.8-.7zm48.7-10.6c-.4.1-.9.2-1.3.2-4 .3-7.7-2.4-8.6-6.4-.5-2.1-.1-4.4 1-6.2 1.2-1.9 3-3.2 5.1-3.7.4-.1.9-.2 1.3-.2 4.1-.3 7.7 2.4 8.6 6.4 1.1 4.4-1.7 8.9-6.1 9.9z"/></g><path fill="#5E514D" d="M35.8 38.2c-.1-.1-.2-.1-.3 0l-.4.4c-.3.1-.6.2-1.5.2-1-.1-2.2-.9-2.5-1.2-.3-.3-.3-.6-.3-.8 0-.1.1-1.6.2-2.1.1-.4.2-.5.2-.6 1.2-.2 3.7-1.2 3.8-2.6.2-1.7-1.5-3.3-3.7-3.5-2.2-.2-4.2.9-4.3 2.6-.2 1.4 2.1 2.9 3.2 3.3v.6c0 .5-.3 2-.3 2.1 0 .1-.1.5-.4.7-.4.2-1.8.7-2.7.5-.9-.2-1.2-.3-1.4-.5-.1-.1-.3-.4-.3-.5-.1-.1-.2-.1-.3-.1-.1.1-.1.3-.1.4 0 .1.2 1.8 1.8 2 2 .2 3.2-.9 3.7-1.4 0 0 0-.1.1-.1s.1.1.1.1c.3.6 1.3 2 3.3 2.2 1.7.2 2.2-1.4 2.3-1.5-.2.1-.1-.2-.2-.2z"/><path d="M108.6 14.8c6 0 9.1 3.7 9.1 3.7l-2.2 3.6s-2.8-2.8-6.8-2.8c-5.2 0-8.3 4.2-8.3 9.2 0 5.1 3.2 9.6 8.3 9.6 4.3 0 7.2-3.4 7.2-3.4l2.4 3.5s-3.4 4.4-9.7 4.4c-7.6 0-12.8-6.1-12.8-14 .1-7.8 5.5-13.8 12.8-13.8zm11.5.4h4.4v9.3c0 .9-.1 1.6-.1 1.6h.1c.9-1.9 3-3.8 6.1-3.8 3.9 0 6.2 2.2 6.2 7.3V42h-4.4V30.7c0-2.3-.6-3.9-2.8-3.9-2.3 0-4.1 1.7-4.8 4-.2.8-.3 1.6-.3 2.5v8.9h-4.4v-27zm19.6 7.6h4.4v19.3h-4.4V22.8zm0-7.3h4.4v3.6h-4.4v-3.6zm158.5 2h4.4v3.6h-4.4v-3.6zm-151.1-2.3h4.4v20.1c0 2.1.7 2.7 1.8 2.7h.7v4.2s-.7.1-1.4.1c-2.4 0-5.5-.7-5.5-6.2V15.2zm15.2 7.2c3.9 0 5.1 2.5 5.1 2.5h.1v-9.7h4.4v26.9h-4.2v-1.6c0-.7.1-1.2.1-1.2h-.1s-1.5 3.3-5.6 3.3c-4.8 0-7.9-4.1-7.9-10.1 0-6.2 3.4-10.1 8.1-10.1zm.8 16.1c2.3 0 4.5-1.8 4.5-6.1 0-3-1.5-5.9-4.4-5.9-2.4 0-4.5 2.2-4.5 6 0 3.6 1.8 6 4.4 6zM175 22.8h4.2v3.3c0 .7-.1 1.4-.1 1.4h.1c.8-2.8 2.9-5 5.6-5 .4 0 .8.1.8.1v4.7s-.5-.1-1-.1c-1.9 0-4 1.2-4.8 4.1-.3.9-.4 2-.4 3.1V42H175V22.8zm19.7-.4c5.1 0 7.9 4.1 7.9 9.2 0 .6-.1 1.9-.1 1.9h-12.3c.3 3.4 2.7 5.1 5.3 5.1 2.9 0 5.1-2.1 5.1-2.1l1.7 3.4s-2.7 2.8-7.1 2.8c-5.9 0-9.5-4.6-9.5-10.1 0-6.1 3.7-10.2 9-10.2zm3.4 7.7c-.1-2.6-1.6-4-3.5-4-2.3 0-3.8 1.5-4.3 4h7.8zm6.4-7.3h4.3V25c0 .7-.1 1.3-.1 1.3h.1c.8-1.6 2.7-4 6.3-4 3.9 0 6.2 2.2 6.2 7.3V42h-4.4V30.7c0-2.3-.6-3.9-2.8-3.9-2.4 0-4.1 1.6-4.8 3.9-.2.8-.3 1.7-.3 2.6v8.9h-4.4l-.1-19.4zm21.7 13.6s2 2.1 4.8 2.1c1.3 0 2.3-.6 2.3-1.7 0-2.9-8.6-2.5-8.6-8.7 0-3.6 3-5.7 6.8-5.7 4 0 6 2.2 6 2.2l-1.6 3.6s-1.6-1.7-4.4-1.7c-1.1 0-2.3.5-2.3 1.7 0 2.7 8.6 2.4 8.6 8.6 0 3.2-2.6 5.8-6.8 5.8-4.4 0-6.9-2.8-6.9-2.8l2.1-3.4zm19.7-21.2h4.5l9.4 15.5c.9 1.6 2.1 4.2 2.1 4.2h.1s-.2-2.6-.2-4.2V15.2h4.5v26.9h-4.5l-9.4-15.5c-.9-1.6-2.1-4.2-2.1-4.2h-.1s.2 2.6.2 4.2v15.5h-4.5V15.2zM278.4 30h.6v-.3c0-2.5-1.5-3.4-3.4-3.4-2.5 0-4.9 1.9-4.9 1.9l-1.7-3.5s2.8-2.4 7-2.4c4.7 0 7.4 2.8 7.4 7.7v12.1h-4.1v-1.6c0-.8.1-1.4.1-1.4h-.1s-1.4 3.4-5.4 3.4c-3.2 0-6-2.2-6-6 0-6.1 7.6-6.5 10.5-6.5zm-3.4 8.8c2.3 0 4-2.7 4-5.1v-.5h-.8c-2.3 0-5.9.3-5.9 3 0 1.4.9 2.6 2.7 2.6zm11.9-11.9h-2.3v-3.8h2.4v-5.6h4.3v5.6h4v3.8h-4v7.5c0 3.2 2.3 3.6 3.5 3.6.5 0 .8-.1.8-.1v4.2s-.5.1-1.4.1c-2.5 0-7.4-.8-7.4-7.3v-8h.1zm11.3-4.1h4.4v19.3h-4.4V22.8zm16-.4c5.4 0 9.8 4.2 9.8 10.1 0 5.9-4.4 10.1-9.8 10.1s-9.8-4.2-9.8-10.1c0-5.9 4.4-10.1 9.8-10.1zm0 16.1c2.9 0 5.3-2.4 5.3-6s-2.4-6-5.3-6-5.3 2.5-5.3 6c0 3.6 2.4 6 5.3 6zm11.6-15.7h4.3V25c0 .7-.1 1.3-.1 1.3h.1c.8-1.6 2.7-4 6.3-4 3.9 0 6.2 2.2 6.2 7.3V42h-4.4V30.7c0-2.3-.6-3.9-2.8-3.9-2.4 0-4.1 1.6-4.8 3.9-.2.8-.3 1.7-.3 2.6v8.9h-4.4l-.1-19.4zm28.6 7.2h.6v-.3c0-2.5-1.5-3.4-3.4-3.4-2.5 0-4.9 1.9-4.9 1.9l-1.7-3.4s2.8-2.4 7-2.4c4.7 0 7.4 2.8 7.4 7.7v12.1h-4.1v-1.6c0-.8.1-1.4.1-1.4h-.1s-1.4 3.4-5.4 3.4c-3.2 0-6-2.2-6-6 0-6.2 7.7-6.6 10.5-6.6zm-3.3 8.8c2.3 0 4-2.7 4-5.1v-.5h-.8c-2.3 0-5.9.3-5.9 3 0 1.4.9 2.6 2.7 2.6zM362 15.2h4.4v20.1c0 2.1.7 2.7 1.8 2.7h.7v4.2s-.7.1-1.4.1c-2.4 0-5.5-.7-5.5-6.2V15.2zm-139.1 7.7v-5.4h3.8s0 4.3-3.8 5.4zm151.6 15.5H373V38h3.4v.4h-1.5v3.8h-.4v-3.8zm2.7-.4h.4l1.1 2.4c.1.2.2.5.2.5s.1-.3.2-.5l1.1-2.4h.4l.4 4.1h-.4l-.3-2.9v-.6s-.1.4-.2.6l-1 2.1h-.4l-1-2.1c0-.2-.2-.5-.2-.5v.6l-.2 2.8h-.4l.3-4.1zM245.8 55.6h2v6.6h7.2v-6.6h2v15.1h-2V64h-7.2v6.6h-2v-15zm17.6 4c2.8 0 4.3 2.3 4.3 5.1 0 .3-.1.9-.1.9h-7.3c.1 2.4 1.7 3.6 3.4 3.6s3-1.3 3-1.3l.8 1.5s-1.5 1.5-3.9 1.5c-3.1 0-5.3-2.5-5.3-5.7.1-3.4 2.2-5.6 5.1-5.6zm2.4 4.4c-.1-1.9-1.1-2.8-2.4-2.8-1.5 0-2.6 1-2.9 2.8h5.3zm9-.1h.4v-.2c0-1.8-.9-2.4-2.2-2.4-1.5 0-2.8 1-2.8 1l-.8-1.5s1.4-1.3 3.7-1.3c2.5 0 4 1.5 4 4.2v6.8h-1.8v-1.9s-.8 2.1-3.2 2.1c-1.7 0-3.4-1.1-3.4-3.3.1-3.3 4.4-3.5 6.1-3.5zm-2.2 5.4c1.6 0 2.7-1.8 2.7-3.4v-.3h-.5c-1.4 0-4.1.1-4.1 2 0 .8.6 1.7 1.9 1.7zm6.8-13.7h1.9v11.8c0 1.3.5 1.5 1.1 1.5h.3v1.8h-.6c-1.1 0-2.7-.3-2.7-3V55.6zm5 6.1h-1.3V60h1.4v-3.1h1.9V60h2.4v1.7h-2.4v4.8c0 2.2 1.4 2.4 2.1 2.4h.5v1.8h-.7c-1.3 0-3.8-.4-3.8-4l-.1-5zm6-6.1h1.9V62c.4-1 1.7-2.4 3.7-2.4 2.4 0 3.4 1.4 3.4 4.1v6.9h-1.9v-6.4c0-1.5-.3-2.7-1.9-2.7-1.5 0-2.7 1.1-3.2 2.7-.1.4-.2.9-.2 1.4v5.1h-1.9l.1-15.1zm16.8 11.7s1.5 1.6 3.6 1.6c1.3 0 2.4-.8 2.4-2.2 0-3.3-6.8-2.6-6.8-7.2 0-2.4 1.9-4.2 4.5-4.2s4 1.5 4 1.5l-.9 1.8s-1.3-1.3-3.1-1.3c-1.5 0-2.5 1-2.5 2.2 0 3.1 6.8 2.3 6.8 7.2 0 2.3-1.7 4.2-4.4 4.2-3 0-4.6-2-4.6-2l1-1.6zm8.7 5.6s.6.4 1.2.4c.8 0 1.4-.6 1.8-1.6l.5-1.2-4.2-10.6h2.2l2.5 7.1c.2.6.4 1.3.4 1.3s.2-.7.3-1.3l2.4-7.1h2.1l-4.7 12.7c-.6 1.7-1.8 2.5-3.2 2.5-1.1 0-1.9-.7-1.9-.7l.6-1.5zm10.4-5s1.1 1.3 2.9 1.3c.8 0 1.7-.5 1.7-1.3 0-2-5.1-1.6-5.1-5.1 0-2 1.6-3.1 3.6-3.1 2.2 0 3.2 1.2 3.2 1.2l-.8 1.6s-.9-1-2.5-1c-.8 0-1.6.4-1.6 1.3 0 1.9 5.1 1.5 5.1 5.1 0 1.8-1.4 3.1-3.6 3.1-2.5 0-3.8-1.6-3.8-1.6l.9-1.5zm8.6-6.2h-1.3V60h1.4v-3.1h1.9V60h2.4v1.7h-2.4v4.8c0 2.2 1.4 2.4 2.1 2.4h.5v1.8h-.7c-1.3 0-3.8-.4-3.8-4l-.1-5zm10.1-2.1c2.8 0 4.3 2.3 4.3 5.1 0 .3-.1.9-.1.9H342c.1 2.4 1.7 3.6 3.4 3.6s3-1.3 3-1.3l.8 1.5s-1.5 1.5-3.9 1.5c-3.1 0-5.3-2.5-5.3-5.7 0-3.4 2.2-5.6 5-5.6zm2.4 4.4c-.1-1.9-1.1-2.8-2.4-2.8-1.5 0-2.6 1-2.9 2.8h5.3zm3.8-4.1h1.9v2.2c.5-1.3 1.9-2.5 3.4-2.5 1.7 0 2.7.8 3 2.5.6-1.3 1.9-2.5 3.6-2.5 2.3 0 3.3 1.4 3.3 4.1v6.9h-1.9v-6.4c0-1.5-.3-2.7-1.8-2.7-1.4 0-2.5 1.3-2.8 2.8-.1.4-.1.9-.1 1.5v4.9h-1.9v-6.5c0-1.4-.2-2.7-1.7-2.7s-2.5 1.3-2.9 2.8c-.1.4-.1.9-.1 1.4v4.9h-1.9V59.9h-.1z" fill="#C83326"/></svg>