<svg version="1.1" id="Layer_1" xmlns="http://www.w3.org/2000/svg" x="0" y="0" viewBox="0 0 220 61.9" xml:space="preserve"><style>.st0{enable-background:new}.st1{fill:#6d7ebd}.st2{fill:#4d69b1}.st3{fill:#58595b}</style><g class="st0"><path class="st1" d="M9.5 10.8c0-1-.1-1.8-.4-2.2-.3-.5-.8-.7-1.4-.7-.7 0-1.2.2-1.5.7s-.5 1.2-.5 2.2v4.3H4.3V6.6h1.4v1c.3-.4.6-.7 1-.8.3-.2.7-.3 1.1-.3.6 0 1.1.1 1.5.3.4.2.7.6 1 1.1.3-.5.6-.9 1-1.1s1-.4 1.6-.4c1 0 1.7.3 2.3.9s.9 1.5.9 2.5V15h-1.5v-4.9c0-.7-.2-1.3-.5-1.7s-.8-.6-1.3-.6c-.7 0-1.1.2-1.4.6-.3.6-.4 1.3-.4 2.3v4.4H9.5v-4.3z"/></g><g class="st0"><path class="st1" d="M29.7 15.1v-1c-.4.4-.8.7-1.3.9s-1 .3-1.5.3c-1.3 0-2.3-.4-3.2-1.3-.8-.9-1.3-1.9-1.3-3.2 0-.6.1-1.2.3-1.7.2-.5.5-1 .9-1.4s.9-.8 1.4-1 1.1-.3 1.7-.3 1.1.1 1.6.3c.5.2.9.5 1.3.9v-1h1.5v8.5h-1.4zM24 10.8c0 .9.3 1.6.9 2.2.6.6 1.3.9 2.1.9.7 0 1.4-.3 2-.9.6-.6.9-1.3.9-2 0-.8-.3-1.5-.9-2.1S27.8 8 27 8s-1.5.3-2.1.8c-.6.5-.9 1.2-.9 2z"/></g><g class="st0"><path class="st1" d="M39.5 15.1H38V6.6h1.5v1c.3-.4.7-.7 1.1-.8.4-.2.8-.3 1.3-.3 1.1 0 2 .3 2.6 1s.9 1.6.9 2.8v4.8h-1.5v-4.5c0-.9-.2-1.6-.5-2-.5-.4-1.1-.6-1.8-.6-.8 0-1.3.3-1.6.8s-.5 1.4-.5 2.5v3.8zm19.3 0v-1c-.4.4-.8.7-1.3.9s-1 .3-1.5.3c-1.3 0-2.3-.4-3.2-1.3-.8-.9-1.3-1.9-1.3-3.2 0-.6.1-1.2.3-1.7s.5-1 .9-1.4.9-.8 1.4-1 1.1-.3 1.7-.3c.6 0 1.1.1 1.6.3.5.2.9.5 1.3.9v-1h1.5v8.5h-1.4zm-5.7-4.3c0 .9.3 1.6.9 2.2.6.6 1.3.9 2.1.9.7 0 1.4-.3 2-.9.6-.6.9-1.3.9-2 0-.8-.3-1.5-.9-2.1s-1.2-.9-2-.9-1.5.3-2.1.8c-.7.5-.9 1.2-.9 2z"/></g><g class="st0"><path class="st1" d="M67.1 15.8h1.6c.2.4.5.7.9.9.4.2.9.3 1.4.3.9 0 1.6-.3 2.1-.8s.8-1.2.8-2.1V14c-.4.4-.8.7-1.3.9s-1 .3-1.5.3c-1.3 0-2.3-.4-3.2-1.3-.8-.9-1.3-1.9-1.3-3.2 0-.6.1-1.2.3-1.7.2-.5.5-1 .9-1.4s.9-.8 1.4-1 1.1-.3 1.7-.3 1.1.1 1.6.3c.5.2.9.5 1.4.9v-1h1.5v7.1c0 1.5-.4 2.6-1.1 3.5-.8.8-1.8 1.3-3.2 1.3-1 0-1.8-.2-2.5-.7s-1.2-1.1-1.5-1.9zm1-5c0 .9.3 1.6.9 2.2.6.6 1.3.9 2.1.9.7 0 1.4-.3 2-.9.6-.6.9-1.3.9-2 0-.8-.3-1.5-.9-2.1s-1.2-.9-2-.9-1.5.3-2.1.8c-.6.5-.9 1.2-.9 2z"/></g><g class="st0"><path class="st1" d="M83.2 11.4c.1.7.4 1.3 1 1.7.5.4 1.1.7 1.8.7.5 0 1-.1 1.4-.4s.7-.6 1-1H90c-.4.9-.9 1.7-1.6 2.2s-1.5.8-2.5.8c-.6 0-1.2-.1-1.7-.3s-1-.6-1.4-1-.7-.9-.9-1.4c-.1-.3-.2-.6-.2-.8s-.1-.6-.1-.9c0-.6.1-1.1.3-1.7.2-.5.5-1 .9-1.4.4-.5.9-.8 1.4-1s1.1-.3 1.7-.3c.7 0 1.4.2 2.1.5s1.2.8 1.6 1.5l.3.6c.1.2.2.4.2.7.1.5.2 1 .2 1.6v.2h-7.1v-.3zm5.4-1.3c-.2-.7-.5-1.2-1-1.6-.5-.4-1-.6-1.7-.6s-1.2.2-1.7.6-.8.9-1 1.6h5.4z"/></g><g class="st0"><path class="st2" d="M10.6 52.2H2.4V22.8h9.5c4.4 0 8 1.4 10.7 4.1s4.1 6.3 4.1 10.7c0 2.5-.5 4.8-1.5 6.9-1 2.1-2.5 3.8-4.4 5.1-1.3.9-2.7 1.6-4.1 2-1.6.4-3.6.6-6.1.6zm-4.1-3.9h5.2c3.3 0 5.9-1 7.8-2.9s2.9-4.5 2.9-7.8c0-3.4-1-6-3-7.9s-4.8-2.9-8.4-2.9H6.5v21.5z"/></g><g class="st0"><path class="st2" d="M32.4 43.6l-3.3 8.5h-4.5l11.5-29.4h4.1l11.5 29.4H47l-3.2-8.6-11.4.1zm9.9-4.1l-4.1-11.1L34 39.5h8.3z"/></g><g class="st0"><path class="st2" d="M59.9 52.2h-4.3V26.8h-5.5v-4h15.3v4h-5.5v25.4z"/></g><g class="st0"><path class="st2" d="M71.1 43.6l-3.3 8.5h-4.5l11.5-29.4H79l11.5 29.4h-4.7l-3.2-8.6-11.5.1zm9.9-4.1l-4.1-11.1-4.2 11.1H81z"/></g><g class="st0"><path class="st3" d="M129.4 8.1c2.9 0 5.1.6 6.6 1.9s2.3 3.1 2.3 5.5c0 1.1-.2 2.1-.7 3s-1.2 1.6-2.2 2.1c1.3.4 2.4 1.1 3.1 2.3.8 1.1 1.2 2.5 1.2 4.1 0 1.3-.2 2.5-.7 3.6s-1.1 2-2 2.8c-.8.7-1.7 1.2-2.8 1.5s-2.5.5-4.4.5h-6.3V8.1h5.9zm-2 11.4h1.3c2 0 3.5-.3 4.3-.9.9-.6 1.3-1.6 1.3-3.1 0-1.2-.4-2.2-1.2-2.8s-2-.9-3.6-.9h-2.1v7.7zm0 12.2h3.1c1.8 0 3.1-.3 4-1s1.3-1.7 1.3-3.2-.5-2.7-1.4-3.5-2.2-1.2-4-1.2h-3.1l.1 8.9zM143 8.1h3.9v17.3c0 2.5.4 4.2 1.1 5.1.7 1 2 1.4 3.8 1.4 1.7 0 2.9-.5 3.6-1.5.7-1 1.1-2.7 1.1-5.1V8.1h3.9v17.3c0 .9 0 1.7-.1 2.4 0 .7-.1 1.3-.2 1.8-.2 1-.5 1.8-1 2.6-.8 1.2-1.8 2.1-3 2.8-1.2.6-2.6.9-4.2.9-.9 0-1.7-.1-2.4-.2s-1.4-.4-2-.7c-1.2-.6-2.2-1.5-3.1-2.8-.5-.7-.8-1.5-1-2.4s-.3-2.4-.3-4.4V8.1h-.1zm25.8 27.2h-3.9V8.1h3.9v27.2zm17.6 0h-12.9V8.1h3.9v23.5h8.9v3.7h.1zm10.6 0h-7.6V8.1h8.8c4.1 0 7.4 1.3 9.9 3.8s3.8 5.8 3.8 9.9c0 2.3-.5 4.4-1.4 6.4-.9 1.9-2.3 3.5-4.1 4.7-1.2.9-2.5 1.5-3.8 1.9-1.4.4-3.2.5-5.6.5zm-3.8-3.6h4.8c3 0 5.4-.9 7.2-2.6 1.8-1.8 2.6-4.2 2.6-7.2 0-3.1-.9-5.6-2.8-7.4-1.9-1.8-4.5-2.7-7.7-2.7h-4.1v19.9z"/></g><g class="st0"><path class="st3" d="M126.3 51.8h-1.5v-8.5h1.4v1c.2-.4.5-.6.9-.8.3-.2.7-.3 1.1-.3v1.6c-.3 0-.6.1-.9.2s-.5.3-.6.4c-.3.3-.4.9-.4 1.7v4.7z"/></g><g class="st0"><path class="st3" d="M130.4 48.1c.1.7.4 1.3 1 1.7.5.4 1.1.7 1.8.7.5 0 1-.1 1.4-.4.4-.2.7-.6 1-1h1.7c-.4.9-.9 1.7-1.6 2.2-.7.5-1.5.8-2.5.8-.6 0-1.2-.1-1.7-.3s-1-.6-1.4-1-.7-.9-.9-1.4c-.1-.3-.2-.6-.2-.8s-.1-.6-.1-.9c0-.6.1-1.1.3-1.7.2-.5.5-1 .9-1.4.4-.5.9-.8 1.4-1s1.1-.3 1.7-.3c.7 0 1.4.2 2.1.5s1.2.8 1.6 1.5l.3.6c.1.2.2.4.2.7.1.5.2 1 .2 1.6v.2h-7.2v-.3zm5.4-1.4c-.2-.7-.5-1.2-1-1.6-.5-.4-1-.6-1.7-.6s-1.2.2-1.7.6c-.5.4-.8.9-1 1.6h5.4zm3 5.1V40.5h1.5v11.2l-1.5.1z"/></g><g class="st0"><path class="st3" d="M149 51.8v-1c-.4.4-.8.7-1.3.9s-1 .3-1.5.3c-1.3 0-2.3-.4-3.2-1.3-.8-.9-1.3-1.9-1.3-3.2 0-.6.1-1.2.3-1.7s.5-1 .9-1.4.9-.8 1.4-1 1.1-.3 1.7-.3c.6 0 1.1.1 1.6.3s.9.5 1.3.9v-1h1.5v8.5H149zm-5.7-4.3c0 .9.3 1.6.9 2.2.6.6 1.3.9 2.1.9.7 0 1.4-.3 2-.9.6-.6.9-1.3.9-2 0-.8-.3-1.5-.9-2.1s-1.2-.9-2-.9-1.5.3-2.1.8c-.6.5-.9 1.1-.9 2z"/></g><g class="st0"><path class="st3" d="M152.9 51.8v-7.1h-1.2v-1.4h1.2v-2.7h1.5v2.7h1.2v1.4h-1.2v7.1h-1.5zm5.4-9.5h-1.5v-1.8h1.5v1.8zm-1.6 9.5v-8.5h1.5v8.5h-1.5zm2.9-4.3c0-.6.1-1.2.3-1.7s.5-1 .9-1.4.9-.8 1.4-1 1.1-.4 1.7-.4c.6 0 1.2.1 1.7.3s1 .5 1.4 1c.4.4.7.9 1 1.4s.3 1.1.3 1.7c0 .6-.1 1.2-.3 1.7s-.5 1-.9 1.4c-.2.2-.4.4-.7.6s-.5.3-.8.5c-.5.2-1.1.4-1.7.4-.6 0-1.2-.1-1.7-.3s-1-.6-1.4-1-.7-.9-.9-1.5c-.1-.3-.2-.6-.2-.8-.1-.3-.1-.6-.1-.9zm1.6 0c0 .8.3 1.6.8 2.1.5.6 1.2.8 2 .8s1.4-.3 2-.9c.5-.6.8-1.3.8-2.1 0-.9-.3-1.6-.8-2.1-.5-.6-1.2-.8-2-.8s-1.4.3-2 .9-.8 1.3-.8 2.1zm10 4.3h-1.5v-8.5h1.5v1c.3-.4.7-.7 1.1-.8.4-.2.8-.3 1.3-.3 1.1 0 2 .3 2.6 1s.9 1.6.9 2.8v4.8h-1.5v-4.5c0-.9-.2-1.6-.5-2s-.9-.7-1.6-.7c-.8 0-1.3.3-1.6.8s-.5 1.4-.5 2.5v3.9h-.2zm6.9-2.8h1.4c0 .4.1.8.4 1.1.2.3.6.4.9.4.3 0 .6-.1.9-.3s.3-.5.3-.8-.1-.5-.2-.7c-.2-.2-.4-.4-.8-.5l-.5-.2c-.6-.2-1-.4-1.2-.5-.3-.2-.5-.5-.7-.8s-.2-.7-.2-1.1c0-.7.2-1.3.7-1.8s1.1-.7 1.8-.7 1.3.2 1.7.6c.2.2.4.5.5.8s.2.6.2 1H182c0-.1 0-.3-.1-.4-.1-.1-.1-.2-.2-.3-.2-.2-.4-.3-.7-.3s-.5.1-.7.3-.3.4-.3.7c0 .5.4.9 1.2 1.2l.5.2c.6.3 1.1.6 1.4 1 .3.4.4.9.4 1.6 0 .8-.3 1.4-.8 1.9s-1.2.8-1.9.8c-.8 0-1.4-.3-1.9-.8-.3-.3-.4-.6-.6-1-.1-.5-.2-.9-.2-1.4zm8.3 2.8h-1.5V40.5h1.5v3.7c.2-.4.6-.6 1-.8s.9-.3 1.4-.3c1 0 1.8.3 2.4 1 .6.7.9 1.6.9 2.8v4.9h-1.5v-4.4c0-.9-.2-1.6-.5-2.1s-.8-.7-1.5-.7c-.4 0-.8.1-1.1.3s-.6.5-.7.8c-.1.2-.2.4-.2.8-.1.3-.1.8-.1 1.5l-.1 3.8zm8.9-9.5h-1.5v-1.8h1.5v1.8zm-1.5 9.5v-8.5h1.5v8.5h-1.5zm4.8-1.1v3.8h-1.5V43.3h1.5v1c.4-.4.8-.7 1.3-.9s1-.3 1.5-.3c1.3 0 2.3.4 3.2 1.3s1.3 1.9 1.3 3.2c0 .6-.1 1.2-.3 1.7s-.5 1-.9 1.4c-.4.5-.9.8-1.4 1s-1.1.3-1.7.3c-.6 0-1.1-.1-1.6-.3-.5-.2-1-.6-1.4-1zm0-3.2c0 .8.3 1.5.8 2.1.6.6 1.2.9 2 .9s1.5-.3 2.1-.9.9-1.3.9-2.1c0-.9-.3-1.6-.8-2.2-.6-.6-1.3-.9-2.1-.9-.7 0-1.4.3-2 .9s-.9 1.4-.9 2.2zm8.1 1.5h1.4c0 .4.1.8.4 1.1.2.3.6.4.9.4.3 0 .6-.1.9-.3s.3-.5.3-.8-.1-.5-.2-.7c-.2-.2-.4-.4-.8-.5l-.5-.2c-.6-.2-1-.4-1.1-.5-.3-.2-.5-.5-.7-.8s-.2-.7-.2-1.1c0-.7.2-1.3.7-1.8s1.1-.7 1.8-.7 1.3.2 1.7.6c.2.2.4.5.5.8s.2.6.2 1h-1.5c0-.1 0-.3-.1-.4-.1-.1-.1-.2-.2-.3-.2-.2-.4-.3-.7-.3s-.5.1-.7.3-.3.4-.3.7c0 .5.4.9 1.2 1.2l.5.2c.6.3 1.1.6 1.4 1 .3.4.4.9.4 1.6 0 .8-.3 1.4-.8 1.9s-1.2.8-1.9.8c-.8 0-1.4-.3-1.9-.8-.3-.3-.4-.6-.6-1 0-.5-.1-.9-.1-1.4z"/></g><path fill="none" stroke="#25b34b" stroke-width="3" d="M110.2 4.8v47.6"/></svg>