<svg id="Layer_1" xmlns="http://www.w3.org/2000/svg" viewBox="0 0 200.3 201"><style>.st0{enable-background:new}.st1{fill:#6d7dbd}.st2{fill:#4d69b1}.st3{fill:#58595b}.st4{fill:none;stroke:#25b24b;stroke-width:4}</style><title>Highland - rackcard FINAL</title><g class="st0"><path class="st1" d="M9.5 8.9h3v.6c.1-.1.2-.1.3-.2.1-.1.2-.1.3-.2.2-.1.3-.1.5-.2s.4-.1.6-.2c.2 0 .4-.1.6-.1h2.4c.2 0 .5.1.7.1.2.1.4.1.7.2s.4.2.6.2l.6.3c.2.1.4.3.6.4.1.1.3.2.4.3l.4.4.3-.3.3-.3c.1-.1.3-.2.4-.3.1-.1.3-.2.5-.3.2-.1.3-.2.5-.3.2-.1.4-.2.5-.2.2-.1.4-.1.5-.2.2-.1.4-.1.5-.1h2.5c.1 0 .2 0 .3.1.1 0 .2 0 .3.1.2.1.4.1.6.2.4.1.6.2.8.3l.6.3c.2.1.4.3.6.4.1.1.2.2.3.2s.2.2.3.2l.3.3.3.3c.1.1.3.3.4.5.1.2.2.3.3.5.1.2.2.4.2.5.1.2.1.4.2.6 0 .1 0 .2.1.3s0 .2.1.3v10.3h-3.1V13.3c0-.1-.1-.2-.1-.3 0-.1-.1-.2-.1-.3 0 0 0-.1-.1-.1 0 0 0-.1-.1-.2 0 0 0-.1-.1-.1 0 0 0-.1-.1-.1-.1-.1-.2-.3-.3-.4l-.4-.4c-.1-.1-.3-.2-.4-.3-.1-.1-.3-.2-.4-.2-.1-.1-.3-.1-.5-.2s-.3-.1-.5-.1h-.8c-.1 0-.3.1-.5.1-.2.1-.3.1-.5.2-.1.1-.3.2-.4.2-.1.1-.3.2-.4.3l-.3.3c-.1.1-.2.2-.3.4-.1.1-.1.2-.2.2-.1.1-.1.2-.1.3 0 0 0 .1-.1.1 0 0 0 .1-.1.1v.3c0 .1 0 .2-.1.3 0 .1 0 .2-.1.3v10.2h-3.1V12.1c-.1-.1-.2-.3-.3-.4-.1-.1-.2-.2-.4-.3-.1-.1-.3-.2-.4-.3-.1-.1-.3-.2-.4-.3-.1-.1-.3-.2-.5-.2-.2-.1-.3-.1-.5-.1h-.8c-.1 0-.3.1-.5.1-.2.1-.3.1-.5.2-.1.1-.3.2-.4.2-.1.1-.3.2-.4.3-.1.1-.2.2-.4.3-.1.1-.2.2-.3.4-.1.1-.2.3-.2.4s-.1.3-.2.4c-.1.1-.1.3-.1.4 0 .1-.1.3-.1.4v10.1h-3.1V8.9z"/></g><g class="st0"><path class="st1" d="M61.3 23.9h-3.1v-1.3c-.2.2-.4.4-.6.5-.2.2-.5.3-.7.4-.3.1-.5.2-.8.3s-.6.2-.9.2c-.3.1-.6.1-.9.1-.3 0-.6.1-.9.1h-2.7c-.2 0-.4-.1-.6-.1-.2-.1-.4-.1-.6-.2l-.6-.3-.6-.3c-.2-.1-.4-.3-.6-.4-.2-.1-.4-.3-.6-.5-.2-.2-.4-.3-.6-.5-.2-.2-.4-.4-.5-.6l-.4-.3v-.2s0-.1-.1-.1l-.1-.1s0-.1-.1-.1c0 0 0-.1-.1-.2s-.1-.2-.2-.4c-.1-.1-.1-.3-.2-.4-.1-.1-.1-.3-.2-.5s-.1-.3-.1-.5c-.1-.2-.1-.3-.1-.5s-.1-.4-.1-.5v-2c0-.2.1-.5.1-.7.1-.2.1-.5.2-.7.1-.2.2-.5.2-.7.1-.2.2-.4.3-.7.1-.2.2-.4.4-.6.1-.2.3-.4.4-.6.1-.2.3-.4.5-.5.2-.2.4-.4.6-.5.2-.2.4-.3.6-.5s.4-.3.6-.4c.2-.1.5-.3.7-.4.2-.1.5-.2.7-.3.3-.1.5-.2.8-.2.3-.1.6-.1.9-.1.3 0 .6-.1.9-.1h1.3c.3 0 .6 0 .9.1.3 0 .6.1.8.2.3.1.5.2.8.2.3.1.5.2.8.3.3.1.5.3.7.4.2.2.4.3.6.5V8.9h3.1v15zm-9.4-13.2c-.3.1-.5.2-.8.2-.3.1-.7.3-1 .5s-.6.5-.9.8-.5.6-.8.9c-.2.3-.4.7-.5 1-.1.3-.3.7-.3 1.1-.1.4-.1.8-.1 1.2 0 .4 0 .8.1 1.2.1.4.2.8.3 1.1.1.3.3.7.6 1 .2.3.5.6.8.9.3.3.6.5 1 .7.3.2.7.4 1 .5.3.1.6.2.8.2.3.1.6.1.9.1.3 0 .6-.1.9-.2.3-.1.6-.2.8-.3.3-.1.7-.3 1-.5.3-.2.6-.5.9-.8.3-.3.5-.6.8-.9.2-.3.4-.6.5-1 .1-.3.3-.7.3-1 .1-.4.1-.8.1-1.2 0-.4 0-.8-.1-1.2-.1-.4-.2-.8-.3-1.1-.1-.4-.3-.7-.5-1-.2-.3-.5-.6-.7-.9-.3-.3-.6-.5-.9-.8-.3-.2-.6-.4-1-.5l-.9-.3c-.3-.1-.6-.1-1-.1-.4.3-.7.4-1 .4z"/></g><g class="st0"><path class="st1" d="M73.2 8.9h3v1c.1-.1.3-.2.5-.4.2-.1.3-.2.5-.3.2-.1.4-.2.6-.2.2-.1.4-.2.6-.2.2-.1.4-.1.7-.1h2.6c.2 0 .5.1.7.1.3.1.5.1.7.2.2.1.5.2.7.3.2.1.5.2.7.4.2.1.4.3.6.4.2.1.4.3.6.5.2.2.4.4.5.6.1.1.1.2.2.3.1.1.1.2.2.3.1.1.1.2.2.3.1.1.1.2.2.3s.1.2.1.3c0 .1.1.2.1.3 0 .1.1.2.1.3 0 .1 0 .2.1.3 0 .2.1.4.1.6 0 .2.1.4.1.6v9.3h-3.1v-9.8c0-.1 0-.3-.1-.5 0-.2-.1-.3-.2-.4-.2-.3-.2-.4-.3-.5-.1-.1-.2-.3-.3-.4l-.4-.4-.4-.4c-.1-.1-.3-.2-.4-.3-.2-.1-.3-.2-.5-.3-.2-.1-.4-.2-.5-.2-.2-.1-.4-.1-.5-.1h-.8c-.1 0-.2 0-.4.1-.1 0-.2.1-.3.1-.2.1-.3.1-.5.2s-.3.1-.5.2c-.1.1-.3.2-.4.3-.1.1-.3.2-.4.3-.1.1-.2.2-.4.3-.1.1-.2.2-.3.4 0 .1-.1.1-.1.2s-.1.1-.1.2-.1.1-.1.2-.1.1-.1.2c-.1.1-.1.3-.1.4s-.1.2-.1.4c0 .1 0 .3-.1.4v1.8-.5 7.9h-3.1v-15z"/></g><g class="st0"><path class="st1" d="M116 23.9h-3.1v-1.3c-.2.2-.4.4-.6.5-.2.2-.5.3-.7.4-.3.1-.5.2-.8.3-.3.1-.5.1-.8.2-.3.1-.6.1-.9.1-.3 0-.6.1-.9.1h-2.7c-.2 0-.4-.1-.6-.1-.2-.1-.4-.1-.6-.2l-.6-.3-.6-.3c-.2-.1-.4-.3-.6-.4-.2-.1-.4-.3-.6-.5-.2-.2-.4-.3-.6-.5-.2-.2-.4-.4-.5-.6l-.1-.1V21s0-.1-.1-.1l-.1-.1s0-.1-.1-.1c0 0 0-.1-.1-.2s-.1-.2-.2-.4c-.1-.1-.1-.3-.2-.4-.1-.1-.1-.3-.2-.5s-.1-.3-.1-.5c-.1-.2-.1-.3-.1-.5s-.1-.4-.1-.5v-2c0-.2.1-.5.1-.7.1-.2.1-.5.2-.7.1-.2.2-.5.2-.7.1-.2.2-.4.3-.7.1-.2.2-.4.4-.6.1-.2.3-.4.4-.6.1-.2.3-.4.5-.5.2-.2.4-.4.6-.5.2-.2.4-.3.6-.5s.4-.3.6-.4c.2-.1.5-.3.7-.4.2-.1.5-.2.7-.3.3-.1.5-.2.8-.2.3-.1.6-.1.9-.1.3 0 .6-.1.9-.1h1.3c.3 0 .6 0 .9.1.3 0 .6.1.8.2.3.1.5.2.8.2.3.1.5.2.8.3.3.1.5.3.7.4.2.2.4.3.6.5V8.9h3.1v15zm-9.3-13.2c-.3.1-.5.2-.8.2-.3.1-.7.3-1 .5s-.6.5-.9.8-.5.6-.8.9c-.2.3-.4.7-.5 1-.1.3-.3.7-.3 1.1-.1.4-.1.8-.1 1.2 0 .4 0 .8.1 1.2.1.4.2.8.3 1.1.1.3.3.7.6 1 .2.3.5.6.8.9.3.3.6.5 1 .7.3.2.7.4 1 .5.3.1.6.2.8.2.3.1.6.1.9.1.3 0 .6-.1.9-.2.3-.1.6-.2.8-.3.3-.1.7-.3 1-.5.3-.2.6-.5.9-.8.3-.3.5-.6.8-.9.2-.3.4-.6.5-1 .1-.3.3-.7.3-1 .1-.4.1-.8.1-1.2 0-.4 0-.8-.1-1.2-.1-.4-.2-.8-.3-1.1-.1-.4-.3-.7-.5-1-.2-.3-.5-.6-.7-.9-.3-.3-.6-.5-.9-.8-.3-.2-.6-.4-1-.5l-.9-.3c-.3-.1-.6-.1-1-.1-.5.3-.8.4-1 .4zm37.4 11v3s0 .1-.1.2-.1.1-.1.2c0 0 0 .1-.1.1v.1s0 .1-.1.1c0 0 0 .1-.1.1 0 .1-.1.1-.1.2s-.1.1-.1.2-.1.1-.1.2-.1.1-.1.2c0 0 0 .1-.1.1l-.1.1s-.1 0-.1.1c0 0 0 .1-.1.1 0 0 0 .1-.1.1l-.1.1s-.1 0-.1.1l-.1.1c-.1.2-.3.3-.5.5-.2.1-.3.3-.5.4-.2.1-.4.3-.6.4l-.6.3c-.1.1-.2.1-.3.2-.1 0-.2.1-.3.1-.1 0-.2.1-.3.1-.1 0-.2.1-.3.1-.2.1-.4.1-.7.2-.2.1-.4.1-.7.1h-2.5c-.4 0-.8-.1-1.2-.1l-1.2-.3c-.4-.1-.8-.3-1.1-.5-.4-.2-.7-.4-1.1-.7-.3-.3-.7-.5-1-.8-.3-.3-.6-.6-.8-.9-.2-.3-.4-.7-.6-1-.2-.4-.3-.8-.4-1.2h3.1c.1.3.3.5.5.8.2.2.3.5.5.7l.6.6c.2.2.4.4.7.5.2.1.5.3.7.4s.5.2.8.3c.2.1.4.1.6.1s.4.1.6.1h.3c.1 0 .2 0 .3-.1.1 0 .2 0 .3-.1.1 0 .2 0 .3-.1.2-.1.4-.2.6-.2l.6-.3c.2-.1.4-.2.6-.4.2-.1.4-.3.5-.4.1-.1.3-.3.4-.5.1-.2.3-.4.4-.6 0-.1.1-.1.1-.2s.1-.1.1-.2V24l.1-.1.1-.1v-.2l.1-.2v-1.3c-.1.1-.3.2-.4.4-.2.1-.3.2-.5.3-.2.1-.5.2-.7.3-.2.1-.5.2-.7.3-.2.1-.5.1-.7.2-.2.1-.5.1-.8.1h-2.1.3-.1c-.2 0-.5-.1-.7-.1-.2 0-.5-.1-.7-.1-.2-.1-.5-.1-.7-.2-.2-.1-.5-.1-.7-.2-.2-.1-.5-.2-.7-.3-.2-.1-.4-.2-.6-.4-.2-.1-.4-.3-.5-.4-.2-.1-.4-.3-.5-.5l-.6-.6c-.2-.2-.3-.4-.5-.6s-.3-.4-.4-.7c-.1-.2-.2-.5-.3-.7-.1-.2-.2-.5-.2-.7-.1-.2-.1-.5-.2-.8-.1-.3-.1-.5-.1-.8v-1.9c0-.2.1-.4.1-.5 0-.2.1-.4.1-.5 0-.2.1-.3.1-.5.1-.2.1-.3.2-.4.1-.1.1-.3.2-.4.1-.1.1-.2.2-.4 0 0 0-.1.1-.1 0 0 0-.1.1-.1v-.6s0-.1.1-.1l.1-.1c.3-.3.5-.6.8-.9.2-.3.5-.5.8-.7.3-.2.5-.4.8-.5.3-.2.5-.3.8-.4.3-.1.5-.2.8-.3.3-.1.5-.2.8-.2.3-.1.5-.1.8-.1.3 0 .5-.1.8-.1h1.5c.3 0 .6 0 .9.1s.6.1.8.2c.3.1.5.2.8.3s.5.2.8.4c.3.1.5.3.7.4.2.2.4.3.6.5v-.8h3.1v12.8zm-9.4-11c-.3.1-.5.2-.7.2-.3.1-.6.3-.9.5s-.6.5-.8.8c-.3.3-.5.6-.7.9-.2.3-.4.6-.5 1-.1.3-.2.7-.3 1s-.1.7-.1 1.1c0 .4 0 .8.1 1.2.1.4.2.8.3 1.1.1.3.3.7.5 1 .2.3.4.6.7.9.3.3.5.6.9.8.3.2.6.4 1 .6.3.1.5.2.8.3.3.1.6.1.9.1h.3c.1 0 .2 0 .3-.1.2 0 .4-.1.5-.1.2 0 .4-.1.5-.2.2-.1.3-.2.5-.2.2-.1.3-.2.5-.3.1-.1.3-.2.5-.4.2-.1.3-.3.5-.4l.3-.3c.1-.1.2-.2.3-.4.1-.1.2-.3.2-.4s.1-.3.2-.4c.1-.1.1-.3.2-.4.1-.1.1-.3.2-.4 0-.1.1-.3.1-.4 0-.1.1-.3.1-.4v-.1l.1-.2v-.6c0-.4 0-.8-.1-1.2s-.2-.8-.3-1.1c-.1-.3-.3-.7-.5-1-.2-.3-.5-.6-.8-.9-.3-.3-.6-.5-.9-.7s-.7-.4-1-.5l-.9-.3c-.3-.1-.6-.1-1-.1-.5-.1-.8 0-1 0z"/></g><g class="st0"><path class="st1" d="M158.6 17.1c0 .4.1.7.2 1.1.1.3.2.7.3 1 .1.3.3.6.5.9.2.3.5.6.8.8.3.3.6.5.9.7.3.2.6.4.9.5.3.1.5.2.8.2.2.1.5.1.8.1.2 0 .4 0 .6-.1s.4-.1.5-.1c.3-.1.5-.2.8-.3.3-.1.5-.2.8-.4.3-.1.5-.3.7-.5.2-.2.4-.4.6-.5.2-.2.3-.4.5-.6.1-.2.3-.5.4-.7l2.1-.1h1.1c-.1.4-.3.8-.5 1.1-.2.3-.4.7-.6 1s-.5.6-.8.9c-.3.3-.6.5-1 .8-.3.2-.7.5-1.1.6s-.7.3-1.1.5c-.4.1-.7.2-1.1.2s-.8.1-1.2.1h-1.1c-.5 0-1.1-.1-1.6-.2s-1-.2-1.5-.4-.9-.4-1.3-.7c-.4-.3-.8-.6-1.2-1-.4-.4-.7-.8-1-1.2-.3-.4-.5-.9-.7-1.3-.2-.5-.3-1-.4-1.5-.1-.5-.1-1-.1-1.6 0-.5 0-1 .1-1.6.1-.5.2-1 .4-1.4.2-.5.4-.9.7-1.3.3-.4.6-.8 1-1.2.4-.4.8-.7 1.2-1 .4-.3.9-.5 1.3-.7.5-.2 1-.3 1.5-.4s1-.1 1.6-.1h1.1c.3 0 .6 0 .9.1.3 0 .6.1.9.1.3.1.5.2.8.2.3.1.5.2.8.3.3.1.5.3.8.4.2.2.5.3.7.5l.6.6.6.6c.2.2.3.4.5.7.1.2.3.4.4.7.1.1.1.2.2.3.1.1.1.2.1.3 0 .1.1.2.1.4 0 .1.1.2.1.3.1.2.1.5.2.7 0 .2.1.5.1.7 0 .1 0 .3.1.5 0 .2 0 .3.1.5v.5h-13.9zm10.5-1.8l-.3-.9c-.1-.3-.3-.6-.4-.9-.2-.3-.4-.5-.6-.8-.2-.3-.5-.5-.7-.7l-.9-.6c-.3-.2-.6-.3-.9-.4-.2-.1-.4-.2-.7-.2-.2-.1-.5-.1-.7-.1-.3 0-.5.1-.8.1s-.5.1-.7.2c-.3.1-.6.2-.9.4l-.9.6c-.3.2-.5.5-.8.7-.2.3-.4.5-.6.8-.2.3-.3.6-.4.9-.1.3-.2.6-.3 1h10.6z"/></g><g class="st0"><path class="st2" d="M7.4 35.2h17.2c1 0 1.9.1 2.8.2.9.1 1.9.2 2.8.3.9.1 1.8.3 2.7.4.9.1 1.8.3 2.7.5.9.2 1.7.5 2.6.8.8.3 1.7.7 2.5 1.1.8.4 1.6.8 2.4 1.3.8.5 1.6 1.1 2.4 1.7.8.6 1.5 1.3 2.2 2 .7.7 1.3 1.4 1.9 2.2.6.8 1.1 1.6 1.7 2.4.5.8 1 1.7 1.4 2.6s.8 1.8 1.1 2.7c.3.9.6 1.8.8 2.8.1.5.2 1 .3 1.4.1.5.2.9.2 1.4 0 .5.1 1 .1 1.4v1.4c0 1 0 1.9-.1 2.8-.1.9-.2 1.9-.4 2.8-.2.9-.4 1.8-.7 2.7-.3.9-.6 1.7-1 2.6-.4.9-.8 1.7-1.3 2.5s-.9 1.6-1.5 2.3c-.5.8-1.1 1.5-1.7 2.2-.6.7-1.3 1.3-1.9 1.9-.8.7-1.6 1.4-2.4 2-.8.6-1.7 1.1-2.5 1.6-.9.5-1.7.9-2.6 1.2-.9.3-1.7.6-2.6.8-.9.2-1.8.4-2.7.5-.9.2-1.8.3-2.8.4-.9 0-1.9.1-2.9.1s-2 .1-3 .1H7.4V35.2zm12.1 48.3c.9 0 1.7.1 2.6 0s1.7-.1 2.6-.1c.8-.1 1.6-.2 2.5-.3l2.4-.3c.8-.1 1.6-.3 2.3-.5.7-.2 1.5-.5 2.3-.9.8-.3 1.5-.7 2.3-1.2.7-.5 1.5-1 2.3-1.6.7-.5 1.3-1.1 1.9-1.7.6-.6 1.1-1.2 1.6-1.8.5-.6 1-1.3 1.4-1.9.4-.7.8-1.4 1.1-2.2.3-.7.6-1.5.9-2.2.2-.8.5-1.5.6-2.3.2-.8.3-1.6.4-2.4.1-.8.2-1.6.2-2.5 0-.9-.1-1.7-.2-2.5s-.2-1.6-.4-2.4c-.2-.8-.4-1.6-.6-2.3-.2-.7-.5-1.4-.9-2.2-.3-.7-.7-1.3-1.1-2-.4-.7-.9-1.3-1.4-1.9-.5-.7-1-1.3-1.7-1.9-.6-.6-1.3-1.1-1.9-1.7-.8-.5-1.5-1-2.3-1.5-.7-.5-1.5-.8-2.3-1.2-.8-.4-1.5-.7-2.3-.9-.7-.2-1.5-.4-2.3-.5l-2.4-.3c-.8-.1-1.7-.2-2.5-.2-.8-.1-1.7-.2-2.5-.2h-2.6l-4-.1v43.4h4z"/></g><g class="st0"><path class="st2" d="M78.5 35.2h8.8L110 88.4h-8.6l-7.7-17.8H71.8l-7.7 17.8h-8.6l23-53.2zm13.1 30.5l-8.8-21-8.9 21h17.7zm30.5-25.6h-12.2v-4.8h32.5v4.8h-12.1v48.3h-8.2V40.1z"/></g><g class="st0"><path class="st2" d="M164.5 35.2h8.8l22.8 53.1h-8.6l-7.7-17.8H158l-7.7 17.8h-8.6l22.8-53.1zm13.2 30.5l-8.8-21-8.9 21h17.7z"/></g><g class="st0"><path class="st3" d="M5.1 117.1h14.2c.2 0 .5.1.7.1h.8c.2 0 .5.1.7.1h.7c.5 0 1 .1 1.5.1s1 .1 1.5.2c.2 0 .4.1.7.1.2 0 .5.1.7.1.2.1.4.2.7.2.2.1.4.1.7.2.5.2.9.4 1.4.6.4.2.9.5 1.3.7.4.3.9.6 1.3 1 .4.3.8.7 1.1 1.1.4.4.7.8 1 1.2.3.4.6.8.9 1.3.3.4.5.9.7 1.4.2.5.4 1 .5 1.5l.3 1.5c.1.5.1 1 .1 1.6 0 .5 0 1.1-.1 1.6l-.3 1.5c-.1.4-.3.9-.5 1.3s-.4.9-.6 1.3c-.3.4-.5.8-.8 1.2-.3.4-.6.7-.9 1.1-.3.3-.7.6-1.1 1-.4.3-.8.7-1.2 1l1.8.9c.6.4 1.1.7 1.6 1.1.5.4 1 .8 1.4 1.3l1.2 1.5c.4.6.7 1.2.9 1.7.3.6.5 1.2.7 1.8.2.6.3 1.3.4 1.9.1.7.1 1.4.1 2.1 0 .6 0 1.1-.1 1.7-.1.5-.2 1.1-.3 1.6-.1.5-.3 1.1-.5 1.6s-.4 1-.7 1.5l-.9 1.5c-.3.4-.7.9-1 1.3-.4.4-.8.8-1.2 1.1-.4.4-.8.7-1.3 1l-.3.2-.3.2-.3.1-.3.1c-.2.1-.5.3-.7.4-.2.1-.5.2-.7.3-.2.1-.4.2-.7.2-.2.1-.4.1-.7.2-.3 0-.5.1-.7.2-.2.1-.4.1-.7.2-.2 0-.5.1-.7.1-.2 0-.5.1-.7.1-.2 0-.5.1-.7.1H25c-.3 0-.5.1-.8.1H5.1v-49.1zM18 138.2v.1h1.2s.1 0 .2-.1h.8c.1 0 .3-.1.4-.1h.4c.1 0 .3-.1.4-.1.3 0 .5-.1.8-.2.3-.1.5-.1.8-.2.1 0 .3-.1.4-.2.1-.1.3-.1.4-.2.1-.1.2-.2.3-.2.1-.1.3-.1.4-.2.3-.1.5-.3.8-.5.2-.2.5-.4.7-.6.2-.2.4-.5.7-.7.2-.2.4-.5.6-.8.2-.3.3-.5.5-.8.1-.3.3-.6.4-.9.1-.3.2-.6.2-1s.1-.7.2-1v-.8c0-.3-.1-.6-.2-.9-.1-.3-.1-.6-.2-.9-.1-.3-.3-.6-.4-.9-.1-.3-.3-.6-.5-.9l-.6-.9c-.2-.3-.4-.5-.6-.7-.2-.2-.5-.4-.7-.6-.2-.2-.5-.4-.8-.6l-.6-.3-.6-.3c-.1 0-.2-.1-.3-.1-.1 0-.2-.1-.4-.1-.1 0-.2 0-.3-.1-.1 0-.2-.1-.4-.1s-.5-.1-.7-.1c-.2 0-.5-.1-.7-.1-.2 0-.5-.1-.7-.1-.2 0-.5-.1-.7-.1h-.3.1-3.4l-3.1-.1v16.5H18zm.7 23.7l.2.1h.9c.1 0 .2 0 .3-.1h1.7c.3 0 .5-.1.8-.1.3 0 .6-.1.9-.1.3 0 .5-.1.8-.2.3-.1.5-.1.8-.2.3-.1.5-.2.8-.3.2-.1.5-.2.7-.4l.9-.6c.3-.2.5-.4.8-.6.3-.2.5-.5.8-.8.2-.3.5-.6.7-.9.2-.3.4-.6.6-1 .2-.3.3-.7.5-1 .1-.4.2-.7.3-1 .1-.3.2-.7.2-1v-.1l.1-.1v-.8c0-.5 0-1-.1-1.5s-.2-1-.3-1.4c-.1-.5-.3-.9-.5-1.4-.2-.4-.4-.8-.7-1.2-.3-.4-.6-.8-1-1.1s-.7-.7-1-1c-.4-.3-.8-.5-1.2-.7-.4-.2-.8-.4-1.3-.6-.2-.1-.5-.2-.7-.2-.2-.1-.5-.1-.8-.2-.3-.1-.5-.1-.8-.2-.2 0-.5-.1-.7-.1h-.2c-.1 0-.1 0-.2-.1h-.8c-.1 0-.2-.1-.3-.1h-1c-.1 0-.1 0-.2-.1h-.8l-.4-.1h-2.9l-2.5-.1v19.2h5.6zm34.8-44.8v32.2c0 .1 0 .2.1.3 0 .4 0 .7.1 1 0 .3.1.7.1 1 0 .3.1.6.2 1 .1.3.1.7.2 1 .1.3.2.6.3 1 .1.3.2.7.3 1 .1.3.3.6.5.9.2.3.4.6.5.9.2.4.5.8.8 1.2.3.4.6.7 1 1 .4.3.7.6 1.1.9.4.3.8.5 1.2.7.4.2.9.4 1.3.6.4.2.9.3 1.3.4.1 0 .3.1.4.1h.4c.1 0 .3.1.4.1h.8c.1 0 .3-.1.4-.1h.3c.1 0 .3-.1.4-.1.4-.1.8-.2 1.2-.4.4-.2.8-.4 1.2-.5.4-.2.7-.4 1.1-.6.4-.2.7-.5 1-.7.4-.3.7-.6.9-.9.3-.3.5-.6.8-1 .3-.4.5-.7.7-1.1l.6-1.2c.2-.4.3-.8.5-1.2.1-.4.2-.8.3-1.3.1-.4.2-.9.2-1.3.1-.4.1-.9.2-1.3 0-.4.1-.9.1-1.3s.1-.9.1-1.3v-31h7.6v31.8c0 .6-.1 1.2-.2 1.9 0 .6-.1 1.2-.2 1.8l-.3 1.8c-.1.6-.2 1.2-.4 1.8-.2.6-.4 1.2-.7 1.7-.3.6-.6 1.1-.9 1.7-.3.5-.7 1-1.1 1.5l-1.2 1.5c-.4.4-.9.9-1.4 1.3-.5.4-1 .8-1.5 1.1-.5.3-1.1.6-1.7.9l-.9.3c-.3.1-.6.2-.8.3-.3 0-.6.1-.9.2-.3.1-.6.2-.9.2l-1.8.3c-.6.1-1.3.1-1.9.1l-2.7.1c-.6 0-1.2-.1-1.8-.2l-1.8-.3c-.6-.1-1.2-.3-1.7-.4-.6-.1-1.2-.3-1.7-.5-.6-.2-1.1-.5-1.6-.8-.5-.3-1-.6-1.5-1s-1-.7-1.4-1.2c-.4-.4-.8-.9-1.2-1.4l-1.2-1.5c-.4-.5-.7-1.1-.9-1.7-.3-.6-.5-1.2-.7-1.8-.2-.6-.3-1.2-.4-1.8l-.3-1.8c-.1-.6-.1-1.2-.2-1.8 0-.6-.1-1.3-.1-1.9v-32h7.4zm38.7 0h7.6v49.2h-7.6v-49.2zm17.7 0h7.6v44.7h20.4v4.5h-28v-49.2zm33.4 0h16c.9 0 1.8.1 2.6.2.9.1 1.7.2 2.6.3.8.1 1.7.3 2.5.4.8.1 1.7.3 2.5.5s1.6.4 2.4.7c.8.3 1.5.6 2.3 1 .8.4 1.5.8 2.3 1.2.8.5 1.5 1 2.2 1.6.7.6 1.4 1.2 2 1.8.6.6 1.2 1.3 1.7 2s1 1.4 1.5 2.2c.5.8.9 1.6 1.3 2.4.4.8.8 1.7 1.1 2.5.3.8.6 1.7.7 2.6.1.4.2.9.3 1.3.1.4.2.9.2 1.3s.1.9.1 1.3v1.3c0 .9 0 1.8-.1 2.6-.1.9-.2 1.7-.4 2.6-.2.8-.4 1.7-.7 2.5l-.9 2.4c-.4.8-.7 1.6-1.2 2.3-.4.8-.9 1.5-1.4 2.1-.5.7-1 1.4-1.6 2l-1.8 1.8c-.7.7-1.5 1.3-2.2 1.8-.8.6-1.5 1.1-2.3 1.5-.8.4-1.6.8-2.4 1.1-.8.3-1.6.5-2.4.8-.8.2-1.7.3-2.5.5s-1.7.3-2.6.4c-.8 0-1.7.1-2.7.1-.9 0-1.9.1-2.8.1h-16.3v-49.2zm11.3 44.8c.8 0 1.6.1 2.4 0 .8 0 1.6-.1 2.4-.1.8-.1 1.5-.2 2.3-.2s1.5-.1 2.2-.2c.8-.1 1.5-.2 2.2-.5.7-.2 1.4-.5 2.1-.8.7-.3 1.4-.7 2.1-1.1.7-.4 1.4-.9 2.1-1.5l1.8-1.5c.6-.5 1.1-1.1 1.5-1.7.5-.6.9-1.2 1.3-1.8.4-.6.7-1.3 1-2 .3-.7.6-1.4.8-2.1l.6-2.1c.2-.8.3-1.5.4-2.2.1-.7.2-1.5.2-2.3 0-.8-.1-1.6-.2-2.3-.1-.8-.2-1.5-.4-2.2-.2-.8-.4-1.5-.6-2.1-.2-.7-.5-1.3-.8-2-.3-.6-.7-1.2-1-1.9-.4-.6-.8-1.2-1.3-1.8-.4-.6-1-1.2-1.5-1.7l-1.8-1.5c-.7-.5-1.4-.9-2.1-1.4-.7-.4-1.4-.8-2.1-1.1-.7-.4-1.4-.6-2.1-.8-.7-.2-1.4-.4-2.2-.5-.7-.1-1.5-.2-2.2-.3-.8-.1-1.5-.2-2.3-.2-.8-.1-1.5-.1-2.3-.2h-2.4l-3.7-.1v40.2h3.6z"/></g><g class="st0"><path class="st3" d="M6.3 179.8h3v.7c.1-.1.2-.2.3-.2.1-.1.2-.1.4-.2s.4-.2.6-.2.4-.1.6-.2c.2 0 .4-.1.7-.1.2 0 .4-.1.7-.1h1.1v2h-1.4c-.1 0-.1 0-.2.1H12c-.1 0-.1 0-.2.1 0 0-.1 0-.1.1-.1 0-.2.1-.2.1-.1 0-.2.1-.3.1l-.1.1H11l-.1.1-.1.1-.1.1h-.1l-.1.1-.1.1s-.1 0-.1.1l-.1.1-.2.2-.1.1-.1.1-.1.1-.1.1c-.1.1-.2.3-.3.4-.1.1-.2.2-.2.3-.1.1-.1.2-.2.3 0 .1-.1.2-.1.4 0 .1 0 .3-.1.4v9.8H6.3v-15.2z"/></g><g class="st0"><path class="st3" d="M18.2 188.1c0 .4.1.7.2 1.1s.2.7.3 1c.1.3.3.6.5.9.2.3.5.6.8.8.3.3.6.5.9.7s.6.4.9.5c.3.1.5.2.8.2.2.1.5.1.8.1.2 0 .4 0 .6-.1.2 0 .4-.1.5-.1.3-.1.5-.2.8-.3.3-.1.5-.2.8-.4.3-.1.5-.3.7-.5.2-.2.4-.4.6-.5.2-.2.3-.4.5-.6.1-.2.3-.5.4-.7l2.1-.1h1.1c-.1.4-.3.8-.5 1.1s-.4.7-.6 1c-.2.3-.5.6-.8.9-.3.3-.6.5-1 .8-.3.2-.7.5-1.1.6-.4.2-.7.3-1.1.5-.4.1-.7.2-1.1.2s-.8.1-1.2.1H23c-.5 0-1.1-.1-1.6-.2s-1-.2-1.5-.4-.9-.4-1.3-.7c-.4-.3-.8-.6-1.2-1-.4-.4-.7-.8-1-1.2-.3-.4-.5-.9-.7-1.3-.2-.5-.3-1-.4-1.5-.1-.5-.1-1-.1-1.6 0-.5 0-1 .1-1.6.1-.5.2-1 .4-1.4.2-.5.4-.9.7-1.3.3-.4.6-.8 1-1.2.4-.4.8-.7 1.2-1 .4-.3.9-.5 1.3-.7.5-.2 1-.3 1.5-.4s1-.1 1.6-.1h1c.3 0 .6 0 .9.1.3 0 .6.1.9.1.3.1.5.2.8.2.3.1.5.2.8.3.3.1.5.3.8.4.2.2.5.3.7.5l.6.6.6.6c.2.2.3.4.5.7.1.2.3.4.4.7.1.1.1.2.2.3.1.1.1.2.1.3 0 .1.1.2.1.4 0 .1.1.2.1.3.1.2.1.5.2.7 0 .2.1.5.1.7 0 .1 0 .3.1.5 0 .2 0 .3.1.5v.5H18.2zm10.4-1.9l-.3-.9c-.1-.3-.3-.6-.4-.9-.2-.3-.4-.5-.6-.8-.2-.3-.5-.5-.7-.7l-.9-.6c-.3-.2-.6-.3-.9-.4-.2-.1-.4-.2-.7-.2s-.5-.1-.7-.1c-.3 0-.5.1-.8.1-.2.1-.5.1-.7.2-.3.1-.6.2-.9.4l-.9.6c-.3.2-.5.5-.8.7-.2.3-.4.5-.6.8-.2.3-.3.6-.4.9-.1.3-.2.6-.3 1h10.6zm6-11.7h3.1v20.3h-3.1v-20.3z"/></g><g class="st0"><path class="st3" d="M57.6 194.8h-3.1v-1.3c-.2.2-.4.4-.6.5-.2.2-.5.3-.7.4-.3.1-.5.2-.8.3s-.5.1-.8.2c-.3.1-.6.1-.9.1-.3 0-.6.1-.9.1h-2.7c-.2 0-.4-.1-.6-.1-.2-.1-.4-.1-.6-.2l-.6-.3-.6-.3c-.2-.1-.4-.3-.6-.4-.2-.1-.4-.3-.6-.5-.2-.2-.4-.3-.6-.5-.2-.2-.4-.4-.5-.6l-.1-.1v-.2s0-.1-.1-.1l-.1-.1s0-.1-.1-.1c0 0 0-.1-.1-.2s-.1-.2-.2-.4c-.1-.1-.1-.3-.2-.4-.1-.1-.1-.3-.2-.5s-.1-.3-.1-.5c-.1-.2-.1-.3-.1-.5s-.1-.4-.1-.5v-2c0-.2.1-.5.1-.7.1-.2.1-.5.2-.7.1-.2.2-.5.2-.7.1-.2.2-.4.3-.7.1-.2.2-.4.4-.6.1-.2.3-.4.4-.6.1-.2.3-.4.5-.5.2-.2.4-.4.6-.5.2-.2.4-.3.6-.5s.4-.3.6-.4c.2-.1.5-.3.7-.4.2-.1.5-.2.7-.3.3-.1.5-.2.8-.2.3-.1.6-.1.9-.1.3 0 .6-.1.9-.1h1.3c.3 0 .6 0 .9.1.3 0 .6.1.8.2.3.1.5.2.8.2.3.1.5.2.8.3.3.1.5.3.7.4.2.2.4.3.6.5v-1.5h3.1v15zm-9.4-13.1c-.3.1-.5.2-.8.2-.3.1-.7.3-1 .5s-.6.5-.9.8-.5.6-.8.9c-.2.3-.4.7-.5 1-.1.3-.3.7-.3 1.1-.1.4-.1.8-.1 1.2 0 .4 0 .8.1 1.2.1.4.2.8.3 1.1.1.3.3.7.6 1 .2.3.5.6.8.9.3.3.6.5 1 .7.3.2.7.4 1 .5.3.1.6.2.8.2.3.1.6.1.9.1.3 0 .6-.1.9-.2.3-.1.6-.2.8-.3.3-.1.7-.3 1-.5.3-.2.6-.5.9-.8.3-.3.5-.6.8-.9.2-.3.4-.6.5-1 .1-.3.3-.7.3-1 .1-.4.1-.8.1-1.2 0-.4 0-.8-.1-1.2-.1-.4-.2-.8-.3-1.1-.1-.4-.3-.7-.5-1-.2-.3-.5-.6-.7-.9-.3-.3-.6-.5-.9-.8-.3-.2-.6-.4-1-.5l-.9-.3c-.3-.1-.6-.1-1-.1-.4.3-.7.3-1 .4z"/></g><g class="st0"><path class="st3" d="M62.9 181.7h-3.1v-1.8h3.1v-5.3H66v5.3h3.5v1.8H66v13.2h-3.1v-13.2zm8.6-7.2h3.1v3.5h-3.1v-3.5zm0 5.3h3.1v15h-3.1v-15zm16.6-.1c.5.1.9.3 1.4.5.5.2.9.4 1.3.7.4.3.8.6 1.2 1 .4.4.7.8 1 1.2.3.4.5.9.7 1.3.2.5.4.9.5 1.4.1.5.2 1 .2 1.5s0 1-.1 1.5-.2 1-.4 1.5-.4.9-.7 1.3c-.3.4-.6.9-1 1.2-.4.4-.8.7-1.2 1-.4.3-.9.5-1.3.7-.5.2-.9.3-1.4.4-.5.1-1 .1-1.6.1h-1.1c-.5 0-1-.1-1.5-.2s-1-.2-1.5-.4-.9-.4-1.3-.7c-.4-.3-.8-.6-1.2-1-.4-.4-.7-.8-1-1.2-.3-.4-.5-.9-.7-1.3-.2-.5-.3-.9-.4-1.4-.1-.5-.2-1-.2-1.6 0-.5 0-1.1.1-1.6s.2-1 .4-1.5.4-.9.7-1.3c.3-.4.6-.8 1-1.2.4-.4.8-.7 1.2-1 .4-.3.9-.5 1.3-.7.5-.2 1-.4 1.5-.5.5-.1 1-.2 1.6-.2v-.1h1.1c.4.4.9.5 1.4.6zm-3.1 2c-.3.1-.5.2-.8.3-.3.1-.7.3-1 .5s-.6.5-.9.8c-.3.3-.5.6-.7.9-.2.3-.4.7-.5 1-.1.3-.2.7-.3 1.1-.1.4-.1.8-.1 1.2 0 .4 0 .8.1 1.2.1.4.2.7.3 1.1.1.3.3.7.5 1 .2.3.5.6.8.9.3.3.6.5.9.8.3.2.6.4 1 .5.3.1.5.2.8.2.3.1.6.1.9.1.3 0 .6-.1.9-.1.3-.1.6-.1.8-.3.3-.1.7-.3 1-.6.3-.2.6-.5.9-.8.3-.3.5-.6.7-.9.2-.3.4-.7.5-1 .1-.4.3-.7.3-1.1s.1-.8.1-1.2v-.6c0-.2 0-.4-.1-.6 0-.2-.1-.4-.1-.5-.1-.2-.1-.4-.2-.5-.1-.2-.2-.3-.2-.5-.1-.2-.2-.3-.3-.5-.1-.1-.2-.3-.4-.5-.1-.2-.3-.3-.4-.5-.1-.1-.3-.2-.4-.4-.2-.1-.3-.2-.5-.3-.1-.1-.3-.2-.5-.3s-.3-.2-.5-.2c-.2-.1-.4-.1-.5-.2-.2-.1-.4-.1-.5-.1h-.8c-.3 0-.5 0-.8.1zm12.2-1.9h3v1c.1-.1.3-.2.5-.4.2-.1.3-.2.5-.3l.6-.3c.2-.1.4-.2.6-.2.2-.1.4-.1.7-.1h2.6c.2 0 .5.1.7.1.3.1.5.1.7.2.2.1.5.2.7.3.2.1.5.2.7.4.2.1.4.3.6.4.2.1.4.3.6.5.2.2.4.4.5.6.1.1.1.2.2.3.1.1.1.2.2.3.1.1.1.2.2.3.1.1.1.2.2.3s.1.2.1.3c0 .1.1.2.1.3 0 .1.1.2.1.3 0 .1 0 .2.1.3 0 .2.1.4.1.6 0 .2.1.4.1.6v9.3h-3.1v-9.6c0-.1-.1-.3-.1-.5s-.1-.3-.2-.4c-.1-.1-.1-.3-.2-.4s-.2-.3-.3-.4l-.4-.4-.4-.4c-.1-.1-.3-.2-.4-.3-.2-.1-.3-.2-.5-.3-.2-.1-.4-.2-.5-.2-.2-.1-.4-.1-.5-.1h-.8c-.1 0-.2 0-.4.1s-.2.1-.3.1c-.2.1-.3.1-.5.2s-.3.1-.5.2c-.1.1-.3.2-.4.3-.1.1-.3.2-.4.3-.1.1-.2.2-.4.3-.1.1-.2.2-.3.4 0 .1-.1.1-.1.2s-.1.1-.1.2-.1.1-.1.2-.1.1-.1.2c-.1.1-.1.3-.1.4 0 .1-.1.2-.1.4 0 .1 0 .3-.1.4v9.9h-3.1v-15.9zm19.8 10.6v.7c0 .2.1.3.2.5s.1.3.2.5c.1.1.2.3.4.4.1.1.3.2.4.4.1.1.3.2.5.2.1 0 .2 0 .3.1.1 0 .2 0 .2.1h.6c.1-.1.3-.1.4-.2.1-.1.3-.2.4-.3.1-.1.2-.2.3-.4s.2-.3.2-.4c.1-.1.1-.3.1-.5s.1-.4.1-.5c0-.2 0-.4-.1-.6 0-.2-.1-.4-.2-.5-.1-.2-.2-.3-.3-.4-.1-.1-.3-.2-.4-.4-.1-.1-.3-.2-.5-.3s-.3-.2-.5-.2-.3-.1-.5-.2-.4-.1-.5-.2h-.1l-.1-.1-.1-.1-.1-.1c-.1 0-.2-.1-.3-.1-.1 0-.2-.1-.3-.1-.1 0-.2-.1-.3-.1-.1 0-.2-.1-.3-.1s-.2-.1-.3-.1c-.1-.1-.2-.1-.3-.2-.1-.1-.2-.1-.3-.2-.1-.1-.2-.1-.2-.2l-.3-.3-.3-.3c-.1-.1-.1-.2-.2-.3-.1-.1-.1-.2-.2-.4-.1-.1-.1-.3-.1-.4 0-.1-.1-.3-.1-.4v-.8c0-.3 0-.6.1-.9 0-.3.1-.5.2-.8.1-.3.2-.5.4-.7l.6-.6c.2-.2.4-.4.7-.5.2-.1.5-.3.7-.4.3-.1.5-.2.8-.2.3-.1.6-.1.9-.1h1.1c.3 0 .5 0 .8.1.3.1.5.1.8.2.3.1.5.2.7.4s.4.3.6.5c.2.2.4.4.5.6.2.2.3.4.4.7.1.2.2.5.2.7s.1.5.1.8h-1.1l-2-.1c0-.1 0-.3-.1-.4 0-.1-.1-.3-.1-.4-.1-.1-.1-.2-.2-.4l-.3-.3c-.1-.1-.2-.2-.3-.2s-.3-.1-.4-.2h-.8c-.1.1-.2.1-.4.2-.1.1-.2.2-.3.2l-.3.3c-.1.1-.1.2-.2.4s-.1.3-.1.4v1c0 .2.1.3.2.5s.2.3.3.4c.1.1.2.2.4.3.1.1.3.2.4.2.1.1.3.2.4.2.1.1.3.1.5.2s.3.1.5.1c.3.1.5.2.8.3s.5.2.8.3c.3.1.5.3.7.4.2.1.4.3.6.4.2.1.4.3.5.5.2.2.3.4.4.7.1.2.2.5.2.8.1.3.1.6.1.9 0 .3 0 .7-.1 1l-.3.9c-.1.3-.3.6-.4.8-.2.2-.4.5-.6.7-.2.2-.5.4-.7.6-.3.2-.5.3-.8.4-.3.1-.6.2-.9.2-.3.1-.7.1-1 .1h-1.1c-.3 0-.6-.1-.9-.1-.3-.1-.6-.1-.8-.2-.3-.1-.5-.2-.8-.4s-.5-.4-.7-.6c-.2-.2-.4-.4-.6-.7-.2-.2-.3-.5-.4-.8-.1-.3-.2-.5-.2-.8s-.1-.6-.1-.9v-.5h3.2zm9.9-15.9h3.1v6.2c.1-.1.2-.2.3-.2.1-.1.2-.1.4-.2l.6-.3c.2-.1.4-.2.6-.2.2-.1.4-.1.6-.1s.4-.1.7-.1h2.2c.2 0 .5.1.7.1s.5.1.7.2c.2.1.5.2.7.2.2.1.4.2.7.3s.4.3.6.4c.2.1.4.3.6.5l.5.5c.1.2.3.4.4.6s.2.4.4.6l.3.6c.1.2.2.4.2.6 0 .1 0 .2.1.3 0 .1 0 .2.1.3 0 .1 0 .2.1.4 0 .1 0 .2.1.3 0 .2.1.5.1.7v8.6h-3.1v-9.3c0-.2 0-.3-.1-.5 0-.1 0-.3-.1-.5 0-.2-.1-.3-.2-.4 0-.1 0-.1-.1-.2 0-.1-.1-.1-.1-.2-.1-.1-.1-.1-.1-.2s-.1-.1-.1-.2c-.1-.1-.2-.3-.4-.4l-.4-.4c-.1-.1-.3-.2-.4-.3-.2-.1-.3-.2-.5-.3-.2-.1-.4-.2-.5-.2-.2-.1-.4-.1-.5-.1h-.6c-.1 0-.3 0-.4.1s-.3 0-.4.1c-.1.1-.3.1-.5.2s-.3.1-.5.2c-.1.1-.3.2-.4.3-.1.1-.3.2-.4.3s-.2.2-.4.3c-.1.1-.2.2-.3.4 0 .1-.1.1-.1.2s-.1.1-.1.1c0 .1 0 .1-.1.2 0 .1-.1.1-.1.2-.1.1-.1.2-.1.3 0 .1-.1.2-.1.4 0 .1 0 .3-.1.4 0 .1 0 .2-.1.4v9.5h-3.1v-20.7zm17.8 0h3.1v3.5h-3.1v-3.5zm0 5.3h3.1v15h-3.1v-15zm9.6 0v1.4c.1-.1.3-.2.4-.3.1-.1.3-.2.4-.3l.6-.3.6-.3c.2-.1.4-.2.6-.2s.4-.1.7-.1h4.3c.1 0 .3 0 .4.1.1 0 .3 0 .4.1.3.1.5.1.8.2.3.1.5.2.8.3.1.1.3.1.4.2s.3.1.4.2c.1.1.2.2.4.2s.3.2.4.3c.1.1.3.2.4.3s.2.2.4.3l.3.3.4.4.2.2.2.2c0 .1.1.1.1.2s.1.1.2.2c.1.2.2.3.3.5l.3.6c.1.2.2.5.2.7s.1.5.2.7c0 .2.1.5.1.8v.8c0 .6-.1 1.1-.2 1.6s-.3 1-.5 1.5-.5.9-.8 1.3c-.3.4-.7.8-1.1 1.2s-.8.7-1.3 1c-.4.3-.9.5-1.4.7-.5.1-1 .3-1.5.4s-1 .1-1.6.1h-1.9c-.2-.1-.5-.1-.7-.2-.2-.1-.5-.1-.7-.2-.2-.1-.5-.2-.7-.3s-.4-.2-.7-.3c-.2-.1-.3-.2-.5-.3-.1-.1-.3-.2-.4-.3v6.5h-3.1v-20.3h2.2zm6.1 13.4c.3-.1.7-.2 1-.3.4-.1.7-.3 1-.5.3-.2.6-.4.9-.7.3-.3.5-.6.8-.9s.4-.6.5-1c.1-.4.3-.7.3-1.1.1-.4.1-.8.1-1.2 0-.4 0-.8-.1-1.2-.1-.4-.2-.7-.3-1.1-.1-.4-.3-.7-.5-1s-.5-.6-.8-.9-.6-.5-.9-.8-.7-.4-1-.5c-.3-.1-.6-.2-.8-.3s-.6-.1-.9-.1c-.3 0-.6.1-.9.1s-.6.2-.9.3c-.3.1-.7.3-1 .5-.3.2-.6.5-.9.7-.3.3-.5.6-.8.9s-.4.6-.5 1c-.1.3-.3.7-.3 1.1-.1.4-.1.8-.1 1.2v.6c0 .2 0 .4.1.6 0 .2.1.4.1.6 0 .2.1.4.2.5.1.2.1.4.2.5.1.2.2.3.3.5.1.2.2.3.4.5l.4.4.4.4c.1.1.3.3.5.4.2.1.3.2.5.3.2.1.4.2.5.3.2.1.4.1.6.2s.4.1.6.2h.4c.3-.1.6-.1.9-.2zm12.6-2.8v.7c0 .2.1.3.2.5s.1.3.2.5c.1.1.2.3.4.4.1.1.3.2.4.4.1.1.3.2.5.2.1 0 .2 0 .3.1.1 0 .2 0 .2.1h.6c.1-.1.3-.1.4-.2.1-.1.3-.2.4-.3.1-.1.2-.2.3-.4s.2-.3.2-.4c.1-.1.1-.3.1-.5s.1-.4.1-.5c0-.2 0-.4-.1-.6 0-.2-.1-.4-.2-.5-.1-.2-.2-.3-.3-.4-.1-.1-.3-.2-.4-.4-.1-.1-.3-.2-.5-.3s-.3-.2-.5-.2-.3-.1-.5-.2-.4-.1-.5-.2h-.1l-.1-.1-.1-.1-.1-.1c-.1 0-.2-.1-.3-.1-.1 0-.2-.1-.3-.1-.1 0-.2-.1-.3-.1-.1 0-.2-.1-.3-.1s-.2-.1-.3-.1c-.1-.1-.2-.1-.3-.2-.1-.1-.2-.1-.3-.2-.1-.1-.2-.1-.2-.2l-.3-.3-.3-.3c-.1-.1-.1-.2-.2-.3-.1-.1-.1-.2-.2-.4-.1-.1-.1-.3-.1-.4 0-.1-.1-.3-.1-.4v-.8c0-.3 0-.6.1-.9 0-.3.1-.5.2-.8.1-.3.2-.5.4-.7l.6-.6c.2-.2.4-.4.7-.5.2-.1.5-.3.7-.4.3-.1.5-.2.8-.2.3-.1.6-.1.9-.1h1.1c.3 0 .5 0 .8.1.3.1.5.1.8.2.3.1.5.2.7.4s.4.3.6.5c.2.2.4.4.5.6.2.2.3.4.4.7.1.2.2.5.2.7s.1.5.1.8h-1l-2-.1c0-.1 0-.3-.1-.4 0-.1-.1-.3-.1-.4-.1-.1-.1-.2-.2-.4l-.3-.3c-.1-.1-.2-.2-.3-.2s-.3-.1-.4-.2h-.8c-.1.1-.2.1-.4.2-.1.1-.2.2-.3.2l-.3.3c-.1.1-.1.2-.2.4s-.1.3-.1.4v1c0 .2.1.3.2.5s.2.3.3.4c.1.1.2.2.4.3.1.1.3.2.4.2.1.1.3.2.4.2.1.1.3.1.5.2s.3.1.5.1c.3.1.5.2.8.3s.5.2.8.3c.3.1.5.3.7.4.2.1.4.3.6.4.2.1.4.3.5.5.2.2.3.4.4.7.1.2.2.5.2.8.1.3.1.6.1.9 0 .3 0 .7-.1 1l-.3.9c-.1.3-.3.6-.4.8-.2.2-.4.5-.6.7-.2.2-.5.4-.7.6-.3.2-.5.3-.8.4-.3.1-.6.2-.9.2-.3.1-.7.1-1 .1h-1.1c-.3 0-.6-.1-.9-.1-.3-.1-.6-.1-.8-.2-.3-.1-.5-.2-.8-.4s-.5-.4-.7-.6c-.2-.2-.4-.4-.6-.7-.2-.2-.3-.5-.4-.8-.1-.3-.2-.5-.2-.8s-.1-.6-.1-.9v-.5h3.1z"/></g><path class="st4" d="M29 101.4h134.9"/></svg>