<svg height="1000" width="875" xmlns="http://www.w3.org/2000/svg"><path d="M0 796.888V203.176q0-97.65 130.851-150.381T437.472.064t306.621 52.731 130.851 150.381v593.712q0 97.65-130.851 150.381T437.472 1000t-306.621-52.731T0 796.888zm62.496 0q0 58.59 109.368 99.603t265.608 41.013 265.608-41.013 109.368-99.603v-117.18q-46.872 48.825-150.381 75.191t-224.595 26.366-224.595-26.366-150.381-75.191v117.18zm0-187.488q0 58.59 109.368 99.603t265.608 41.013 265.608-41.013T812.448 609.4V492.22q-46.872 48.825-150.381 75.191t-224.595 26.366-224.595-26.366T62.496 492.22V609.4zm0-187.488q0 58.59 109.368 99.603t265.608 41.013 265.608-41.013 109.368-99.603V314.497q-58.59 44.919-160.146 68.355t-214.83 23.436-214.83-23.436-160.146-68.355v107.415zm0-218.736q0 58.59 109.368 99.603t265.608 41.013 265.608-41.013 109.368-99.603-109.368-99.603T437.472 62.56t-265.608 41.013-109.368 99.603zm624.96 609.336q0-13.671 8.789-22.46t22.46-8.789 22.46 8.789 8.789 22.46-8.789 22.46-22.46 8.789-22.46-8.789-8.789-22.46zm0-187.488q0-13.671 8.789-22.46t22.46-8.789 22.46 8.789 8.789 22.46-8.789 22.46-22.46 8.789-22.46-8.789-8.789-22.46zm0-187.488q0-13.671 8.789-22.46t22.46-8.789 22.46 8.789 8.789 22.46-8.789 22.46-22.46 8.789-22.46-8.789-8.789-22.46z"/></svg>