<?xml version="1.0" encoding="UTF-8" standalone="no"?>
<!-- Generator: Adobe Illustrator 18.0.0, SVG Export Plug-In . SVG Version: 6.00 Build 0)  -->

<svg
   xmlns:dc="http://purl.org/dc/elements/1.1/"
   xmlns:cc="http://creativecommons.org/ns#"
   xmlns:rdf="http://www.w3.org/1999/02/22-rdf-syntax-ns#"
   xmlns:svg="http://www.w3.org/2000/svg"
   xmlns="http://www.w3.org/2000/svg"
   xmlns:sodipodi="http://sodipodi.sourceforge.net/DTD/sodipodi-0.dtd"
   xmlns:inkscape="http://www.inkscape.org/namespaces/inkscape"
   version="1.1"
   id="Fundraising_Solutions"
   x="0px"
   y="0px"
   viewBox="0 0 245.8 120.7"
   enable-background="new 0 0 245.8 120.7"
   xml:space="preserve"
   sodipodi:docname="logo.svg"
   inkscape:version="0.92.2 (5c3e80d, 2017-08-06)"
   inkscape:export-filename="C:\Users\smcbeth\Desktop\logo-very-small.png"
   inkscape:export-xdpi="29.290001"
   inkscape:export-ydpi="29.290001"><metadata
     id="metadata3841"><rdf:RDF><cc:Work
         rdf:about=""><dc:format>image/svg+xml</dc:format><dc:type
           rdf:resource="http://purl.org/dc/dcmitype/StillImage" /></cc:Work></rdf:RDF></metadata><defs
     id="defs3839" /><sodipodi:namedview
     pagecolor="#ffffff"
     bordercolor="#666666"
     borderopacity="1"
     objecttolerance="10"
     gridtolerance="10"
     guidetolerance="10"
     inkscape:pageopacity="0"
     inkscape:pageshadow="2"
     inkscape:window-width="1920"
     inkscape:window-height="1017"
     id="namedview3837"
     showgrid="false"
     inkscape:zoom="3.5128418"
     inkscape:cx="136.57506"
     inkscape:cy="43.593359"
     inkscape:window-x="-8"
     inkscape:window-y="-8"
     inkscape:window-maximized="1"
     inkscape:current-layer="Fundraising_Solutions" /><g
     id="Graph_Line_copy_4_3_"><g
       id="g3773"><polygon
         fill-rule="evenodd"
         clip-rule="evenodd"
         fill="#00BB27"
         points="163.4,68.2 138.5,38.9 117.1,68.9 90.5,49.7 49.9,88.6     12.2,75.8 12.2,81.1 49.9,95 90.7,55.9 117.8,76.6 138.7,46.6 163.2,75.6 229.7,20.9 229.7,15.6   "
         id="polygon3771"
         inkscape:export-xdpi="299.84885"
         inkscape:export-ydpi="299.84885" /></g></g><path
     style="fill:#3a3a3a;stroke:#afafaf;stroke-opacity:1;opacity:1;stroke-width:0.8;stroke-miterlimit:4;stroke-dasharray:none"
     inkscape:connector-curvature="0"
     id="path3818"
     d="M 36.9,86.8 V 53.7 H 43 V 67.4 H 59.3 V 53.7 h 6.1 V 86.8 H 59.3 V 72.7 H 43 v 14.1 z" /><path
     style="fill:#3a3a3a;stroke:#afafaf;stroke-opacity:1;opacity:1;stroke-width:0.8;stroke-miterlimit:4;stroke-dasharray:none"
     inkscape:connector-curvature="0"
     id="path3820"
     d="m 76.2,53.7 v 4.9 H 70 v -4.9 z m 0,8.8 V 86.8 H 70 V 62.5 Z" /><path
     style="fill:#3a3a3a;stroke:#afafaf;stroke-opacity:1;opacity:1;stroke-width:0.8;stroke-miterlimit:4;stroke-dasharray:none"
     inkscape:connector-curvature="0"
     id="path3822"
     d="m 101.9,85 c 0,7.1 -4.3,10.7 -12.8,10.7 -3,0 -5.7,-0.4 -8,-1.2 v -4.9 c 2.4,0.8 5,1.2 8,1.2 4.4,0 6.6,-1.9 6.6,-5.6 -1.8,0.8 -3.8,1.2 -5.9,1.2 -7.2,0 -10.8,-3.9 -10.8,-11.8 0,-8 4.2,-12 12.6,-12 2.8,0 6.2,0.3 10.2,1 V 85 Z M 95.8,68 c -1,-0.4 -2.4,-0.6 -4.3,-0.6 -4.2,0 -6.4,2.3 -6.4,7 0,4.5 1.8,6.8 5.5,6.8 1.8,0 3.5,-0.4 5.2,-1.3 z" /><path
     style="fill:#3a3a3a;stroke:#afafaf;stroke-opacity:1;opacity:1;stroke-width:0.8;stroke-miterlimit:4;stroke-dasharray:none"
     inkscape:connector-curvature="0"
     id="path3824"
     d="M 105.9,86.8 V 53.7 h 6.1 v 11.9 c 1.9,-2.1 4.4,-3.1 7.3,-3.1 5.8,0 8.6,3 8.6,9 v 15.3 h -6.1 V 71.5 c 0,-2.7 -1.3,-4 -4,-4 -2,0 -3.9,0.8 -5.8,2.4 v 17 h -6.1 z" /><path
     style="fill:#3a3a3a;stroke:#afafaf;stroke-opacity:1;opacity:1;stroke-width:0.8;stroke-miterlimit:4;stroke-dasharray:none"
     inkscape:connector-curvature="0"
     id="path3826"
     d="M 138.2,53.7 V 86.8 H 132 V 53.7 Z" /><path
     style="fill:#3a3a3a;stroke:#afafaf;stroke-opacity:1;opacity:1;stroke-width:0.8;stroke-miterlimit:4;stroke-dasharray:none"
     inkscape:connector-curvature="0"
     id="path3828"
     d="m 141,79.2 c 0,-4.8 3.5,-7.3 10.6,-7.3 1.7,0 3.3,0.2 5,0.5 v -1.8 c 0,-2.2 -1.6,-3.3 -4.7,-3.3 -2.7,0 -5.6,0.4 -8.9,1.2 v -4.9 c 3.2,-0.8 6.2,-1.2 8.9,-1.2 7.2,0 10.8,2.7 10.8,8 v 16.3 h -3.6 l -2.2,-2.2 c -2.1,1.5 -4.5,2.2 -7,2.2 -5.9,0.1 -8.9,-2.4 -8.9,-7.5 z m 10.6,-3.1 c -3,0 -4.4,1 -4.4,3 0,2.2 1.2,3.2 3.7,3.2 2,0 3.9,-0.6 5.7,-1.9 v -3.9 c -1.6,-0.2 -3.3,-0.4 -5,-0.4 z" /><path
     style="fill:#3a3a3a;stroke:#afafaf;stroke-opacity:1;opacity:1;stroke-width:0.8;stroke-miterlimit:4;stroke-dasharray:none"
     inkscape:connector-curvature="0"
     id="path3830"
     d="M 166.6,86.8 V 62.5 h 4.8 l 0.8,3.6 c 2.3,-2.4 5,-3.6 8,-3.6 5.8,0 8.6,3 8.6,9 v 15.3 h -6.1 V 71.5 c 0,-2.7 -1.3,-4 -4,-4 -2,0 -3.9,0.8 -5.8,2.4 v 17 h -6.3 z" /><path
     style="fill:#3a3a3a;stroke:#afafaf;stroke-opacity:1;opacity:1;stroke-width:0.8;stroke-miterlimit:4;stroke-dasharray:none"
     inkscape:connector-curvature="0"
     id="path3832"
     d="m 214.3,85.3 c -3.7,1 -7.4,1.5 -10.9,1.5 -7.9,0 -11.8,-4.2 -11.8,-12.7 0,-7.8 3.8,-11.7 11.5,-11.7 1.6,0 3.3,0.4 5,1.2 v -10 h 6.1 v 31.7 z m -6.1,-16.5 c -1.3,-0.8 -2.9,-1.3 -4.8,-1.3 -3.8,0 -5.7,2.1 -5.7,6.4 0,5.1 2,7.6 6,7.6 1.6,0 3.1,-0.2 4.5,-0.7 z" /><g
     id="g4683"
     transform="matrix(0.90253575,0,0,0.91213895,20.621411,7.107959)"><path
       d="m 167.9,96.7 v -1.3 c 0.8,0.3 1.7,0.4 2.6,0.4 1.2,0 1.8,-0.4 1.8,-1.2 0,-0.6 -0.4,-0.9 -1.1,-0.9 H 170 c -1.6,0 -2.4,-0.7 -2.4,-2.2 0,-1.6 1.1,-2.5 3.4,-2.5 0.9,0 1.7,0.1 2.5,0.4 v 1.3 c -0.8,-0.3 -1.6,-0.4 -2.5,-0.4 -1.3,0 -2,0.4 -2,1.2 0,0.6 0.3,0.9 0.9,0.9 h 1.2 c 1.7,0 2.5,0.7 2.5,2.2 0,1.7 -1.1,2.5 -3.2,2.5 -0.8,0 -1.7,-0.2 -2.5,-0.4 z"
       id="path3798"
       inkscape:connector-curvature="0"
       style="fill:#4169e1" /><path
       d="m 174.6,94.1 c 0,-2 0.9,-2.9 2.8,-2.9 1.9,0 2.8,1 2.8,2.9 0,2 -0.9,2.9 -2.8,2.9 -1.9,0 -2.8,-1 -2.8,-2.9 z m 2.8,1.8 c 0.9,0 1.4,-0.6 1.4,-1.8 0,-1.2 -0.5,-1.8 -1.4,-1.8 -0.9,0 -1.4,0.6 -1.4,1.8 0,1.2 0.5,1.8 1.4,1.8 z"
       id="path3800"
       inkscape:connector-curvature="0"
       style="fill:#4169e1" /><path
       d="m 182.8,89 v 8 h -1.4 v -8 z"
       id="path3802"
       inkscape:connector-curvature="0"
       style="fill:#4169e1" /><path
       d="M 189.3,91.1 V 97 h -1.1 L 188,96.3 c -0.7,0.5 -1.4,0.7 -2.1,0.7 -1.2,0 -1.7,-0.7 -1.7,-2.1 v -3.7 h 1.4 v 3.7 c 0,0.6 0.3,1 0.8,1 0.5,0 0.9,-0.2 1.4,-0.6 v -4.1 h 1.5 z"
       id="path3804"
       inkscape:connector-curvature="0"
       style="fill:#4169e1" /><path
       d="m 190.5,90.2 h 1.1 l 0.2,0.9 h 1.4 v 1.2 H 192 V 95 c 0,0.5 0.2,0.8 0.7,0.8 h 0.6 V 97 H 192 c -1,0 -1.4,-0.5 -1.4,-1.6 v -5.2 z"
       id="path3806"
       inkscape:connector-curvature="0"
       style="fill:#4169e1" /><path
       d="m 195.7,89 v 1.2 h -1.4 V 89 Z m 0,2.1 V 97 h -1.4 v -5.9 z"
       id="path3808"
       inkscape:connector-curvature="0"
       style="fill:#4169e1" /><path
       d="m 196.7,94.1 c 0,-2 0.9,-2.9 2.8,-2.9 1.9,0 2.8,1 2.8,2.9 0,2 -0.9,2.9 -2.8,2.9 -1.8,0 -2.7,-1 -2.8,-2.9 z m 2.9,1.8 c 0.9,0 1.4,-0.6 1.4,-1.8 0,-1.2 -0.5,-1.8 -1.4,-1.8 -0.9,0 -1.4,0.6 -1.4,1.8 0,1.2 0.5,1.8 1.4,1.8 z"
       id="path3810"
       inkscape:connector-curvature="0"
       style="fill:#4169e1" /><path
       d="m 203.5,97 v -5.9 h 1.1 l 0.2,0.9 c 0.5,-0.6 1.2,-0.9 1.9,-0.9 1.4,0 2,0.7 2,2.2 V 97 h -1.4 v -3.7 c 0,-0.6 -0.3,-1 -0.9,-1 -0.5,0 -0.9,0.2 -1.4,0.6 V 97 Z"
       id="path3812"
       inkscape:connector-curvature="0"
       style="fill:#4169e1" /><path
       d="m 210,96.7 v -1.2 c 0.6,0.3 1.4,0.4 2.2,0.4 0.6,0 0.9,-0.2 0.9,-0.6 0,-0.4 -0.2,-0.6 -0.6,-0.6 h -1 c -1.2,0 -1.7,-0.6 -1.7,-1.8 0,-1.2 0.8,-1.8 2.5,-1.8 0.7,0 1.4,0.1 2,0.3 v 1.2 c -0.6,-0.3 -1.3,-0.4 -2.1,-0.4 -0.8,0 -1.2,0.2 -1.2,0.6 0,0.4 0.2,0.6 0.7,0.6 h 0.9 c 1.3,0 1.9,0.6 1.9,1.8 0,1.2 -0.8,1.8 -2.4,1.8 -0.7,0.1 -1.4,-0.1 -2.1,-0.3 z"
       id="path3814"
       inkscape:connector-curvature="0"
       style="fill:#4169e1" /><text
       id="text3845"
       y="97.001228"
       x="93.151459"
       style="font-style:normal;font-weight:normal;font-size:42.06952667px;line-height:1.25;font-family:sans-serif;letter-spacing:0px;word-spacing:0px;fill:#4169e1;fill-opacity:1;stroke:none;stroke-width:1.05173814"
       xml:space="preserve"><tspan
         style="font-style:normal;font-variant:normal;font-weight:bold;font-stretch:normal;font-size:11.21854019px;font-family:Sansation;-inkscape-font-specification:'Sansation Bold';fill:#4169e1;fill-opacity:1;stroke-width:1.05173814"
         y="97.001228"
         x="93.151459"
         id="tspan3843"
         sodipodi:role="line">Advancement</tspan></text>
</g></svg>