<svg xmlns="http://www.w3.org/2000/svg" viewBox="0 0 245.8 120.7"><path fill-rule="evenodd" clip-rule="evenodd" fill="#00BB27" d="M163.4 68.2l-24.9-29.3-21.4 30-26.6-19.2-40.6 38.9-37.7-12.8v5.3L49.9 95l40.8-39.1 27.1 20.7 20.9-30 24.5 29 66.5-54.7v-5.3z"/><path d="M110.9 89v1.3h-3.7v2h3.5v1.3h-3.5V97h-1.4v-8h5.1zm6.2 2.1V97H116l-.2-.7c-.7.5-1.4.7-2.1.7-1.2 0-1.7-.7-1.7-2.1v-3.7h1.4v3.7c0 .6.3 1 .8 1s.9-.2 1.4-.6v-4.1h1.5zm1.4 5.9v-5.9h1.1l.2.9c.5-.6 1.2-.9 1.9-.9 1.4 0 2 .7 2 2.2V97h-1.4v-3.7c0-.6-.3-1-.9-1-.5 0-.9.2-1.4.6V97h-1.5zm11.6-.4c-.9.2-1.7.4-2.6.4-1.8 0-2.8-1-2.8-3 0-1.9.9-2.8 2.7-2.8.4 0 .8.1 1.2.3V89h1.4v7.6zm-1.4-3.9c-.3-.2-.7-.3-1.1-.3-.9 0-1.3.5-1.3 1.5 0 1.2.5 1.8 1.4 1.8.4 0 .7-.1 1.1-.2v-2.8zm2.8 4.3v-5.9h1.1l.2.7c.5-.5 1-.7 1.6-.7v1.2c-.5 0-1 .2-1.4.7v4h-1.5zm3.4-1.8c0-1.2.8-1.7 2.5-1.7.4 0 .8 0 1.2.1v-.4c0-.5-.4-.8-1.1-.8-.6 0-1.3.1-2.1.3v-1.2c.8-.2 1.5-.3 2.1-.3 1.7 0 2.5.6 2.5 1.9V97h-.8l-.5-.5c-.5.3-1 .5-1.6.5-1.5 0-2.2-.6-2.2-1.8zm2.5-.8c-.7 0-1 .2-1 .7 0 .5.3.8.9.8.5 0 .9-.2 1.3-.5v-.9c-.4 0-.8-.1-1.2-.1zm5.4-5.4v1.2h-1.4V89h1.4zm0 2.1V97h-1.4v-5.9h1.4zm1.3 5.6v-1.2c.6.3 1.4.4 2.2.4.6 0 .9-.2.9-.6 0-.4-.2-.6-.6-.6h-1c-1.2 0-1.7-.6-1.7-1.8 0-1.2.8-1.8 2.5-1.8.7 0 1.4.1 2 .3v1.2c-.6-.3-1.3-.4-2.1-.4s-1.2.2-1.2.6c0 .4.2.6.7.6h.9c1.3 0 1.9.6 1.9 1.8 0 1.2-.8 1.8-2.4 1.8-.7.1-1.5-.1-2.1-.3zm7-7.7v1.2h-1.4V89h1.4zm0 2.1V97h-1.4v-5.9h1.4zm1.4 5.9v-5.9h1.1l.2.9c.5-.6 1.2-.9 1.9-.9 1.4 0 2 .7 2 2.2V97h-1.4v-3.7c0-.6-.3-1-.9-1-.5 0-.9.2-1.4.6V97h-1.5zm11.6-.4c0 1.7-1 2.6-3 2.6-.7 0-1.3-.1-1.9-.3v-1.2c.6.2 1.2.3 1.9.3 1 0 1.6-.4 1.6-1.3-.4.2-.9.3-1.4.3-1.7 0-2.5-1-2.5-2.9s1-2.9 3-2.9c.7 0 1.5.1 2.4.2v5.2zm-1.4-4.1c-.2-.1-.6-.1-1-.1-1 0-1.5.6-1.5 1.7s.4 1.6 1.3 1.6c.4 0 .8-.1 1.2-.3v-2.9zm5.2 4.2v-1.3c.8.3 1.7.4 2.6.4 1.2 0 1.8-.4 1.8-1.2 0-.6-.4-.9-1.1-.9H170c-1.6 0-2.4-.7-2.4-2.2 0-1.6 1.1-2.5 3.4-2.5.9 0 1.7.1 2.5.4v1.3c-.8-.3-1.6-.4-2.5-.4-1.3 0-2 .4-2 1.2 0 .6.3.9.9.9h1.2c1.7 0 2.5.7 2.5 2.2 0 1.7-1.1 2.5-3.2 2.5-.8 0-1.7-.2-2.5-.4zm6.7-2.6c0-2 .9-2.9 2.8-2.9s2.8 1 2.8 2.9c0 2-.9 2.9-2.8 2.9s-2.8-1-2.8-2.9zm2.8 1.8c.9 0 1.4-.6 1.4-1.8 0-1.2-.5-1.8-1.4-1.8-.9 0-1.4.6-1.4 1.8 0 1.2.5 1.8 1.4 1.8zm5.4-6.9v8h-1.4v-8h1.4zm6.5 2.1V97h-1.1l-.2-.7c-.7.5-1.4.7-2.1.7-1.2 0-1.7-.7-1.7-2.1v-3.7h1.4v3.7c0 .6.3 1 .8 1s.9-.2 1.4-.6v-4.1h1.5zm1.2-.9h1.1l.2.9h1.4v1.2H192V95c0 .5.2.8.7.8h.6V97H192c-1 0-1.4-.5-1.4-1.6v-5.2zm5.2-1.2v1.2h-1.4V89h1.4zm0 2.1V97h-1.4v-5.9h1.4zm1 3c0-2 .9-2.9 2.8-2.9s2.8 1 2.8 2.9c0 2-.9 2.9-2.8 2.9-1.8 0-2.7-1-2.8-2.9zm2.9 1.8c.9 0 1.4-.6 1.4-1.8 0-1.2-.5-1.8-1.4-1.8-.9 0-1.4.6-1.4 1.8 0 1.2.5 1.8 1.4 1.8zm3.9 1.1v-5.9h1.1l.2.9c.5-.6 1.2-.9 1.9-.9 1.4 0 2 .7 2 2.2V97h-1.4v-3.7c0-.6-.3-1-.9-1-.5 0-.9.2-1.4.6V97h-1.5zm6.5-.3v-1.2c.6.3 1.4.4 2.2.4.6 0 .9-.2.9-.6 0-.4-.2-.6-.6-.6h-1c-1.2 0-1.7-.6-1.7-1.8 0-1.2.8-1.8 2.5-1.8.7 0 1.4.1 2 .3v1.2c-.6-.3-1.3-.4-2.1-.4s-1.2.2-1.2.6c0 .4.2.6.7.6h.9c1.3 0 1.9.6 1.9 1.8 0 1.2-.8 1.8-2.4 1.8-.7.1-1.4-.1-2.1-.3z" fill="#4169E1"/><path d="M36.9 86.8V53.7H43v13.7h16.3V53.7h6.1v33.1h-6.1V72.7H43v14.1h-6.1zm39.3-33.1v4.9H70v-4.9h6.2zm0 8.8v24.3H70V62.5h6.2zM101.9 85c0 7.1-4.3 10.7-12.8 10.7-3 0-5.7-.4-8-1.2v-4.9c2.4.8 5 1.2 8 1.2 4.4 0 6.6-1.9 6.6-5.6-1.8.8-3.8 1.2-5.9 1.2-7.2 0-10.8-3.9-10.8-11.8 0-8 4.2-12 12.6-12 2.8 0 6.2.3 10.2 1V85zm-6.1-17c-1-.4-2.4-.6-4.3-.6-4.2 0-6.4 2.3-6.4 7 0 4.5 1.8 6.8 5.5 6.8 1.8 0 3.5-.4 5.2-1.3V68zm10.1 18.8V53.7h6.1v11.9c1.9-2.1 4.4-3.1 7.3-3.1 5.8 0 8.6 3 8.6 9v15.3h-6.1V71.5c0-2.7-1.3-4-4-4-2 0-3.9.8-5.8 2.4v17h-6.1zm32.3-33.1v33.1H132V53.7h6.2zm2.8 25.5c0-4.8 3.5-7.3 10.6-7.3 1.7 0 3.3.2 5 .5v-1.8c0-2.2-1.6-3.3-4.7-3.3-2.7 0-5.6.4-8.9 1.2v-4.9c3.2-.8 6.2-1.2 8.9-1.2 7.2 0 10.8 2.7 10.8 8v16.3h-3.6l-2.2-2.2c-2.1 1.5-4.5 2.2-7 2.2-5.9.1-8.9-2.4-8.9-7.5zm10.6-3.1c-3 0-4.4 1-4.4 3 0 2.2 1.2 3.2 3.7 3.2 2 0 3.9-.6 5.7-1.9v-3.9c-1.6-.2-3.3-.4-5-.4zm15 10.7V62.5h4.8l.8 3.6c2.3-2.4 5-3.6 8-3.6 5.8 0 8.6 3 8.6 9v15.3h-6.1V71.5c0-2.7-1.3-4-4-4-2 0-3.9.8-5.8 2.4v17h-6.3zm47.7-1.5c-3.7 1-7.4 1.5-10.9 1.5-7.9 0-11.8-4.2-11.8-12.7 0-7.8 3.8-11.7 11.5-11.7 1.6 0 3.3.4 5 1.2v-10h6.1v31.7zm-6.1-16.5c-1.3-.8-2.9-1.3-4.8-1.3-3.8 0-5.7 2.1-5.7 6.4 0 5.1 2 7.6 6 7.6 1.6 0 3.1-.2 4.5-.7v-12z" fill="#3A3A3A"/></svg>