<svg xmlns="http://www.w3.org/2000/svg" viewBox="0 0 245.8 120.7"><path fill-rule="evenodd" clip-rule="evenodd" fill="#00BB27" d="M163.4 68.2l-24.9-29.3-21.4 30-26.6-19.2-40.6 38.9-37.7-12.8v5.3L49.9 95l40.8-39.1 27.1 20.7 20.9-30 24.5 29 66.5-54.7v-5.3z"/><path d="M36.9 86.8V53.7H43v13.7h16.3V53.7h6.1v33.1h-6.1V72.7H43v14.1zm39.3-33.1v4.9H70v-4.9zm0 8.8v24.3H70V62.5zM101.9 85c0 7.1-4.3 10.7-12.8 10.7-3 0-5.7-.4-8-1.2v-4.9c2.4.8 5 1.2 8 1.2 4.4 0 6.6-1.9 6.6-5.6-1.8.8-3.8 1.2-5.9 1.2-7.2 0-10.8-3.9-10.8-11.8 0-8 4.2-12 12.6-12 2.8 0 6.2.3 10.2 1zm-6.1-17c-1-.4-2.4-.6-4.3-.6-4.2 0-6.4 2.3-6.4 7 0 4.5 1.8 6.8 5.5 6.8 1.8 0 3.5-.4 5.2-1.3zm10.1 18.8V53.7h6.1v11.9c1.9-2.1 4.4-3.1 7.3-3.1 5.8 0 8.6 3 8.6 9v15.3h-6.1V71.5c0-2.7-1.3-4-4-4-2 0-3.9.8-5.8 2.4v17h-6.1zm32.3-33.1v33.1H132V53.7zm2.8 25.5c0-4.8 3.5-7.3 10.6-7.3 1.7 0 3.3.2 5 .5v-1.8c0-2.2-1.6-3.3-4.7-3.3-2.7 0-5.6.4-8.9 1.2v-4.9c3.2-.8 6.2-1.2 8.9-1.2 7.2 0 10.8 2.7 10.8 8v16.3h-3.6l-2.2-2.2c-2.1 1.5-4.5 2.2-7 2.2-5.9.1-8.9-2.4-8.9-7.5zm10.6-3.1c-3 0-4.4 1-4.4 3 0 2.2 1.2 3.2 3.7 3.2 2 0 3.9-.6 5.7-1.9v-3.9c-1.6-.2-3.3-.4-5-.4zm15 10.7V62.5h4.8l.8 3.6c2.3-2.4 5-3.6 8-3.6 5.8 0 8.6 3 8.6 9v15.3h-6.1V71.5c0-2.7-1.3-4-4-4-2 0-3.9.8-5.8 2.4v17h-6.3zm47.7-1.5c-3.7 1-7.4 1.5-10.9 1.5-7.9 0-11.8-4.2-11.8-12.7 0-7.8 3.8-11.7 11.5-11.7 1.6 0 3.3.4 5 1.2v-10h6.1v31.7zm-6.1-16.5c-1.3-.8-2.9-1.3-4.8-1.3-3.8 0-5.7 2.1-5.7 6.4 0 5.1 2 7.6 6 7.6 1.6 0 3.1-.2 4.5-.7z" fill="#3a3a3a" stroke="#afafaf" stroke-width=".8"/><path d="M172.157 95.312v-1.186c.722.274 1.534.365 2.347.365 1.083 0 1.624-.365 1.624-1.095 0-.547-.36-.82-.992-.82h-1.084c-1.444 0-2.166-.64-2.166-2.007 0-1.46.993-2.28 3.069-2.28.812 0 1.534.09 2.256.364v1.186c-.722-.274-1.444-.365-2.256-.365-1.173 0-1.805.365-1.805 1.095 0 .547.27.82.812.82h1.083c1.535 0 2.257.64 2.257 2.007 0 1.55-.993 2.28-2.889 2.28-.722 0-1.534-.182-2.256-.364zm6.047-2.372c0-1.824.812-2.645 2.527-2.645s2.527.912 2.527 2.645c0 1.825-.812 2.645-2.527 2.645s-2.527-.912-2.527-2.645zm2.527 1.642c.813 0 1.264-.547 1.264-1.642 0-1.094-.451-1.642-1.264-1.642-.812 0-1.263.548-1.263 1.642 0 1.095.451 1.642 1.263 1.642zm4.874-6.294v7.297h-1.264v-7.297zm5.866 1.916v5.381h-.992l-.18-.638c-.633.456-1.264.638-1.896.638-1.083 0-1.535-.638-1.535-1.915v-3.375h1.264v3.375c0 .547.27.912.722.912.451 0 .812-.182 1.264-.547v-3.74h1.353zm1.083-.821h.993l.18.82h1.264v1.095h-1.083v2.463c0 .456.18.73.632.73h.542v1.094h-1.174c-.902 0-1.263-.456-1.263-1.459v-4.743zm4.694-1.095v1.095h-1.264v-1.095zm0 1.916v5.381h-1.264v-5.381zm.902 2.736c0-1.824.812-2.645 2.527-2.645s2.527.912 2.527 2.645c0 1.825-.812 2.645-2.527 2.645-1.624 0-2.437-.912-2.527-2.645zm2.618 1.642c.812 0 1.263-.547 1.263-1.642 0-1.094-.451-1.642-1.263-1.642-.813 0-1.264.548-1.264 1.642 0 1.095.451 1.642 1.264 1.642zm3.519 1.003v-5.381h.993l.18.82a2.214 2.214 0 0 1 1.716-.82c1.263 0 1.805.638 1.805 2.007v3.374h-1.264v-3.374c0-.548-.27-.913-.812-.913-.451 0-.812.183-1.264.548v3.74zm5.867-.273v-1.095c.541.274 1.263.365 1.986.365.541 0 .812-.182.812-.547 0-.365-.18-.547-.542-.547h-.902c-1.083 0-1.535-.548-1.535-1.642 0-1.095.722-1.642 2.257-1.642.632 0 1.263.091 1.805.273v1.095c-.542-.274-1.173-.365-1.896-.365-.722 0-1.083.183-1.083.547 0 .365.181.548.632.548h.813c1.173 0 1.714.547 1.714 1.642 0 1.094-.722 1.641-2.166 1.641-.632.092-1.263-.09-1.895-.273z" fill="#4169e1"/><g style="line-height:1.25"><path d="M106.162 95.587h-1.344l3-7.145h1.41l3.065 7.145h-1.41l-.805-1.95h-2.349l.45-1.148h1.424l-1.112-2.683zm10.17-3.877q-.406-.27-1.019-.27-1.22 0-1.22 1.383 0 1.644 1.27 1.644.514 0 .969-.145zm1.31 3.562q-1.191.315-2.329.315-2.516 0-2.516-2.729 0-2.518 2.462-2.518.524 0 1.073.25v-2.148h1.31zm.618-4.932h1.384l1.261 3.668 1.31-3.668h1.384l-2.11 5.247h-1.246zm5.71 3.613q0-1.564 2.255-1.564.529 0 1.058.1v-.395q0-.705-1.004-.705-.85 0-1.889.25V90.59q1.039-.25 1.89-.25 2.313 0 2.313 1.729v3.518h-.762l-.464-.47q-.678.47-1.493.47-1.904 0-1.904-1.634zm3.313-.565q-.495-.1-1.058-.1-.945 0-.945.65 0 .7.791.7.653 0 1.212-.41zm2.551 2.199V90.34h1.013l.163.77q.747-.77 1.701-.77 1.844 0 1.844 1.939v3.308h-1.31v-3.308q0-.87-.855-.87-.638 0-1.246.515v3.663zm9.784-.15q-.643.15-1.335.15-2.769 0-2.769-2.724 0-2.523 2.769-2.523.692 0 1.335.15v1.05q-.643-.15-1.236-.15-1.558 0-1.558 1.473 0 1.674 1.558 1.674.593 0 1.236-.15zm3.065-5.097q2.363 0 2.363 2.439 0 .324-.044.65h-3.446q0 1.108 1.611 1.108.787 0 1.573-.15v1.05q-.688.15-1.671.15-2.823 0-2.823-2.684 0-2.563 2.437-2.563zm-1.127 2.169h2.215v-.04q0-1.09-1.088-1.09-1.038 0-1.127 1.13zm4.474 3.078V90.34h1.013l.154.76q.697-.76 1.676-.76t1.34.72q.796-.72 1.666-.72 1.79 0 1.79 1.994v3.253h-1.31v-3.303q0-.875-.782-.875-.583 0-1.122.53v3.648h-1.31v-3.288q0-.89-.722-.89-.574 0-1.083.53v3.648zm11.07-5.247q2.363 0 2.363 2.439 0 .324-.045.65h-3.446q0 1.108 1.612 1.108.786 0 1.572-.15v1.05q-.687.15-1.67.15-2.824 0-2.824-2.684 0-2.563 2.437-2.563zm-1.128 2.169h2.215v-.04q0-1.09-1.088-1.09-1.038 0-1.127 1.13zm4.474 3.078V90.34h1.014l.163.77q.747-.77 1.7-.77 1.845 0 1.845 1.939v3.308h-1.31v-3.308q0-.87-.856-.87-.637 0-1.245.515v3.663zm5.879-6.097h.969l.198.85h1.305v1.05h-1.162v2.413q0 .734.628.734h.534v1.05h-1.167q-1.305 0-1.305-1.414z" style="-inkscape-font-specification:'Sansation Bold'" font-weight="700" font-size="10.179" font-family="Sansation" letter-spacing="0" word-spacing="0" fill="#4169e1"/></g></svg>