<svg xmlns="http://www.w3.org/2000/svg" viewBox="0 0 245.8 120.7"><path fill-rule="evenodd" clip-rule="evenodd" fill="#00BB27" d="M163.4 68.2l-24.9-29.3-21.4 30-26.6-19.2-40.6 38.9-37.7-12.8v5.3L49.9 95l40.8-39.1 27.1 20.7 20.9-30 24.5 29 66.5-54.7v-5.3z"/><path d="M36.9 86.8V53.7H43v13.7h16.3V53.7h6.1v33.1h-6.1V72.7H43v14.1zm39.3-33.1v4.9H70v-4.9zm0 8.8v24.3H70V62.5zM101.9 85c0 7.1-4.3 10.7-12.8 10.7-3 0-5.7-.4-8-1.2v-4.9c2.4.8 5 1.2 8 1.2 4.4 0 6.6-1.9 6.6-5.6-1.8.8-3.8 1.2-5.9 1.2-7.2 0-10.8-3.9-10.8-11.8 0-8 4.2-12 12.6-12 2.8 0 6.2.3 10.2 1V85zm-6.1-17c-1-.4-2.4-.6-4.3-.6-4.2 0-6.4 2.3-6.4 7 0 4.5 1.8 6.8 5.5 6.8 1.8 0 3.5-.4 5.2-1.3zm10.1 18.8V53.7h6.1v11.9c1.9-2.1 4.4-3.1 7.3-3.1 5.8 0 8.6 3 8.6 9v15.3h-6.1V71.5c0-2.7-1.3-4-4-4-2 0-3.9.8-5.8 2.4v17h-6.1zm32.3-33.1v33.1H132V53.7zm2.8 25.5c0-4.8 3.5-7.3 10.6-7.3 1.7 0 3.3.2 5 .5v-1.8c0-2.2-1.6-3.3-4.7-3.3-2.7 0-5.6.4-8.9 1.2v-4.9c3.2-.8 6.2-1.2 8.9-1.2 7.2 0 10.8 2.7 10.8 8v16.3h-3.6l-2.2-2.2c-2.1 1.5-4.5 2.2-7 2.2-5.9.1-8.9-2.4-8.9-7.5zm10.6-3.1c-3 0-4.4 1-4.4 3 0 2.2 1.2 3.2 3.7 3.2 2 0 3.9-.6 5.7-1.9v-3.9c-1.6-.2-3.3-.4-5-.4zm15 10.7V62.5h4.8l.8 3.6c2.3-2.4 5-3.6 8-3.6 5.8 0 8.6 3 8.6 9v15.3h-6.1V71.5c0-2.7-1.3-4-4-4-2 0-3.9.8-5.8 2.4v17h-6.3zm47.7-1.5c-3.7 1-7.4 1.5-10.9 1.5-7.9 0-11.8-4.2-11.8-12.7 0-7.8 3.8-11.7 11.5-11.7 1.6 0 3.3.4 5 1.2v-10h6.1v31.7zm-6.1-16.5c-1.3-.8-2.9-1.3-4.8-1.3-3.8 0-5.7 2.1-5.7 6.4 0 5.1 2 7.6 6 7.6 1.6 0 3.1-.2 4.5-.7z" fill="#3a3a3a" stroke="#afafaf" stroke-width=".8"/><g fill="#4169e1"><path d="M172.157 95.312v-1.186c.722.274 1.534.365 2.347.365 1.083 0 1.624-.365 1.624-1.095 0-.547-.36-.82-.992-.82h-1.084c-1.444 0-2.166-.64-2.166-2.007 0-1.46.993-2.28 3.069-2.28.812 0 1.534.09 2.256.364v1.186c-.722-.274-1.444-.365-2.256-.365-1.173 0-1.805.365-1.805 1.095 0 .547.27.82.812.82h1.083c1.535 0 2.257.64 2.257 2.007 0 1.55-.993 2.28-2.888 2.28-.723 0-1.535-.182-2.257-.364zm6.047-2.372c0-1.824.812-2.645 2.527-2.645s2.527.912 2.527 2.645c0 1.825-.812 2.645-2.527 2.645s-2.527-.912-2.527-2.645zm2.527 1.642c.813 0 1.264-.547 1.264-1.642 0-1.094-.451-1.642-1.264-1.642-.812 0-1.263.548-1.263 1.642 0 1.095.451 1.642 1.263 1.642zm4.874-6.294v7.297h-1.264v-7.297zm5.866 1.916v5.381h-.992l-.18-.638c-.633.456-1.264.638-1.896.638-1.083 0-1.535-.638-1.535-1.915v-3.375h1.264v3.375c0 .547.27.912.722.912.451 0 .812-.182 1.264-.547v-3.74h1.353zm1.083-.821h.993l.18.82h1.264v1.095h-1.083v2.463c0 .456.18.73.632.73h.542v1.094h-1.174c-.902 0-1.263-.456-1.263-1.459v-4.743zm4.694-1.095v1.095h-1.264v-1.095zm0 1.916v5.381h-1.264v-5.381zm.902 2.736c0-1.824.812-2.645 2.527-2.645s2.527.912 2.527 2.645c0 1.825-.812 2.645-2.527 2.645-1.624 0-2.437-.912-2.527-2.645zm2.618 1.642c.812 0 1.263-.547 1.263-1.642 0-1.094-.451-1.642-1.263-1.642-.813 0-1.264.548-1.264 1.642 0 1.095.451 1.642 1.264 1.642zm3.519 1.003v-5.381h.993l.18.82a2.213 2.213 0 0 1 1.716-.82c1.263 0 1.805.638 1.805 2.007v3.374h-1.264v-3.374c0-.548-.27-.913-.812-.913-.451 0-.812.183-1.264.548v3.74zm5.867-.273v-1.095c.541.274 1.263.365 1.985.365.542 0 .813-.182.813-.547 0-.365-.18-.547-.542-.547h-.902c-1.083 0-1.535-.548-1.535-1.642 0-1.095.722-1.642 2.257-1.642.632 0 1.263.091 1.805.273v1.095c-.542-.274-1.173-.365-1.896-.365-.722 0-1.083.183-1.083.547 0 .365.181.548.632.548h.813c1.173 0 1.714.547 1.714 1.642 0 1.094-.722 1.641-2.166 1.641-.632.092-1.263-.09-1.895-.273z"/><text y="97.001" x="93.151" style="line-height:1.25" font-weight="400" font-size="42.07" font-family="sans-serif" letter-spacing="0" word-spacing="0" stroke-width="1.052" transform="matrix(.90254 0 0 .91214 20.621 7.108)"><tspan style="-inkscape-font-specification:'Sansation Bold'" y="97.001" x="93.151" font-weight="700" font-size="11.219" font-family="Sansation">Advancement</tspan></text></g></svg>